<?xml version="1.0" encoding="utf-8"?>
<!-- Generator: Adobe Illustrator 24.2.3, SVG Export Plug-In . SVG Version: 6.00 Build 0)  -->
<svg version="1.1" id="Capa_1" xmlns="http://www.w3.org/2000/svg" xmlns:xlink="http://www.w3.org/1999/xlink" x="0px" y="0px"
	 viewBox="0 0 76.25 76.25" style="enable-background:new 0 0 76.25 76.25;" xml:space="preserve">
<style type="text/css">
	.st0{fill:#17A9EB;}
</style>
<path class="st0" d="M38.12,0C17.07,0,0,17.07,0,38.12s17.07,38.12,38.12,38.12s38.12-17.07,38.12-38.12S59.18,0,38.12,0L38.12,0z
	 M18.67,41.01c-0.06-0.63-0.09-1.27-0.09-1.91l0,0c0.06-10.98,8.82-19.94,19.79-20.25l0,0c0.15,0,0.31-0.01,0.46-0.01
	c4.99,0,9.8,1.84,13.52,5.17c0.47,0.47,0.46,1.23-0.01,1.7c-0.43,0.43-1.11,0.46-1.59,0.09c-3.27-2.94-7.52-4.56-11.92-4.56
	c-0.13,0-0.27,0-0.4,0l0,0c-9.68,0.27-17.41,8.17-17.46,17.86c0,0.56,0.03,1.13,0.08,1.68c0.06,0.66-0.42,1.24-1.08,1.3
	c-0.04,0-0.07,0.01-0.11,0.01C19.24,42.1,18.73,41.63,18.67,41.01z M22.63,49.23c-0.17,0.09-0.37,0.14-0.57,0.14
	c-0.44,0-0.84-0.24-1.05-0.63c-0.64-1.19-1.17-2.44-1.56-3.74c-0.15-0.64,0.24-1.29,0.89-1.45c0.59-0.14,1.19,0.18,1.4,0.75
	c0.35,1.14,0.81,2.25,1.38,3.3C23.43,48.18,23.22,48.91,22.63,49.23L22.63,49.23z M27.87,54.74c-0.41,0.52-1.17,0.6-1.68,0.19
	c-1.06-0.85-2.03-1.8-2.9-2.84c-0.46-0.48-0.44-1.24,0.04-1.7c0.48-0.46,1.24-0.44,1.7,0.04c0.04,0.04,0.07,0.08,0.1,0.12
	c0.77,0.92,1.62,1.75,2.55,2.5C28.19,53.47,28.28,54.23,27.87,54.74L27.87,54.74z M34.84,57.79c-0.18,0.63-0.83,1.01-1.47,0.83
	c0,0-0.01,0-0.01,0c-1.3-0.37-2.57-0.86-3.77-1.48c-0.57-0.34-0.75-1.08-0.41-1.65c0.31-0.52,0.96-0.72,1.51-0.48
	c1.06,0.55,2.18,0.98,3.33,1.31C34.64,56.49,35.02,57.15,34.84,57.79L34.84,57.79z M30.96,41.32c-0.72-0.7-0.74-1.85-0.04-2.57
	c0.7-0.72,1.85-0.74,2.57-0.04l0,0l3.97,3.86l7.99-8.07c0.72-0.7,1.87-0.68,2.57,0.04c0.68,0.7,0.68,1.81,0.01,2.52l-8.71,8.79
	c-1.01,1.01-2.64,1.03-3.67,0.04L30.96,41.32z M62.23,42.74c-0.47,0.47-1.22,0.47-1.69,0l-1.55-1.55
	c-1.1,10.14-9.53,17.9-19.72,18.17l0,0c-0.14,0-0.29,0-0.43,0c-0.49,0-0.99-0.02-1.48-0.05c-0.66-0.05-1.16-0.62-1.11-1.28
	c0.05-0.66,0.62-1.15,1.28-1.11c0.56,0.04,1.13,0.06,1.68,0.04l0,0c8.85-0.24,16.21-6.88,17.34-15.66l-1.62,1.52
	c-0.45,0.49-1.21,0.52-1.7,0.07s-0.52-1.21-0.07-1.7c0.04-0.04,0.08-0.08,0.12-0.12l3.36-3.15c0.7-0.67,1.81-0.65,2.49,0.04
	l3.09,3.09C62.7,41.52,62.7,42.28,62.23,42.74L62.23,42.74z"/>
</svg>
