<?xml version="1.0" encoding="utf-8"?>
<!-- Generator: Adobe Illustrator 24.2.3, SVG Export Plug-In . SVG Version: 6.00 Build 0)  -->
<svg version="1.1" id="Capa_1" xmlns="http://www.w3.org/2000/svg" xmlns:xlink="http://www.w3.org/1999/xlink" x="0px" y="0px"
	 viewBox="0 0 39.1 39.1" style="enable-background:new 0 0 39.1 39.1;" xml:space="preserve">
<style type="text/css">
	.st0{fill:#B5B5B5;}
</style>
<path class="st0" d="M19.55,0C8.75,0,0,8.75,0,19.55S8.75,39.1,19.55,39.1S39.1,30.35,39.1,19.55c0,0,0,0,0,0
	C39.08,8.76,30.34,0.01,19.55,0z M24.97,11.6c0,0.16-0.13,0.29-0.29,0.29l0,0h-2.35c-0.57,0-1.04,0.47-1.04,1.04c0,0,0,0,0,0.01
	v2.46h3.34c0.17,0,0.3,0.13,0.3,0.3c0,0.01,0,0.01,0,0.02l-0.3,3.47c-0.01,0.15-0.14,0.27-0.29,0.26h-3.05v11.52
	c0,0.16-0.13,0.3-0.29,0.3h-4.21c-0.17,0-0.3-0.13-0.3-0.3V19.45h-2.1c-0.16,0-0.3-0.12-0.3-0.28c0,0,0,0,0,0V15.7
	c0-0.17,0.13-0.3,0.3-0.3h2.1v-3.34c0-2.33,1.89-4.22,4.22-4.22h3.97c0.16,0,0.29,0.13,0.29,0.29L24.97,11.6z"/>
</svg>
