<?xml version="1.0" encoding="utf-8"?>
<!-- Generator: Adobe Illustrator 24.2.3, SVG Export Plug-In . SVG Version: 6.00 Build 0)  -->
<svg version="1.1" id="Capa_1" xmlns="http://www.w3.org/2000/svg" xmlns:xlink="http://www.w3.org/1999/xlink" x="0px" y="0px"
	 viewBox="0 0 39.23 39.23" style="enable-background:new 0 0 39.23 39.23;" xml:space="preserve">
<style type="text/css">
	.st0{fill:#B5B5B5;}
</style>
<path class="st0" d="M19.61,39.23C8.78,39.23,0,30.44,0,19.61C0.01,8.78,8.79,0,19.62,0c10.83,0,19.61,8.78,19.61,19.61
	C39.22,30.44,30.44,39.22,19.61,39.23 M26.23,11.66c-0.8,0-1.45,0.66-1.44,1.46c0,0.8,0.66,1.45,1.46,1.44
	c0.8,0,1.44-0.65,1.44-1.45c0-0.8-0.64-1.45-1.44-1.45C26.24,11.66,26.23,11.66,26.23,11.66 M19.78,13.52c-3.37,0-6.1,2.73-6.1,6.1
	s2.73,6.1,6.1,6.1c3.37,0,6.1-2.73,6.1-6.1c0,0,0,0,0,0C25.88,16.25,23.14,13.52,19.78,13.52 M19.78,23.52
	c-2.15,0-3.9-1.75-3.89-3.91s1.75-3.9,3.91-3.89c2.15,0,3.89,1.74,3.89,3.89C23.68,21.77,21.93,23.52,19.78,23.52 M32.08,14.54
	c0-4.11-3.33-7.44-7.44-7.44c0,0,0,0-0.01,0h-9.81c-4.11,0-7.44,3.33-7.44,7.44v9.82c0,4.11,3.33,7.44,7.44,7.44h9.81
	c4.11,0,7.44-3.33,7.44-7.43c0,0,0,0,0-0.01L32.08,14.54z M29.75,24.36c0,2.82-2.29,5.11-5.11,5.11c0,0,0,0,0,0h-9.81
	c-2.82,0-5.11-2.29-5.11-5.11l0,0v-9.82c0-2.82,2.28-5.1,5.1-5.1c0,0,0,0,0.01,0h9.81c2.82,0,5.11,2.28,5.11,5.1L29.75,24.36z"/>
</svg>
