<?xml version="1.0" encoding="utf-8"?>
<!-- Generator: Adobe Illustrator 24.2.3, SVG Export Plug-In . SVG Version: 6.00 Build 0)  -->
<svg version="1.1" id="Capa_1" xmlns="http://www.w3.org/2000/svg" xmlns:xlink="http://www.w3.org/1999/xlink" x="0px" y="0px"
	 viewBox="0 0 169.14 22.25" style="enable-background:new 0 0 169.14 22.25;" xml:space="preserve">
<style type="text/css">
	.st0{fill:#EB5523;}
	.st1{fill:#FFFFFF;}
</style>
<g transform="translate(-280.746 -34.063)">
	<path class="st0" d="M307.69,52.24l-2.58-10.69c-0.39-1.68-1.78-2.95-3.49-3.17c-0.1-0.01-0.21-0.02-0.32-0.02h-13.92
		c-0.87,0.03-1.7,0.34-2.38,0.88c-0.74,0.54-1.3,1.3-1.59,2.16c-0.01,0.05-0.03,0.1-0.04,0.15l-2.58,10.69
		c-0.3,1.78,0.83,3.48,2.59,3.89c0.34,0.09,0.68,0.14,1.03,0.14h2.13l6.31-10.01l-4.89,1.52c-0.59,0.23-1.23,0.3-1.86,0.23
		c-0.23-0.03-0.45-0.1-0.65-0.22c-0.12-0.07-0.23-0.18-0.3-0.3c-0.09-0.16-0.1-0.35-0.04-0.52c0.07-0.19,0.17-0.37,0.31-0.52
		c0.33-0.34,0.74-0.6,1.18-0.77c0.06-0.02,0.12-0.05,0.18-0.07l8.79-3.27c0.35-0.14,0.72-0.23,1.09-0.27
		c0.15-0.01,0.31-0.01,0.46,0.01c0.47,0.03,0.92,0.23,1.26,0.56l4.29,4.64c0.35,0.32,0.47,0.84,0.28,1.28
		c-0.13,0.28-0.35,0.51-0.63,0.66c-0.12,0.07-0.24,0.12-0.36,0.17c-0.85,0.31-1.79,0.24-2.59-0.17c-0.16-0.09-0.31-0.21-0.44-0.35
		l-2.52-2.17l-3.06,9.59h10.93c1.82,0.11,3.38-1.28,3.49-3.1C307.79,52.86,307.76,52.55,307.69,52.24"/>
	<path class="st0" d="M448.59,48.81c0.71-0.01,1.29,0.56,1.29,1.27c0,0.01,0,0.02,0,0.03c0.01,0.35-0.13,0.68-0.38,0.92
		c-0.24,0.24-0.57,0.38-0.91,0.38c-0.35,0-0.68-0.14-0.92-0.39c-0.5-0.5-0.5-1.32,0-1.82c0.01-0.01,0.01-0.01,0.02-0.02
		C447.93,48.94,448.26,48.81,448.59,48.81 M448.6,49.05c-0.28-0.01-0.54,0.1-0.74,0.3c-0.21,0.2-0.32,0.48-0.32,0.77
		c0,0.58,0.47,1.05,1.05,1.06c0.21,0,0.41-0.06,0.59-0.18c0.17-0.11,0.31-0.28,0.39-0.47c0.05-0.13,0.08-0.27,0.08-0.41
		C449.65,49.53,449.19,49.06,448.6,49.05C448.6,49.05,448.6,49.05,448.6,49.05 M448.05,49.37h0.57c0.41,0,0.61,0.14,0.61,0.41
		c0.01,0.18-0.12,0.35-0.3,0.38l0.31,0.63h-0.43l-0.27-0.56h-0.1v0.57h-0.39L448.05,49.37z M448.43,49.61v0.38h0.14
		c0.17,0,0.26-0.06,0.26-0.18s-0.09-0.2-0.28-0.2L448.43,49.61z"/>
	<path class="st1" d="M318.05,43.69c0.4-0.01,0.77-0.24,0.96-0.6c0.11-0.25,0.15-0.53,0.14-0.8c0.05-0.61-0.24-1.21-0.75-1.55
		c-0.66-0.36-1.41-0.52-2.16-0.48c-0.86-0.09-1.72,0.24-2.3,0.88c-0.29,0.43-0.46,0.93-0.49,1.45h-1.94
		c-0.1-1.25,0.46-2.46,1.48-3.19c0.99-0.61,2.14-0.92,3.3-0.9c1.23-0.05,2.46,0.23,3.54,0.83c0.89,0.54,1.41,1.54,1.35,2.58v7.12
		c-0.01,0.18,0.04,0.36,0.13,0.52c0.14,0.15,0.35,0.23,0.56,0.2c0.09,0,0.2-0.01,0.31-0.02s0.24-0.03,0.37-0.05v1.54
		c-0.24,0.07-0.49,0.13-0.74,0.17c-0.23,0.03-0.46,0.04-0.69,0.04c-0.62,0.05-1.21-0.24-1.56-0.76c-0.2-0.35-0.32-0.74-0.36-1.14
		c-0.49,0.61-1.12,1.1-1.82,1.44c-0.81,0.41-1.71,0.62-2.62,0.61c-1.04,0.04-2.05-0.34-2.81-1.04c-0.72-0.67-1.11-1.62-1.09-2.61
		c-0.06-1,0.34-1.98,1.07-2.66c0.8-0.67,1.78-1.07,2.81-1.16L318.05,43.69z M313.67,49.3c0.44,0.35,0.99,0.53,1.56,0.52
		c0.74,0,1.46-0.17,2.12-0.51c1.09-0.47,1.78-1.56,1.73-2.75v-1.67c-0.3,0.18-0.63,0.32-0.98,0.4c-0.38,0.11-0.78,0.18-1.17,0.23
		l-1.26,0.16c-0.59,0.05-1.17,0.21-1.7,0.47c-0.63,0.34-1.01,1.01-0.96,1.73C312.99,48.44,313.24,48.96,313.67,49.3"/>
	<path class="st1" d="M323.86,38.82h2.05v1.75c0.38-0.5,0.83-0.95,1.34-1.33c0.69-0.47,1.5-0.71,2.33-0.7
		c0.85-0.04,1.69,0.22,2.38,0.73c0.39,0.34,0.7,0.76,0.92,1.22c0.82-1.25,2.23-1.99,3.73-1.95c1.39-0.15,2.73,0.57,3.39,1.8
		c0.36,0.82,0.52,1.71,0.48,2.61v8.22h-2.16v-8.58c0.08-0.63-0.15-1.26-0.61-1.7c-0.44-0.32-0.97-0.48-1.51-0.46
		c-0.78-0.01-1.53,0.28-2.1,0.82c-0.66,0.75-0.98,1.74-0.88,2.73v7.18h-2.11v-8.06c0.04-0.63-0.06-1.25-0.3-1.83
		c-0.37-0.61-1.06-0.94-1.77-0.86c-0.81,0.01-1.57,0.34-2.14,0.91c-0.75,0.93-1.1,2.12-0.96,3.3v6.55h-2.08V38.82z"/>
	<path class="st1" d="M350.45,39.15c0.75,0.36,1.4,0.91,1.87,1.6c0.43,0.66,0.71,1.4,0.83,2.18c0.15,0.9,0.21,1.81,0.18,2.72h-8.99
		c-0.02,1.07,0.29,2.13,0.88,3.02c0.6,0.79,1.56,1.21,2.55,1.14c0.98,0.04,1.92-0.35,2.58-1.08c0.36-0.42,0.62-0.91,0.76-1.45h2.04
		c-0.08,0.53-0.26,1.05-0.54,1.52c-0.27,0.51-0.61,0.97-1.02,1.37c-0.64,0.62-1.45,1.06-2.32,1.24c-0.55,0.13-1.12,0.19-1.68,0.18
		c-1.48,0.02-2.89-0.59-3.89-1.68c-1.13-1.3-1.7-2.99-1.59-4.7c-0.08-1.75,0.49-3.48,1.61-4.83c1.04-1.23,2.59-1.91,4.2-1.86
		C348.81,38.54,349.68,38.75,350.45,39.15 M351.2,44.01c-0.04-0.75-0.24-1.49-0.58-2.16c-0.57-1-1.67-1.59-2.83-1.5
		c-0.91-0.02-1.77,0.36-2.38,1.03c-0.65,0.72-1.02,1.65-1.02,2.62L351.2,44.01z"/>
	<path class="st1" d="M355.31,38.82h1.97v2.13c0.29-0.58,0.69-1.1,1.19-1.52c0.58-0.58,1.36-0.9,2.18-0.89c0.04,0,0.1,0,0.2,0.01
		c0.1,0.01,0.25,0.02,0.47,0.05v2.19c-0.11-0.02-0.23-0.04-0.34-0.05c-0.1-0.01-0.22-0.01-0.34-0.01c-0.92-0.06-1.81,0.32-2.41,1.01
		c-0.55,0.65-0.85,1.47-0.84,2.32v7.11h-2.07L355.31,38.82z"/>
	<path class="st1" d="M362.41,34.22h2.11v2.35h-2.11V34.22z M362.41,38.87h2.11v12.3h-2.11V38.87z"/>
	<path class="st1" d="M375.11,39.47c0.98,0.9,1.55,2.16,1.57,3.49h-2.02c-0.09-0.7-0.39-1.36-0.84-1.9
		c-0.56-0.55-1.33-0.83-2.11-0.76c-1.27-0.04-2.41,0.74-2.84,1.93c-0.4,0.98-0.58,2.04-0.55,3.1c-0.04,1.09,0.23,2.18,0.78,3.12
		c0.98,1.37,2.89,1.68,4.25,0.69c0.09-0.07,0.18-0.14,0.26-0.21c0.54-0.61,0.91-1.35,1.04-2.15h2.02c-0.07,2.69-2.32,4.82-5.01,4.74
		c-0.09,0-0.17-0.01-0.26-0.01c-1.5,0.05-2.93-0.6-3.86-1.77c-0.99-1.26-1.5-2.82-1.45-4.42c-0.11-1.82,0.45-3.63,1.58-5.06
		c1-1.18,2.48-1.85,4.02-1.81C372.92,38.4,374.12,38.76,375.11,39.47"/>
	<path class="st1" d="M384.67,43.69c0.4-0.01,0.77-0.24,0.96-0.6c0.11-0.25,0.15-0.53,0.14-0.8c0.05-0.61-0.24-1.2-0.75-1.55
		c-0.66-0.36-1.41-0.52-2.16-0.48c-0.86-0.09-1.72,0.24-2.3,0.88c-0.29,0.43-0.46,0.93-0.49,1.45h-1.94
		c-0.1-1.25,0.46-2.46,1.48-3.19c0.99-0.61,2.14-0.92,3.3-0.9c1.23-0.05,2.46,0.23,3.54,0.83c0.89,0.54,1.41,1.54,1.35,2.58v7.12
		c-0.01,0.18,0.04,0.36,0.13,0.52c0.14,0.15,0.35,0.23,0.56,0.2c0.09,0,0.2-0.01,0.31-0.02s0.24-0.03,0.37-0.05v1.54
		c-0.24,0.07-0.49,0.13-0.74,0.17c-0.23,0.03-0.46,0.04-0.69,0.04c-0.62,0.05-1.21-0.24-1.56-0.76c-0.2-0.35-0.32-0.74-0.36-1.14
		c-0.49,0.61-1.12,1.1-1.82,1.44c-0.81,0.41-1.71,0.62-2.62,0.61c-1.04,0.04-2.05-0.34-2.81-1.04c-0.72-0.67-1.12-1.62-1.09-2.61
		c-0.06-1,0.34-1.98,1.07-2.66c0.8-0.67,1.78-1.07,2.81-1.16L384.67,43.69z M380.3,49.3c0.44,0.35,0.99,0.53,1.56,0.52
		c0.74,0,1.46-0.17,2.12-0.51c1.09-0.47,1.78-1.56,1.73-2.75v-1.67c-0.3,0.18-0.63,0.32-0.98,0.4c-0.38,0.11-0.78,0.18-1.17,0.23
		l-1.26,0.16c-0.59,0.05-1.17,0.21-1.7,0.47c-0.63,0.34-1.01,1.01-0.96,1.73C379.62,48.44,379.86,48.96,380.3,49.3"/>
	<path class="st1" d="M390.48,38.82h1.97v1.75c0.5-0.65,1.13-1.18,1.86-1.56c0.68-0.32,1.43-0.48,2.18-0.47
		c1.45-0.16,2.85,0.56,3.55,1.83c0.38,0.91,0.56,1.89,0.51,2.87v7.92h-2.11v-7.79c0.03-0.62-0.09-1.25-0.33-1.82
		c-0.36-0.77-1.16-1.23-2.01-1.15c-0.41-0.01-0.82,0.04-1.21,0.15c-0.59,0.18-1.11,0.54-1.5,1.02c-0.32,0.36-0.55,0.79-0.67,1.26
		c-0.12,0.61-0.17,1.24-0.15,1.86v6.47h-2.08L390.48,38.82z"/>
	<path class="st0" d="M405.47,47.16c0.02,0.45,0.18,0.89,0.45,1.24c0.64,0.51,1.46,0.75,2.27,0.66c0.53,0.02,1.06-0.08,1.55-0.29
		c0.35-0.14,0.58-0.49,0.57-0.86c0.01-0.34-0.16-0.67-0.46-0.84c-1.11-0.44-2.26-0.77-3.44-0.99c-1.1-0.2-2.13-0.65-3.02-1.33
		c-0.61-0.59-0.93-1.42-0.88-2.26c0-1.15,0.5-2.25,1.37-2.99c1.08-0.89,2.46-1.34,3.85-1.25c1.34-0.06,2.68,0.27,3.84,0.94
		c1.06,0.75,1.69,1.95,1.71,3.25H410c-0.02-0.36-0.15-0.71-0.36-1c-0.48-0.49-1.16-0.74-1.85-0.67c-0.53-0.05-1.07,0.07-1.53,0.33
		c-0.27,0.17-0.44,0.46-0.46,0.79c-0.02,0.35,0.17,0.67,0.48,0.82c1.12,0.4,2.26,0.71,3.43,0.91c1.09,0.2,2.1,0.68,2.94,1.4
		c0.64,0.62,0.99,1.47,0.97,2.36c0.03,1.18-0.48,2.3-1.39,3.05c-2.68,1.6-6.03,1.57-8.69-0.07c-0.93-0.8-1.45-1.97-1.42-3.19
		L405.47,47.16z"/>
	<path class="st0" d="M418.73,37.1h-3.33v-3.03h3.33V37.1z M415.4,38.6h3.33v12.57h-3.33V38.6z"/>
	<path class="st0" d="M427.42,38.59c0.84,0.36,1.52,1.01,1.93,1.82V38.6h3.21v11.93c0.08,1.28-0.2,2.55-0.82,3.67
		c-0.94,1.41-2.74,2.12-5.4,2.12c-1.37,0.06-2.74-0.27-3.93-0.95c-1-0.6-1.63-1.66-1.68-2.83h3.58c0.06,0.32,0.21,0.61,0.45,0.83
		c0.53,0.35,1.16,0.51,1.79,0.45c0.96,0.12,1.9-0.35,2.38-1.19c0.31-0.81,0.45-1.69,0.39-2.56v-0.81c-0.25,0.47-0.6,0.88-1.02,1.21
		c-0.74,0.53-1.64,0.79-2.55,0.75c-1.48,0.06-2.91-0.57-3.87-1.7c-1.02-1.31-1.54-2.95-1.45-4.61c-0.06-1.68,0.43-3.33,1.39-4.71
		c0.91-1.26,2.4-1.98,3.95-1.91C426.33,38.29,426.89,38.38,427.42,38.59 M428.54,47.6c0.6-0.8,0.88-1.78,0.79-2.77
		c0.07-0.97-0.2-1.93-0.75-2.72c-0.48-0.61-1.23-0.96-2.02-0.93c-1.07-0.05-2.04,0.61-2.38,1.63c-0.25,0.68-0.37,1.41-0.35,2.13
		c-0.01,0.67,0.11,1.33,0.37,1.95c0.36,1,1.33,1.65,2.39,1.59C427.34,48.48,428.05,48.16,428.54,47.6"/>
	<path class="st0" d="M445.06,39.32c0.9,0.88,1.36,2.13,1.23,3.39v8.46h-3.37v-7.65c0.03-0.52-0.06-1.04-0.26-1.52
		c-0.36-0.67-1.08-1.05-1.83-0.97c-0.99-0.07-1.91,0.5-2.28,1.42c-0.23,0.61-0.34,1.26-0.32,1.91v6.8h-3.29V38.62h3.18v1.83
		c0.32-0.53,0.72-1,1.2-1.4c0.75-0.53,1.65-0.8,2.56-0.76C443.04,38.24,444.16,38.61,445.06,39.32"/>
	<g transform="translate(311.589 53.25)">
		<path class="st1" d="M0.57,2.07c0.01,0.11,0.05,0.21,0.11,0.3c0.14,0.13,0.32,0.2,0.51,0.18c0.12,0,0.24-0.01,0.35-0.05
			C1.7,2.47,1.81,2.33,1.8,2.17c0-0.09-0.05-0.18-0.13-0.22c-0.13-0.06-0.26-0.11-0.4-0.14L0.97,1.75C0.75,1.71,0.53,1.64,0.34,1.53
			C0.14,1.38,0.03,1.15,0.05,0.9c-0.01-0.25,0.1-0.48,0.28-0.64c0.24-0.19,0.53-0.28,0.83-0.26C1.45,0,1.72,0.09,1.95,0.25
			c0.22,0.17,0.35,0.43,0.34,0.7H1.71c0-0.16-0.09-0.3-0.23-0.37C1.37,0.53,1.25,0.51,1.12,0.51C0.99,0.5,0.86,0.54,0.74,0.6
			C0.65,0.66,0.6,0.76,0.6,0.86c0,0.1,0.05,0.19,0.14,0.23c0.12,0.05,0.25,0.09,0.38,0.12l0.5,0.12c0.18,0.03,0.35,0.1,0.5,0.21
			C2.3,1.68,2.39,1.9,2.38,2.13c0.01,0.25-0.11,0.49-0.3,0.65C1.83,2.97,1.53,3.06,1.22,3.04C0.9,3.06,0.59,2.97,0.33,2.78
			C0.11,2.62-0.01,2.36,0,2.08L0.57,2.07z"/>
		<path class="st1" d="M8.28,2.7c-0.55,0.45-1.33,0.45-1.88,0C6.09,2.39,5.94,1.96,5.96,1.52C5.93,1.08,6.09,0.65,6.4,0.34
			c0.55-0.45,1.33-0.45,1.88,0c0.31,0.31,0.47,0.74,0.44,1.18C8.75,1.96,8.59,2.39,8.28,2.7z M7.91,2.27c0.28-0.46,0.28-1.04,0-1.5
			C7.77,0.59,7.56,0.5,7.34,0.5C7.12,0.5,6.91,0.59,6.77,0.77c-0.28,0.46-0.28,1.04,0,1.5c0.14,0.17,0.35,0.27,0.57,0.26
			C7.56,2.54,7.77,2.44,7.91,2.27L7.91,2.27z"/>
		<path class="st1" d="M12.45,0.09h0.6v2.35h1.44v0.52h-2.03L12.45,0.09z"/>
	</g>
	<g transform="translate(329.744 53.283)">
		<path class="st1" d="M0,0.06h0.61v1.76C0.6,1.97,0.62,2.11,0.68,2.25c0.19,0.26,0.55,0.32,0.81,0.13c0.05-0.04,0.1-0.08,0.13-0.13
			C1.68,2.11,1.7,1.97,1.69,1.82V0.06H2.3v1.76c0.01,0.25-0.04,0.49-0.14,0.71C1.69,3.09,0.85,3.16,0.29,2.68
			c-0.05-0.05-0.1-0.1-0.15-0.15C0.04,2.31-0.01,2.07,0,1.82V0.06z"/>
		<path class="st1" d="M6.42,0.35c0.54-0.5,1.39-0.47,1.89,0.08c0.01,0.01,0.03,0.03,0.04,0.04c0.12,0.16,0.18,0.34,0.2,0.54h-0.6
			C7.93,0.9,7.88,0.79,7.81,0.7c-0.12-0.13-0.3-0.2-0.48-0.19c-0.2-0.01-0.39,0.09-0.51,0.26C6.69,1,6.62,1.26,6.64,1.52
			c-0.02,0.26,0.05,0.51,0.2,0.72c0.12,0.16,0.3,0.25,0.5,0.24C7.52,2.5,7.69,2.42,7.81,2.28c0.07-0.1,0.12-0.21,0.15-0.33h0.6
			C8.51,2.24,8.37,2.51,8.16,2.71C7.94,2.91,7.65,3.02,7.35,3C6.98,3.02,6.63,2.87,6.38,2.6C5.9,1.92,5.92,1.01,6.43,0.35L6.42,0.35
			z"/>
	</g>
	<g transform="translate(341.996 53.25)">
		<path class="st1" d="M0.6,2.96H0V0.09h0.6V2.96z"/>
		<path class="st1" d="M6.64,2.7c-0.55,0.45-1.33,0.45-1.88,0C4.45,2.39,4.29,1.96,4.32,1.52C4.29,1.08,4.45,0.65,4.76,0.34
			c0.55-0.45,1.33-0.45,1.88,0c0.31,0.31,0.47,0.75,0.43,1.18C7.1,1.96,6.94,2.39,6.64,2.7z M6.26,2.27c0.28-0.46,0.28-1.04,0-1.5
			C6.13,0.59,5.92,0.5,5.7,0.5C5.48,0.5,5.27,0.59,5.13,0.77c-0.28,0.46-0.28,1.04,0,1.5C5.27,2.44,5.48,2.54,5.7,2.53
			C5.92,2.54,6.13,2.44,6.26,2.27L6.26,2.27z"/>
	</g>
	<g transform="translate(352.791 53.338)">
		<path class="st1" d="M0,0h0.63l1.14,2V0h0.56v2.87h-0.6L0.56,0.83v2.04H0V0z"/>
	</g>
	<g transform="translate(358.969 53.254)">
		<path class="st1" d="M2.11,0.59H0.59V1.2h1.4v0.5h-1.4v0.74h1.59v0.52H0V0.08h2.11L2.11,0.59z"/>
		<path class="st1" d="M6.35,2.07c0.01,0.11,0.05,0.21,0.11,0.3c0.14,0.13,0.32,0.2,0.51,0.18c0.12,0,0.24-0.01,0.35-0.05
			c0.15-0.04,0.26-0.18,0.26-0.33c0-0.09-0.05-0.18-0.13-0.22c-0.13-0.06-0.26-0.11-0.4-0.14L6.74,1.74
			C6.52,1.71,6.31,1.63,6.11,1.52C5.91,1.38,5.8,1.14,5.82,0.9C5.81,0.66,5.92,0.42,6.1,0.26C6.34,0.07,6.64-0.02,6.94,0
			C7.22,0,7.49,0.08,7.72,0.24c0.22,0.17,0.35,0.43,0.34,0.7H7.49c0-0.16-0.09-0.3-0.23-0.37C7.14,0.53,7.02,0.5,6.9,0.5
			C6.76,0.5,6.63,0.53,6.52,0.6C6.43,0.65,6.37,0.75,6.37,0.86c0,0.1,0.05,0.19,0.14,0.23C6.64,1.14,6.76,1.18,6.9,1.21l0.5,0.12
			c0.18,0.03,0.35,0.1,0.5,0.21C8.07,1.68,8.17,1.9,8.15,2.12c0,0.25-0.11,0.49-0.3,0.65C7.61,2.96,7.3,3.06,6.99,3.04
			C6.68,3.06,6.36,2.96,6.1,2.78c-0.21-0.17-0.34-0.43-0.32-0.7L6.35,2.07z"/>
		<path class="st1" d="M18.16,0.98C18.12,0.8,18,0.64,17.82,0.57c-0.1-0.04-0.22-0.07-0.33-0.06c-0.22-0.01-0.43,0.09-0.57,0.26
			c-0.16,0.23-0.24,0.51-0.22,0.79c-0.03,0.27,0.06,0.54,0.24,0.75c0.15,0.14,0.35,0.22,0.55,0.22c0.18,0.01,0.36-0.06,0.49-0.17
			c0.13-0.12,0.21-0.28,0.24-0.45h-0.66V1.41h1.2v1.54h-0.4L18.3,2.6c-0.09,0.11-0.19,0.21-0.31,0.29c-0.18,0.1-0.38,0.15-0.58,0.15
			c-0.36,0.01-0.7-0.14-0.93-0.4c-0.27-0.3-0.4-0.69-0.38-1.09c-0.02-0.41,0.12-0.81,0.38-1.12c0.26-0.28,0.63-0.44,1.01-0.42
			c0.32-0.02,0.63,0.08,0.88,0.28c0.21,0.17,0.35,0.42,0.38,0.69L18.16,0.98z"/>
	</g>
	<g transform="translate(381.582 53.338)">
		<path class="st1" d="M1.83,0.07c0.1,0.04,0.2,0.11,0.27,0.2C2.16,0.35,2.2,0.43,2.24,0.51c0.04,0.1,0.05,0.2,0.05,0.3
			c0,0.14-0.03,0.28-0.1,0.4C2.12,1.35,2,1.45,1.85,1.49c0.12,0.04,0.22,0.12,0.28,0.23c0.06,0.14,0.09,0.3,0.08,0.45v0.19
			c0,0.09,0,0.18,0.02,0.27C2.24,2.7,2.28,2.76,2.34,2.79v0.07H1.68C1.66,2.8,1.65,2.75,1.64,2.71C1.63,2.63,1.62,2.55,1.62,2.46
			V2.2c0.01-0.13-0.02-0.26-0.1-0.37C1.42,1.76,1.3,1.73,1.17,1.74H0.59v1.13H0v-2.87h1.37C1.53-0.01,1.68,0.02,1.83,0.07z
			 M0.59,0.5v0.77h0.65c0.1,0.01,0.2-0.01,0.29-0.05C1.64,1.16,1.71,1.03,1.69,0.9c0.02-0.14-0.05-0.28-0.17-0.35
			C1.44,0.51,1.34,0.49,1.25,0.5L0.59,0.5z"/>
		<path class="st1" d="M6.95,0h0.68l1.02,2.87H7.99L7.81,2.28H6.75l-0.2,0.59H5.93L6.95,0z M6.91,1.79h0.74L7.29,0.66L6.91,1.79z"/>
	</g>
	<g transform="translate(393.872 53.338)">
		<path class="st1" d="M0,0h2.05v0.5H0.6v0.66h1.27v0.5H0.6v1.2H0L0,0z"/>
		<path class="st1" d="M6.26,2.87h-0.6V0h0.6V2.87z"/>
	</g>
	<g transform="translate(403.835 53.283)">
		<path class="st1" d="M0.4,0.35c0.54-0.5,1.39-0.47,1.89,0.08C2.3,0.44,2.32,0.46,2.33,0.48c0.12,0.16,0.18,0.34,0.2,0.54h-0.6
			C1.9,0.9,1.85,0.79,1.78,0.7c-0.12-0.13-0.3-0.2-0.48-0.19C1.1,0.51,0.91,0.61,0.8,0.77C0.67,1,0.6,1.26,0.62,1.52
			C0.6,1.78,0.67,2.03,0.82,2.24c0.12,0.16,0.3,0.25,0.5,0.24C1.5,2.5,1.67,2.42,1.79,2.28c0.07-0.1,0.12-0.21,0.15-0.33h0.6
			C2.5,2.24,2.36,2.51,2.14,2.71C1.92,2.91,1.63,3.02,1.33,3C0.96,3.02,0.61,2.88,0.37,2.6C0.12,2.29-0.01,1.9,0.02,1.5
			C-0.01,1.09,0.12,0.67,0.4,0.35z"/>
		<path class="st1" d="M7.09,0.06h0.68l1.02,2.87H8.14L7.95,2.34H6.89l-0.2,0.59H6.07L7.09,0.06z M7.05,1.84h0.74L7.43,0.71
			L7.05,1.84z"/>
	</g>
	<g transform="translate(416.12 53.254)">
		<path class="st1" d="M0.57,2.07c0.01,0.11,0.05,0.21,0.11,0.3c0.14,0.13,0.32,0.2,0.51,0.18c0.12,0,0.24-0.01,0.35-0.05
			C1.7,2.46,1.8,2.32,1.8,2.16c0-0.09-0.05-0.18-0.13-0.22c-0.13-0.06-0.26-0.11-0.4-0.14L0.96,1.74C0.74,1.71,0.53,1.63,0.33,1.52
			C0.14,1.38,0.03,1.14,0.04,0.9c-0.01-0.25,0.1-0.48,0.28-0.64C0.57,0.07,0.86-0.02,1.16,0C1.44,0,1.72,0.08,1.95,0.24
			c0.22,0.17,0.35,0.43,0.34,0.7H1.71c0-0.16-0.09-0.3-0.23-0.37C1.37,0.53,1.24,0.5,1.12,0.5C0.99,0.5,0.86,0.53,0.74,0.6
			C0.65,0.65,0.6,0.75,0.6,0.86c0,0.1,0.05,0.19,0.14,0.23c0.12,0.05,0.25,0.09,0.38,0.12l0.5,0.12c0.18,0.03,0.35,0.1,0.5,0.21
			C2.3,1.68,2.39,1.9,2.38,2.12c0,0.25-0.11,0.49-0.3,0.65C1.83,2.96,1.53,3.06,1.22,3.04C0.9,3.06,0.59,2.96,0.33,2.78
			C0.11,2.61-0.01,2.35,0,2.08L0.57,2.07z"/>
	</g>
</g>
</svg>
