<?xml version="1.0" encoding="utf-8"?>
<!-- Generator: Adobe Illustrator 24.2.3, SVG Export Plug-In . SVG Version: 6.00 Build 0)  -->
<svg version="1.1" id="Capa_1" xmlns="http://www.w3.org/2000/svg" xmlns:xlink="http://www.w3.org/1999/xlink" x="0px" y="0px"
	 viewBox="0 0 60.24 60.24" style="enable-background:new 0 0 60.24 60.24;" xml:space="preserve">
<style type="text/css">
	.st0{fill:#17A9EB;}
	.st1{fill:#FFFFFF;}
</style>
<g transform="translate(-287.522 -143.522)">
	<circle class="st0" cx="317.64" cy="173.64" r="30.12"/>
	<path class="st1" d="M335.82,164.24H302.6v2.97h-1.89v18.17h32.47v-1.34h2.64V164.24z M301.46,169.9h30.96v3.37h-30.96V169.9z
		 M317.24,182.69h-14.76c-0.37-0.05-0.63-0.39-0.58-0.76c0.04-0.3,0.28-0.54,0.58-0.58h14.76c0.37,0.05,0.63,0.39,0.58,0.76
		C317.78,182.41,317.54,182.65,317.24,182.69z M335.06,183.18h-1.89V167.2h-29.83v-2.1h31.71L335.06,183.18z"/>
</g>
</svg>
