<?xml version="1.0" encoding="utf-8"?>
<!-- Generator: Adobe Illustrator 24.2.3, SVG Export Plug-In . SVG Version: 6.00 Build 0)  -->
<svg version="1.1" id="Capa_1" xmlns="http://www.w3.org/2000/svg" xmlns:xlink="http://www.w3.org/1999/xlink" x="0px" y="0px"
	 viewBox="0 0 60 60" style="enable-background:new 0 0 60 60;" xml:space="preserve">
<style type="text/css">
	.st0{fill:#17A9EB;}
	.st1{fill:#FFFFFF;}
	.st2{fill:none;stroke:#FFFFFF;stroke-width:2;stroke-miterlimit:10;}
</style>
<g transform="translate(-1420.747 -4456)">
	<g transform="translate(878 4001.55)">
		<path class="st0" d="M572.75,454.45c-16.57,0-30,13.43-30,30s13.43,30,30,30s30-13.43,30-30l0,0
			C602.75,467.88,589.32,454.45,572.75,454.45z"/>
		<path class="st1" d="M572.71,474.48c0.62,0.98,1.11,1.88,1.71,2.7c1.08,1.49,2.15,2.98,3.32,4.38c2.14,2.34,2.68,5.73,1.37,8.61
			c-1.21,2.85-4.16,4.55-7.24,4.18c-2.75-0.32-5.04-2.28-5.77-4.95c-0.96-2.75-0.3-5.81,1.71-7.92c1.56-1.81,2.84-3.92,4.23-5.9
			C572.27,475.27,572.44,474.92,572.71,474.48z M566.97,487.19c-0.04,1.92,0.37,2.45,1.58,2.13
			C568.33,487.06,568.32,487.05,566.97,487.19z M566.98,486.38c1.26,0.28,1.44,0.03,1.5-1.93
			C567.29,484.27,566.97,484.7,566.98,486.38L566.98,486.38z"/>
		<path class="st2" d="M572.75,469.45c-8.28,0-15,6.72-15,15s6.72,15,15,15s15-6.72,15-15l0,0
			C587.75,476.17,581.03,469.45,572.75,469.45z"/>
	</g>
</g>
</svg>
