<?xml version="1.0" encoding="utf-8"?>
<!-- Generator: Adobe Illustrator 24.2.3, SVG Export Plug-In . SVG Version: 6.00 Build 0)  -->
<svg version="1.1" id="Capa_1" xmlns="http://www.w3.org/2000/svg" xmlns:xlink="http://www.w3.org/1999/xlink" x="0px" y="0px"
	 viewBox="0 0 60 60" style="enable-background:new 0 0 60 60;" xml:space="preserve">
<style type="text/css">
	.st0{fill:#17A9EB;}
	.st1{fill:#FFFFFF;}
	.st2{fill:none;stroke:#FFFFFF;stroke-width:1.7;stroke-miterlimit:10;}
</style>
<g transform="translate(-1007 -4456)">
	<g transform="translate(99.438 4089.247)">
		<circle class="st0" cx="937.56" cy="396.75" r="30"/>
		<g transform="translate(-2.266 -2.266)">
			<path class="st1" d="M932.14,399.02c0,0,7.04,9.4,15.65,0C939.11,389.62,932.14,399.02,932.14,399.02z M939.96,401.62
				c-1.44,0-2.6-1.16-2.6-2.6s1.16-2.6,2.6-2.6c1.44,0,2.6,1.16,2.6,2.6c0,0,0,0,0,0C942.56,400.45,941.4,401.62,939.96,401.62
				L939.96,401.62z"/>
			<path class="st2" d="M928.69,394.33v-7.36h7.78"/>
			<path class="st2" d="M936.04,410.36h-7.39v-8.04"/>
			<path class="st2" d="M951.32,402.32v8.04h-8.04"/>
			<path class="st2" d="M943.29,386.98h8.04v7.4"/>
			<line class="st2" x1="949.66" y1="399.02" x2="957.51" y2="399.02"/>
			<line class="st2" x1="922.1" y1="399.02" x2="930.44" y2="399.02"/>
			<line class="st2" x1="939.83" y1="389.41" x2="939.83" y2="381.32"/>
			<line class="st2" x1="939.83" y1="416.72" x2="939.83" y2="408.63"/>
		</g>
	</g>
</g>
</svg>
