<?xml version="1.0" encoding="utf-8"?>
<!-- Generator: Adobe Illustrator 24.2.3, SVG Export Plug-In . SVG Version: 6.00 Build 0)  -->
<svg version="1.1" id="Capa_1" xmlns="http://www.w3.org/2000/svg" xmlns:xlink="http://www.w3.org/1999/xlink" x="0px" y="0px"
	 viewBox="0 0 61.11 61.11" style="enable-background:new 0 0 61.11 61.11;" xml:space="preserve">
<style type="text/css">
	.st0{fill:#17A9EB;}
	.st1{fill:none;stroke:#FFFFFF;stroke-width:3;stroke-linecap:round;stroke-miterlimit:10;}
	.st2{fill:none;stroke:#FFFFFF;stroke-width:3;stroke-miterlimit:10;}
</style>
<g transform="translate(-542.747 -183.39)">
	<path class="st0" d="M573.3,183.39c-16.88,0-30.55,13.68-30.55,30.55s13.68,30.55,30.55,30.55s30.55-13.68,30.55-30.55l0,0
		C603.85,197.07,590.18,183.39,573.3,183.39z"/>
	<path class="st1" d="M557.82,214.06"/>
	<path class="st1" d="M572.29,199.3"/>
	<g transform="translate(556.149 196.791)">
		<path class="st2" d="M17.15,0C7.68,0,0,7.68,0,17.15c0,9.47,7.68,17.15,17.15,17.15c9.47,0,17.15-7.68,17.15-17.15
			C34.31,7.68,26.63,0,17.15,0C17.15,0,17.15,0,17.15,0z"/>
		<path class="st1" d="M9.74,18.76h7.82c0.24,0,0.43-0.2,0.43-0.44c0,0,0,0,0,0V9.28"/>
	</g>
</g>
</svg>
