<?xml version="1.0" encoding="utf-8"?>
<!-- Generator: Adobe Illustrator 24.2.3, SVG Export Plug-In . SVG Version: 6.00 Build 0)  -->
<svg version="1.1" id="Capa_1" xmlns="http://www.w3.org/2000/svg" xmlns:xlink="http://www.w3.org/1999/xlink" x="0px" y="0px"
	 viewBox="0 0 60.69 60.69" style="enable-background:new 0 0 60.69 60.69;" xml:space="preserve">
<style type="text/css">
	.st0{fill:#17A9EB;}
</style>
<g transform="translate(-576 -144)">
	<path class="st0" d="M615.06,167.53c-0.58-0.06-1.16,0.15-1.55,0.59c-2.56,2.56-5.11,5.12-7.67,7.68
		c-0.42,0.43-0.84,0.86-1.33,1.36c-0.07-0.12-0.15-0.24-0.24-0.35c-1.06-1.07-2.13-2.13-3.2-3.2c-0.69-0.73-1.85-0.77-2.58-0.07
		c-0.73,0.69-0.77,1.85-0.07,2.58c0.03,0.03,0.05,0.06,0.08,0.08c1.54,1.55,3.09,3.09,4.63,4.63c0.66,0.78,1.83,0.89,2.61,0.23
		c0.08-0.07,0.16-0.15,0.23-0.23l6.97-6.97l3.2-3.2c0.53-0.49,0.71-1.24,0.46-1.91C616.39,168.06,615.77,167.57,615.06,167.53z"/>
	<path class="st0" d="M606.34,144c-16.76,0-30.34,13.59-30.34,30.34c0,16.76,13.59,30.34,30.34,30.34
		c16.76,0,30.34-13.59,30.34-30.34S623.1,144,606.34,144L606.34,144z M620.5,191.16c0,0.86-0.69,1.55-1.55,1.55c0,0,0,0,0,0h-25.03
		c-0.86,0-1.55-0.69-1.55-1.55v0v-33.31c0-0.86,0.69-1.55,1.55-1.55l0,0h25.04c0.86,0,1.55,0.69,1.55,1.55c0,0,0,0,0,0L620.5,191.16
		z"/>
	<circle class="st0" cx="594.96" cy="158.75" r="0.73"/>
	<circle class="st0" cx="618.32" cy="158.75" r="0.73"/>
	<circle class="st0" cx="594.66" cy="190.8" r="0.73"/>
	<circle class="st0" cx="618.02" cy="190.8" r="0.73"/>
</g>
</svg>
