<?xml version="1.0" encoding="utf-8"?>
<!-- Generator: Adobe Illustrator 24.2.3, SVG Export Plug-In . SVG Version: 6.00 Build 0)  -->
<svg version="1.1" id="Capa_1" xmlns="http://www.w3.org/2000/svg" xmlns:xlink="http://www.w3.org/1999/xlink" x="0px" y="0px"
	 viewBox="0 0 74.33 74.33" style="enable-background:new 0 0 74.33 74.33;" xml:space="preserve">
<style type="text/css">
	.st0{fill:#17A9EB;}
	.st1{fill:#FFFFFF;}
</style>
<g transform="translate(-183.379 -364.293)">
	<path class="st0" d="M220.54,364.29c-20.53,0-37.17,16.64-37.17,37.17s16.64,37.17,37.16,37.17s37.17-16.64,37.17-37.17l0,0
		C257.71,380.93,241.07,364.29,220.54,364.29z"/>
	<g transform="translate(200.698 381.611)">
		<path class="st1" d="M39.55,19.15l-1.09-2.64c-0.09-0.22-0.14-0.46-0.14-0.7v-2.86c0-0.48-0.19-0.95-0.54-1.29l-2.02-2.02
			c-0.17-0.17-0.31-0.37-0.4-0.59L34.27,6.4c-0.19-0.45-0.54-0.8-0.99-0.99l-2.64-1.09c-0.22-0.09-0.42-0.23-0.59-0.4L28.03,1.9
			c-0.34-0.34-0.81-0.53-1.29-0.54h-2.86c-0.24,0-0.48-0.05-0.7-0.14l-2.64-1.09c-0.45-0.19-0.95-0.19-1.4,0L16.5,1.23
			c-0.22,0.09-0.46,0.14-0.7,0.14h-2.86c-0.48,0-0.95,0.19-1.29,0.54L9.63,3.92c-0.17,0.17-0.37,0.31-0.59,0.4L6.4,5.42
			C5.95,5.6,5.59,5.96,5.41,6.4L4.31,9.05c-0.09,0.22-0.23,0.42-0.4,0.59l-2.01,2.02C1.56,12,1.37,12.47,1.37,12.95v2.86
			c0,0.24-0.05,0.48-0.14,0.7l-1.09,2.64c-0.19,0.45-0.19,0.95,0,1.4l1.09,2.64c0.09,0.22,0.14,0.46,0.14,0.7v2.86
			c0,0.48,0.19,0.95,0.54,1.29l2.02,2.02c0.17,0.17,0.31,0.37,0.4,0.59l1.09,2.64c0.19,0.45,0.54,0.8,0.99,0.99l2.64,1.09
			c0.22,0.09,0.42,0.23,0.59,0.4l2.02,2.02c0.34,0.34,0.81,0.54,1.29,0.54h2.86c0.24,0,0.48,0.05,0.7,0.14l2.64,1.09
			c0.45,0.19,0.95,0.19,1.4,0l2.64-1.09c0.22-0.09,0.46-0.14,0.7-0.14h2.86c0.48,0,0.95-0.19,1.29-0.54l2.02-2.02
			c0.17-0.17,0.37-0.31,0.59-0.4l2.64-1.09c0.45-0.19,0.8-0.54,0.99-0.99l1.09-2.64c0.09-0.22,0.23-0.42,0.4-0.59l2.02-2.02
			c0.34-0.34,0.54-0.81,0.54-1.29v-2.86c0-0.24,0.05-0.48,0.14-0.7l1.09-2.64C39.75,20.1,39.75,19.59,39.55,19.15z M19.85,34.01
			c-7.82,0-14.16-6.34-14.16-14.16c0-7.82,6.34-14.16,14.16-14.16c7.82,0,14.16,6.34,14.16,14.16S27.67,34.01,19.85,34.01
			L19.85,34.01z"/>
		<path class="st1" d="M24.86,15.44l-5.43,5.48l-2.7-2.62c-0.49-0.47-1.27-0.46-1.75,0.03c-0.47,0.49-0.46,1.27,0.03,1.75l3.2,3.1
			c0.7,0.67,1.81,0.66,2.49-0.02l5.91-5.97c0.49-0.47,0.51-1.25,0.04-1.75c-0.47-0.49-1.25-0.51-1.75-0.04
			C24.9,15.4,24.88,15.42,24.86,15.44L24.86,15.44z"/>
	</g>
</g>
</svg>
