<?xml version="1.0" encoding="utf-8"?>
<!-- Generator: Adobe Illustrator 24.2.3, SVG Export Plug-In . SVG Version: 6.00 Build 0)  -->
<svg version="1.1" id="Capa_1" xmlns="http://www.w3.org/2000/svg" xmlns:xlink="http://www.w3.org/1999/xlink" x="0px" y="0px"
	 viewBox="0 0 60.24 60.24" style="enable-background:new 0 0 60.24 60.24;" xml:space="preserve">
<style type="text/css">
	.st0{fill:#0194D6;}
</style>
<g>
	<rect x="24.12" y="39.98" class="st0" width="5.85" height="4.39"/>
	<rect x="17.43" y="24.31" class="st0" width="5.85" height="4.39"/>
	<rect x="24.12" y="34.76" class="st0" width="5.85" height="4.39"/>
	<rect x="24.12" y="24.31" class="st0" width="5.85" height="4.39"/>
	<rect x="24.12" y="29.53" class="st0" width="5.85" height="4.39"/>
	<rect x="17.43" y="34.76" class="st0" width="5.85" height="4.39"/>
	<rect x="30.81" y="39.98" class="st0" width="5.85" height="4.39"/>
	<path class="st0" d="M40,17.63c0.46,0,0.84-0.37,0.84-0.84v-2.51c0-0.46-0.37-0.84-0.84-0.84s-0.84,0.37-0.84,0.84v2.51
		C39.16,17.25,39.54,17.63,40,17.63z"/>
	<path class="st0" d="M19.94,17.63c0.46,0,0.84-0.37,0.84-0.84v-2.51c0-0.46-0.37-0.84-0.84-0.84c-0.46,0-0.84,0.37-0.84,0.84v2.51
		C19.11,17.25,19.48,17.63,19.94,17.63z"/>
	<rect x="17.43" y="39.98" class="st0" width="5.85" height="4.39"/>
	<rect x="17.43" y="29.53" class="st0" width="5.85" height="4.39"/>
	<rect x="37.49" y="29.53" class="st0" width="5.85" height="4.39"/>
	<rect x="37.49" y="24.31" class="st0" width="5.85" height="4.39"/>
	<path class="st0" d="M40,18.46c-0.92,0-1.67-0.75-1.67-1.67H21.61c0,0.92-0.75,1.67-1.67,1.67c-0.92,0-1.67-0.75-1.67-1.67h-0.84
		v5.85h25.91v-5.85h-1.67C41.67,17.71,40.92,18.46,40,18.46z"/>
	<path class="st0" d="M29.97,0.08c-16.61,0-30.08,13.47-30.08,30.08s13.47,30.08,30.08,30.08s30.08-13.47,30.08-30.08
		S46.58,0.08,29.97,0.08z M45.85,45.1c0,0.51-0.41,0.93-0.93,0.93H15.65c-0.51,0-0.93-0.41-0.93-0.93V15.82
		c0-0.51,0.41-0.93,0.93-0.93h1.79h0.84v-0.61c0-0.92,0.75-1.67,1.67-1.67c0.92,0,1.67,0.75,1.67,1.67v0.61h0.84h15.88v-0.61
		c0-0.92,0.75-1.67,1.67-1.67s1.67,0.75,1.67,1.67v0.61h1.67h1.58c0.51,0,0.93,0.41,0.93,0.93V45.1z"/>
	<rect x="37.49" y="39.98" class="st0" width="5.85" height="4.39"/>
	<rect x="30.81" y="24.31" class="st0" width="5.85" height="4.39"/>
	<rect x="30.81" y="29.53" class="st0" width="5.85" height="4.39"/>
	<rect x="30.81" y="34.76" class="st0" width="5.85" height="4.39"/>
	<rect x="37.49" y="34.76" class="st0" width="5.85" height="4.39"/>
</g>
</svg>
