<?xml version="1.0" encoding="utf-8"?>
<!-- Generator: Adobe Illustrator 24.2.3, SVG Export Plug-In . SVG Version: 6.00 Build 0)  -->
<svg version="1.1" id="Capa_1" xmlns="http://www.w3.org/2000/svg" xmlns:xlink="http://www.w3.org/1999/xlink" x="0px" y="0px"
	 viewBox="0 0 143.59 26" style="enable-background:new 0 0 143.59 26;" xml:space="preserve">
<style type="text/css">
	.st0{fill-rule:evenodd;clip-rule:evenodd;fill:#FFFFFF;}
</style>
<g transform="translate(-1274.835 -657.386)">
	<path class="st0" d="M1293.9,678.55v3.05h-19.07v-20.97h3.43v17.92L1293.9,678.55z"/>
	<path class="st0" d="M1291.23,668.25l3.81-7.24h-3.62l-2.86,7.24H1291.23z"/>
	<path class="st0" d="M1322.41,664.07c-1.29-1.99-3.07-3.61-5.17-4.7c-4.4-2.28-9.64-2.28-14.04,0c-2.1,1.09-3.88,2.71-5.17,4.7
		c-2.54,3.93-2.54,8.98,0,12.91c1.29,1.99,3.07,3.61,5.17,4.7c4.4,2.28,9.64,2.28,14.04,0c2.1-1.09,3.88-2.71,5.17-4.7
		C1324.95,673.05,1324.95,668,1322.41,664.07z M1319.44,675.66c-0.95,1.55-2.28,2.82-3.87,3.69c-3.28,1.8-7.25,1.8-10.53,0
		c-1.59-0.87-2.92-2.14-3.87-3.69c-1.89-3.11-1.89-7.01,0-10.11c0.95-1.55,2.28-2.82,3.87-3.69c3.28-1.8,7.25-1.8,10.53,0
		c1.59,0.87,2.92,2.15,3.87,3.69C1321.33,668.65,1321.33,672.56,1319.44,675.66z"/>
	<path class="st0" d="M1348.25,669.67c-0.58,1.16-1.54,2.09-2.71,2.63c-0.68,0.41-1.46,0.62-2.25,0.62l0,0l6.67,8.67h-3.81
		l-6.45-8.39h-8.42v8.39h-3.44v-20.97h13.73c1.41-0.03,2.8,0.31,4.04,0.97c1.32,0.69,2.32,1.86,2.82,3.26
		C1348.93,666.44,1348.87,668.14,1348.25,669.67L1348.25,669.67z M1344.41,669.53c0.74-0.66,1.15-1.62,1.11-2.61
		c-0.05-1-0.5-1.93-1.26-2.59c-0.73-0.51-1.62-0.74-2.5-0.65h-10.49v6.48h10.49C1342.7,670.27,1343.64,670.04,1344.41,669.53
		L1344.41,669.53z"/>
	<path class="st0" d="M1368.08,669.59v2.86h-11.63v6.1h15.64v3.05h-19.07v-20.97h19.07v3.05h-15.64v5.91H1368.08z"/>
	<path class="st0" d="M1368.27,657.39h-5.15l-2.1,2.67L1368.27,657.39L1368.27,657.39z"/>
	<path class="st0" d="M1378.81,676.26l-2.72,5.34h-3.43l10.68-20.97h3.43l10.68,20.97h-3.43l-2.72-5.34H1378.81z M1385.05,664
		l-4.89,9.59h9.77L1385.05,664z"/>
	<path class="st0" d="M1418.23,678.55v3.05h-19.07v-20.97h3.43v17.92L1418.23,678.55z"/>
	<path class="st0" d="M1416.74,664.84l-0.03-0.5l0,0c0-0.1-0.01-0.2-0.04-0.29c-0.04-0.11-0.1-0.21-0.17-0.29
		c-0.05-0.07-0.13-0.11-0.21-0.12c0.15-0.05,0.27-0.15,0.35-0.29c0.1-0.16,0.15-0.35,0.14-0.54c0-0.21-0.06-0.41-0.17-0.58
		c-0.24-0.3-0.63-0.44-1.01-0.39h-1.52v3.5h0.59v-1.44h0.88c0.15-0.02,0.3,0.02,0.42,0.11c0.21,0.25,0.12,0.58,0.16,0.86
		c-0.01,0.16,0.03,0.32,0.09,0.47h0.66v-0.11l0,0C1416.77,665.19,1416.75,665.01,1416.74,664.84L1416.74,664.84z M1416.01,663.29
		c-0.15,0.09-0.33,0.13-0.5,0.11h-0.83v-1.07l0,0c0.36,0,0.73-0.02,1.09,0.01c0.17,0.02,0.32,0.12,0.39,0.28
		C1416.26,662.86,1416.2,663.13,1416.01,663.29L1416.01,663.29z"/>
	<path class="st0" d="M1418.03,662.1c-0.82-1.41-2.63-1.89-4.04-1.07c-1.41,0.82-1.89,2.63-1.07,4.04s2.63,1.89,4.04,1.07
		c0.91-0.53,1.47-1.51,1.47-2.56C1418.42,663.06,1418.28,662.55,1418.03,662.1z M1417.67,664.87c-0.69,1.19-2.22,1.6-3.42,0.91
		c-1.19-0.69-1.6-2.22-0.91-3.42s2.22-1.6,3.42-0.91c0.77,0.45,1.25,1.27,1.25,2.16C1418.01,664.05,1417.89,664.49,1417.67,664.87z"
		/>
</g>
</svg>
