<?xml version="1.0" encoding="utf-8"?>
<!-- Generator: Adobe Illustrator 24.2.3, SVG Export Plug-In . SVG Version: 6.00 Build 0)  -->
<svg version="1.1" id="Capa_1" xmlns="http://www.w3.org/2000/svg" xmlns:xlink="http://www.w3.org/1999/xlink" x="0px" y="0px"
	 viewBox="0 0 157.35 43.7" style="enable-background:new 0 0 157.35 43.7;" xml:space="preserve">
<style type="text/css">
	.st0{fill:#FFFFFF;}
	.st1{fill-rule:evenodd;clip-rule:evenodd;fill:#FFFFFF;}
</style>
<g transform="translate(-18.689 -26.211)">
	<path class="st0" d="M106.9,59.29c1.49-0.45,2.86-1.2,4.05-2.2c-1.04,0.25-2.13,0.16-3.13-0.24c-0.07-0.05-0.13-0.11-0.18-0.19
		c-0.62-1.1,1.77-4.24,1.77-4.24s-3.24-1.65-2.97-4.91c1.03,0.2,2.08-0.28,2.6-1.19c0.86-1.07,1.74-2.5,3.94-3.07
		c0.85-0.22,1.73-0.22,2.58,0.01c0.5-1.45,1.24-2.8,2.21-3.99c0.35-0.44,0.87-0.71,1.43-0.74c1.94,0.45,2.3,5.5,2.3,5.5
		c0.87,0,1.73,0.22,2.49,0.65c0.27,0.16,0.53,0.33,0.78,0.53c2.69,2.08,2.4,5.35,5.17,5.3c-0.09,0.49-0.28,0.96-0.56,1.37
		c4.58,1.37,10.93-1.19,13.69-1.77c-0.33,1.8-5.37,9.91-17.12,8.16c0,0.27-0.09,0.54-0.26,0.75c-0.56,0.56-2.43,0.03-4.34-1.04
		c-0.11,0.21-0.27,0.39-0.45,0.53c-0.33,0.18-0.68,0.32-1.04,0.41c-0.37,0.14-0.56,0.65-0.96,0.72c-0.18,0.01-0.37-0.02-0.53-0.1
		c0,0-0.63,0.2-0.92,0.02c-0.29-0.16-0.61-0.26-0.94-0.29c-0.15,0.02-0.31,0.02-0.46,0c-1.67,0.77-3.48,1.2-5.32,1.26
		C109.33,60.65,107.95,60.2,106.9,59.29z M117.69,49.33c-1.33,2.15-4.14,3.36-4.3,5.33c-0.24,3.16,2.76,3.14,3.72,3.5
		c1.4,0.11,3.83,0.09,3.31-3.1c-0.33-2-2.06-3.46-2.63-5.89l0,0c0-0.04-0.01-0.08-0.01-0.13C117.76,49.13,117.73,49.23,117.69,49.33
		z M122.04,54.94c0.12,0.31,0.2,0.64,0.23,0.98c-0.07,0.34-0.16,0.67-0.27,0.99c-0.02,0.07-0.05,0.15-0.08,0.22
		c1.42,0.81,2.6,1.1,2.84,0.94c0.46-0.33-0.9-3.33-0.9-3.33c-0.6,0.11-1.22,0.15-1.83,0.11C122.03,54.88,122.03,54.9,122.04,54.94
		L122.04,54.94z M125.06,54.46c0.34,0.84,0.6,1.71,0.79,2.59c3.63,0.45,7.32-0.12,10.65-1.63c1.79-0.85,3.36-2.1,4.58-3.66
		c-4.84,1.56-7.85,2.46-11.56,1.37c-0.32-0.09-0.63-0.19-0.94-0.31C127.56,53.64,126.35,54.21,125.06,54.46z M108.81,55.87
		c0.16,0.35,1.38,0.4,2.97-0.03c-0.02-0.09-0.03-0.19-0.04-0.28c-0.02-0.34-0.02-0.68,0-1.03c0.06-0.35,0.35-0.61,0.48-0.89
		c0.01-0.03,0.02-0.05,0.04-0.07c-0.6-0.13-1.19-0.32-1.75-0.58C110.5,52.99,108.57,55.36,108.81,55.87z M118.47,49.9
		c0.33,0.25,0.29,0.71,0.5,0.95c0.25,0.29,0.53,0.34,0.79,0.58c0.28,0.27,0.41,0.81,0.76,1.01s0.21,0.69,0.41,0.97
		c0.13,0.04,0.25,0.09,0.39,0.13c0.83,0.22,5.54,0.45,6.7-2.33c-3.15-0.75-1.71-5.66-6.94-5.79c-1.58-0.04-2.94,2.22-3.13,2.58
		C117.77,48.67,117.97,49.39,118.47,49.9z M113.27,52.47c0.14,0,0.27-0.02,0.41-0.02c0.26-0.22,0.27-0.74,0.64-0.83
		c0.38-0.09,0.66-0.59,0.99-0.78c0.31-0.17,0.6-0.14,0.91-0.36c0.26-0.17,0.35-0.63,0.73-0.79c0.6-0.36,0.98-1.01,0.99-1.71
		c-0.09-0.4-0.83-2.93-2.36-3.3c-2.8-0.67-4.02,0.57-5.09,1.81c-0.88,1.02-1.65,2.04-3.11,2C107.8,51.48,112.41,52.46,113.27,52.47
		L113.27,52.47z M116.47,44.22c0.73,0.59,1.31,1.35,1.68,2.22c0.58-0.74,1.34-1.32,2.2-1.71c0,0-0.2-4.05-1.4-4.33h-0.02
		C117.69,40.4,116.47,44.22,116.47,44.22L116.47,44.22z"/>
	<g transform="translate(58.02 32.956)">
		<path class="st0" d="M6.04,2.86c0,0-3.63-0.47-5.56,5.58c-1.74,5.44,1.8,11.73,1.8,11.73c1.39,2.02,3.09,3.8,5.05,5.28
			c3.2,2.39,2.5,2.89,2.75,6.12c0.05,0.47,0.13,0.94,0.23,1.4c0.13,0.42,0.49,0.72,0.93,0.75c0.68,0.11,1.43-0.17,2.05-0.03
			c0.56,0.17,1.07,0.48,1.48,0.9c0.28,0.33,0.72,0.49,1.15,0.42c0.51-0.1,1.04,0.13,1.32,0.57c0.45,0.51,1.01,1.09,1.71,0.92
			s0.22-1.46,0.06-1.77c-1.14-2.34-2.11-4.75-2.92-7.21c-0.85-3.27-1.25-6.65-1.18-10.03c0,0,0.25-2.39-2.67-6.06
			c0,0,2.53-5.78,16.42-4.8c0,0-0.07-4.94-6.77-6.24S10.05,1.48,7.98,3.19C7.34,3.02,6.69,2.91,6.04,2.86z"/>
		<path class="st0" d="M4.38,4.51c0.81-0.49,1.79-0.57,2.67-0.22c-0.72,1.97-0.18,4.18,1.36,5.6c0.96,1.05,2.35,2.11,2.87,3.76
			c0.59,1.88,0.57,3.23-0.83,4.8c-1.07,1.2-2.64,1.82-4.24,1.67c-2.82-0.03-4.13-2.69-4.53-4.06c-0.41-1.43-0.62-2.92-0.6-4.41
			c-0.01-1.45,0.28-2.88,0.86-4.21C2.43,6.25,3.28,5.22,4.38,4.51z"/>
		<g transform="translate(3.889 5.562)">
			<path class="st0" d="M0,1.01C-0.04,0.5,0.34,0.05,0.85,0c0,0,0,0,0,0C1.36,0,1.78,0.4,1.78,0.91c0,0,0,0.01,0,0.01
				c0.04,0.51-0.34,0.96-0.85,1.01C0.42,1.93,0,1.52,0,1.01C0,1.01,0,1.01,0,1.01z"/>
		</g>
		<g transform="translate(7.884 0.973)">
			<path class="st0" d="M12.59,2.97c0.66-0.23,0.85-0.74,1.33-1.39c0.54-0.71,1.51-0.95,2.32-0.57c2.78,1.02,3.18,3.22,2.86,3.17
				C17.03,3.34,14.82,2.93,12.59,2.97z"/>
			<path class="st0" d="M16.71,4.34C9.63,4.47,6.27,6.19,3.39,9.63C2.77,9.12,2.18,8.57,1.62,8C5.75,4.39,11.38,3.03,16.71,4.34z"/>
			<path class="st0" d="M12.09,1.93c0.91-1.49,1.5-1.39,1.93-1.53C10.93-0.34,4.25-0.43,0.33,3.45c-0.58,1.17-0.42,2.57,0.4,3.58
				C2.38,5.75,4.22,4.72,6.18,4C10.06,2.53,11.06,3.63,12.09,1.93z"/>
		</g>
		<path class="st1" d="M12.53,27.92c1.27-0.28,0.41-2.96,0.1-4.9c-0.38,0.25-0.77,0.49-1.17,0.71c-0.2,0.11-0.41,0.21-0.61,0.31
			c-0.33,0.16-0.68,0.31-1.02,0.44C10.48,26,11.44,28.15,12.53,27.92z"/>
	</g>
	<g transform="translate(167.061 26.216)">
		<path class="st0" d="M8.27,2.29C7.77,0.8,7.15,0.23,6.23,0.04C6.21,0.04,6,0.01,5.99,0.01C5.04-0.07,4.23,0.29,3.33,1.58
			c-1.8,3.03-2.88,6.44-3.17,9.95C-0.14,18.19,0,24.86,0.58,31.51c0.02,0.46,0.16,0.91,0.41,1.3c0.08,0.11,0.19,0.19,0.32,0.22
			c0.01,0.01,0.02,0.01,0.04,0.01h0.04c0.13,0.01,0.27-0.04,0.37-0.12c0.35-0.3,0.61-0.7,0.76-1.13c2.42-6.21,4.42-12.58,6.01-19.05
			C9.23,9.28,9.14,5.71,8.27,2.29z"/>
	</g>
	<path class="st1" d="M49.74,54.42c-1.2-0.53-2.25-1.35-3.07-2.37l-7.42-8.64l7.41-8.6c0.78-0.98,1.8-1.75,2.95-2.24
		c0.7-0.1,1.22-0.7,1.23-1.42c-0.02-0.8-0.65-1.46-1.45-1.52h-10c-0.79,0.07-1.4,0.73-1.42,1.52c0,0.73,0.56,1.35,1.29,1.42
		c0.28,0.1,0.21,0.39-0.26,0.86l-4.17,4.85l-4.17-4.85c-0.47-0.47-0.55-0.77-0.26-0.86c0.73-0.07,1.29-0.68,1.29-1.42
		c-0.03-0.81-0.65-1.47-1.45-1.55h-10c-0.79,0.1-1.39,0.76-1.42,1.55c0,0.71,0.52,1.31,1.22,1.42c1.15,0.5,2.16,1.27,2.95,2.24
		l7.41,8.6l-7.42,8.64c-0.82,1.02-1.88,1.84-3.08,2.37c-0.78,0.12-1.32,0.85-1.21,1.63c0.11,0.7,0.71,1.22,1.42,1.22h10
		c0.79,0,1.43-0.64,1.43-1.44c0-0.74-0.56-1.35-1.29-1.42c-0.29-0.09-0.21-0.39,0.26-0.86l4.3-5l4.3,5
		c0.46,0.47,0.54,0.77,0.26,0.86c-0.73,0.07-1.3,0.68-1.29,1.42c0,0.79,0.64,1.43,1.43,1.44h10c0.79,0,1.44-0.64,1.44-1.43
		C50.96,55.13,50.44,54.53,49.74,54.42L49.74,54.42z"/>
	<path class="st0" d="M122.28,61.59l1.32,1.7h0.07l1.36-1.7h3.99l-3.08,3.91l3.32,4.24h-4.1l-1.48-1.79h-0.07l-1.43,1.79h-4.22
		l3.43-4.24l-3.09-3.91L122.28,61.59z"/>
	<path class="st0" d="M137.07,61.59h3.95v8.15h-3.96L137.07,61.59z"/>
	<path class="st0" d="M163.11,65.64c0-2.36,1.91-4.27,4.27-4.27c2.36,0,4.27,1.91,4.27,4.27c0,2.36-1.91,4.27-4.27,4.27c0,0,0,0,0,0
		C165.03,69.91,163.12,68,163.11,65.64C163.11,65.65,163.11,65.64,163.11,65.64z M167.39,66.81c0.66,0,1.19-0.53,1.19-1.18
		c0-0.66-0.53-1.19-1.18-1.19c-0.66,0-1.19,0.53-1.19,1.18c0,0,0,0.01,0,0.01C166.21,66.28,166.74,66.81,167.39,66.81z"/>
	<path class="st0" d="M83.28,61.52h3.35l1.24,4.33h0.08c0.05-0.37,0.13-0.73,0.23-1.09l1.01-3.24h3.32l1.47,8.25h-3.14l-0.44-4.52
		h-0.06c-0.05,0.28-0.12,0.56-0.22,0.82l-1.29,3.7h-1.9l-1.16-3.49c-0.1-0.34-0.17-0.68-0.2-1.03h-0.11
		c-0.03,0.33-0.05,0.67-0.08,0.99l-0.38,3.53h-3.15L83.28,61.52z"/>
	<path class="st0" d="M102.54,61.55h7.74v1.94h-4.08v1.27h3.74v1.71h-3.74v1.2h4.22v1.97h-7.88V61.55z"/>
	<path class="st0" d="M155.24,66.79c-0.6,0.58-1.55,0.57-2.13-0.03c-0.58-0.6-0.57-1.55,0.03-2.13c0.28-0.27,0.66-0.43,1.05-0.43
		c0.37,0,0.72,0.14,0.99,0.38l2.16-1.71c-0.93-0.96-2.2-1.5-3.54-1.48c-2.35-0.22-4.43,1.5-4.66,3.85c-0.22,2.35,1.5,4.43,3.85,4.66
		c0.27,0.03,0.54,0.03,0.8,0c1.35,0.01,2.64-0.53,3.56-1.51L155.24,66.79z"/>
	<path class="st1" d="M158.38,54.13c-0.84,0.17-1.7,0.25-2.56,0.25c-2.04,0-3.69-0.75-3.68-6.09v-6.41c0-2.92,0.11-6.63,0.11-6.72
		h4.85c0.93,0,2.29-0.4,2.29-1.91c0-1.43-1.18-1.91-2.29-1.91h-4.85c0-0.23-0.11-2.43-0.11-2.43c0-1.53-0.34-2.7-1.35-2.7
		c-0.98,0-1.04,0.74-1.68,2.37c-0.67,1.71-2.77,2.33-5.3,2.28c-0.32-0.05-0.64,0.14-0.74,0.45c-0.08,0.36,0.1,0.73,0.43,0.9
		c0.93,0.71,1.52,1.78,1.63,2.94c0.36,2.13,0.47,4.3,0.35,6.45c0,0.9,0,6.39,0,6.39c0.04,5.53,1.38,10.5,7.63,10.5
		c1.84-0.22,3.63-0.71,5.32-1.47c1.48-0.73,2.12-1.24,2.06-2.01C160.4,53.82,159.57,53.8,158.38,54.13z"/>
	<path class="st1" d="M119.19,38.53c1.94,0.45,2.3,5.5,2.3,5.5c0.87,0,1.73,0.22,2.49,0.65c0.27,0.16,0.53,0.33,0.78,0.53
		c-0.12-0.89-0.17-1.79-0.15-2.69c-0.09-1.61,0.17-3.22,0.75-4.73c1.03-3.07,4.32-4.54,5.2-4.76s4.17-0.15,4.68,2.27
		c0.59,3.88-1.24,4.68-2.41,5.63c-0.82,0.67-3.07,1.29-5.36,1.72c-0.07,0.05-0.14,0.1-0.21,0.15c-1.49,0.94-1.01,3.26,0.23,3.47
		c5.49-0.5,11.3-1.83,12.96-3.94c1.9-2.42,3.83-6.75-1.29-11.29c-3.22-2.56-10.44-2.4-13.98-0.38c-2.38,1.36-4.96,2.7-7.41,8.61
		C118.11,38.83,118.63,38.56,119.19,38.53z"/>
	<path class="st1" d="M116.16,29.63c-2.06-0.3-3.61,0.4-5.38,2.54c-1.01,1.15-1.93,2.38-2.73,3.68c-0.03-1.85-0.56-3.66-1.55-5.23
		c-0.91-0.76-2.21-0.88-3.25-0.29c-1.62,0.73-4.27,1.91-4.27,1.91c-1.4,0.67-1.11,2.95,0.58,3.4c1.39,0.36,2.21,2.58,2.21,4.05
		c0,1.23,0.05,8.5,0.07,10.93c0,0.2-0.02,0.41-0.04,0.61c-0.11,1.47-1.24,2.67-2.71,2.85c-1.14,0-2.72-1.6-2.79-3.31l-0.01-0.08
		c0-0.14,0.14-9.85-0.23-13.43c-0.37-3.62-3.61-5.97-6.05-6.86c-2.92-1.04-10-2.07-13.09-0.97c-0.96,0.3-2.32,2.2,0.66,2
		c2.51-0.2,5.04,0.29,7.3,1.4c1.92,0.89,4.1,4.13,4.17,8.19l0.02,2.85c0.07,4.42,0.13,9.02-4.89,10.05
		c-3.98,0.37-4.79-3.76-4.79-4.72s-0.19-4.04,3.29-4.67c2.36-0.44,3.13,0.7,4.21-0.02c0.64-0.34,0.89-1.14,0.54-1.78
		c-0.14-0.26-0.35-0.46-0.61-0.58c-0.9-0.19-1.8-0.33-2.71-0.42c-4.29,0.1-6.23,0.65-8.35,2.02c-1.65,1.03-2.8,2.71-3.16,4.63
		c-0.12,0.7-0.14,1.41-0.05,2.12c-2.75,2.61-5.45,3.37-9.47,3.4c-1.58-0.06-3.07-0.74-4.15-1.89c-2.04-2.14-3.37-4.85-3.82-7.78
		c-0.16-0.98-0.2-1.98-0.14-2.98c0.87-6.23,6.63-10.58,12.86-9.71c0.01,0,0.03,0,0.04,0.01c2.98,0.21,1.63-1.7,0.66-2
		c-2.77-0.67-5.64-0.79-8.46-0.36c-0.12,0.02-0.23,0.03-0.35,0.06l-0.05,0.01c-0.95,0.21-1.88,0.51-2.78,0.88
		c-0.53,0.17-1.54,0.63-1.54,0.63c-5,2.18-8.21,7.13-8.15,12.58c0,8.33,6.76,15.09,15.09,15.09c0.93,0,1.87-0.09,2.78-0.27
		c0.36-0.06,0.71-0.14,1.06-0.23c0.57-0.15,1.13-0.33,1.67-0.55c0.35-0.13,0.69-0.28,1.02-0.44c0.21-0.1,0.42-0.21,0.61-0.31
		c0.4-0.22,0.79-0.46,1.17-0.71c0.21-0.13,0.42-0.26,0.61-0.42c0.13-0.1,0.26-0.2,0.39-0.3c0.46-0.37,0.9-0.77,1.32-1.18
		c0.19-0.19,0.38-0.38,0.56-0.58c0.11,0.2,0.22,0.4,0.35,0.59c0.55,1,1.28,1.89,2.16,2.62c2.76,1.81,6.11,1.6,8.4,1.23
		c2.74-0.44,4.4-2.82,5.13-3.78c0.3,2.73,1.18,2.95,2.07,2.95l2.03,0.08l8.73,0.03c1.81,0.04,3.62-0.07,5.42-0.34
		c-0.07-0.05-0.13-0.11-0.18-0.19c-0.62-1.1,1.77-4.24,1.77-4.24s-3.23-1.65-2.96-4.91c1.03,0.2,2.08-0.28,2.6-1.19
		c0-0.2-0.01-0.38,0-0.52c0.02-2.62,0.32-5.48,1.38-7.36c1.03-2.14,2.31-2.89,3.42-2.14c1.84,1.26,4.1,0.4,4.64-0.96
		C119.39,33.06,118.77,30,116.16,29.63z"/>
	<path class="st1" d="M128.58,52.81c-1.02,0.83-2.23,1.4-3.52,1.65c0.34,0.84,0.6,1.71,0.79,2.59c3.63,0.45,7.32-0.12,10.65-1.64
		c1.79-0.85,3.36-2.1,4.59-3.65c-4.84,1.56-7.85,2.46-11.56,1.37C129.2,53.04,128.89,52.93,128.58,52.81z"/>
	<path class="st1" d="M112.89,57.95c-0.3-0.29-0.09-0.51-0.24-0.65c-0.06-0.06-0.34,0.04-0.42,0c-0.84,0.99-1.96,1.71-3.22,2.05
		c0,0,1.61,0.9,5.63-0.56c-0.95-0.06-0.43-0.28-0.81-0.5C113.48,58.07,113.12,58.19,112.89,57.95z"/>
	<path class="st1" d="M115.59,44.69c-5.09-1.22-4.97,3.89-8.19,3.8c0.4,2.99,5.01,3.97,5.87,3.98c0.14,0,0.27-0.02,0.41-0.02
		c0.26-0.22,0.26-0.74,0.64-0.83s0.66-0.59,0.99-0.78c0.31-0.17,0.6-0.14,0.91-0.36c0.26-0.17,0.35-0.63,0.73-0.79
		c0.6-0.36,0.98-1.01,0.99-1.71C117.86,47.59,117.12,45.05,115.59,44.69z"/>
	<path class="st1" d="M128.02,51.19c-3.15-0.75-1.71-5.66-6.94-5.79c-1.58-0.04-2.94,2.22-3.13,2.58c-0.17,0.68,0.02,1.41,0.52,1.91
		c0.33,0.25,0.29,0.71,0.5,0.95c0.25,0.29,0.53,0.34,0.79,0.58c0.28,0.27,0.41,0.81,0.76,1.01s0.21,0.69,0.41,0.97
		c0.13,0.04,0.26,0.09,0.39,0.13C122.15,53.74,126.87,53.98,128.02,51.19z"/>
	<path class="st1" d="M111.78,55.84c-0.02-0.09-0.03-0.19-0.04-0.28c-0.02-0.34-0.02-0.68,0-1.03c0.06-0.35,0.35-0.61,0.48-0.89
		c0.01-0.03,0.02-0.05,0.04-0.07c-0.6-0.13-1.19-0.32-1.76-0.58c0,0-1.93,2.37-1.69,2.88C108.97,56.22,110.18,56.26,111.78,55.84z"
		/>
	<path class="st1" d="M122.03,54.85c0,0.03,0.01,0.06,0.01,0.09c0.12,0.31,0.2,0.64,0.23,0.98c-0.07,0.34-0.16,0.67-0.27,0.99
		c-0.02,0.07-0.05,0.15-0.08,0.21c1.43,0.81,2.6,1.1,2.84,0.94c0.46-0.33-0.9-3.33-0.9-3.33C123.25,54.85,122.64,54.88,122.03,54.85
		z"/>
	<path class="st1" d="M117.8,49.17L117.8,49.17c0.09,2.04,1.42,2.94,1.24,5.2c-0.07,0.91-1.09,1.23-2.09,1.12
		c-1-0.15-1.9-0.73-1.74-1.63c0.4-2.16,1.82-2.64,2.48-4.53c-1.33,2.15-4.14,3.36-4.3,5.32c-0.24,3.16,2.76,3.14,3.72,3.5
		c1.4,0.11,3.83,0.09,3.31-3.1C120.1,53.06,118.37,51.6,117.8,49.17z"/>
	<path class="st1" d="M116.95,55.49c1,0.11,2.02-0.22,2.09-1.12c0.18-2.26-1.15-3.16-1.24-5.2c0-0.04-0.01-0.08-0.01-0.13
		c-0.03,0.1-0.06,0.2-0.1,0.29c-0.66,1.89-2.08,2.37-2.48,4.53C115.05,54.76,115.95,55.33,116.95,55.49z"/>
	<path class="st1" d="M118.14,46.44c0.58-0.74,1.34-1.32,2.2-1.71c0,0-0.2-4.05-1.4-4.33c-1.24-0.03-2.47,3.82-2.47,3.82
		C117.2,44.81,117.78,45.57,118.14,46.44z"/>
</g>
</svg>
