<?xml version="1.0" encoding="utf-8"?>
<!-- Generator: Adobe Illustrator 24.2.3, SVG Export Plug-In . SVG Version: 6.00 Build 0)  -->
<svg version="1.1" id="Capa_1" xmlns="http://www.w3.org/2000/svg" xmlns:xlink="http://www.w3.org/1999/xlink" x="0px" y="0px"
	 viewBox="0 0 112.53 96.63" style="enable-background:new 0 0 112.53 96.63;" xml:space="preserve">
<style type="text/css">
	.st0{fill-rule:evenodd;clip-rule:evenodd;fill:#075E94;}
	.st1{fill-rule:evenodd;clip-rule:evenodd;fill:#FF1901;}
	.st2{fill-rule:evenodd;clip-rule:evenodd;fill:#F7F603;}
	.st3{fill-rule:evenodd;clip-rule:evenodd;fill:#84690C;}
	.st4{fill-rule:evenodd;clip-rule:evenodd;fill:#FF0001;}
	.st5{fill-rule:evenodd;clip-rule:evenodd;fill:#F2C711;}
	.st6{fill-rule:evenodd;clip-rule:evenodd;fill:#4777B5;}
	.st7{fill-rule:evenodd;clip-rule:evenodd;fill:#45A828;}
	.st8{fill-rule:evenodd;clip-rule:evenodd;fill:#2B278E;}
	.st9{fill-rule:evenodd;clip-rule:evenodd;fill:#8D1888;}
	.st10{fill-rule:evenodd;clip-rule:evenodd;fill:#247E27;}
	.st11{fill-rule:evenodd;clip-rule:evenodd;fill:#2755A4;}
	.st12{fill-rule:evenodd;clip-rule:evenodd;fill:#191B88;}
	.st13{fill-rule:evenodd;clip-rule:evenodd;fill:#840001;}
	.st14{fill-rule:evenodd;clip-rule:evenodd;}
	.st15{fill-rule:evenodd;clip-rule:evenodd;fill:#FFFFFF;}
</style>
<g transform="translate(-1780.931 -115.829)">
	<path class="st0" d="M1840.58,120.15c-5.6-7.64-14.74-2.18-14.74-2.18l-19.66,14.33c-9.69,6.55-2.73,15.29-2.73,15.29
		c6,6.69,13.24,1.91,13.24,1.91l21.7-15.56C1838.39,133.94,1846.17,127.8,1840.58,120.15L1840.58,120.15z M1835.53,129.98
		c-3,2.18-21.56,15.97-21.56,15.97c-2.26,1.42-5.25,0.75-6.69-1.5c-2.46-3.41-1.77-6.41,0.95-8.19
		c2.73-1.91,18.15-12.69,20.88-14.74c2.15-1.65,5.23-1.24,6.88,0.91c0.08,0.1,0.15,0.21,0.22,0.32
		C1838.12,125.61,1838.26,127.93,1835.53,129.98L1835.53,129.98z"/>
	<path class="st1" d="M1859.28,182.53c0-9.55-10.65-10.65-10.65-10.65l-24.3-0.14c-11.6-0.55-11.33,10.65-11.33,10.65
		c0.96,9.01,9.56,9.55,9.56,9.55l26.75,0.41C1849.31,192.35,1859.14,191.94,1859.28,182.53L1859.28,182.53z M1849.31,187.44h-26.89
		c-2.63-0.23-4.59-2.55-4.37-5.19c0-4.23,2.46-6.28,5.73-6.01c3.28,0.14,21.97,0.55,25.39,0.55c2.75-0.04,5.01,2.16,5.05,4.91
		c0,0.09,0,0.18,0,0.28C1853.95,185.39,1852.73,187.44,1849.31,187.44z"/>
	<path class="st2" d="M1869.52,142.13c-9.01-3-13.24,6.82-13.24,6.82l-7.64,23.07c-4.23,10.92,6.55,14.06,6.55,14.06
		c8.87,1.77,12.01-6.14,12.01-6.14l8.6-25.39C1875.79,154.55,1878.52,145.13,1869.52,142.13L1869.52,142.13z M1871.15,153.05
		c-1.09,3.55-8.33,25.52-8.33,25.52c-0.99,2.48-3.79,3.69-6.28,2.73c-4.09-1.37-5.19-4.23-3.96-7.37c1.09-3,7.37-20.75,8.46-24.02
		c0.78-2.58,3.5-4.03,6.07-3.26c0.12,0.03,0.23,0.07,0.34,0.12C1870.61,148,1872.24,149.77,1871.15,153.05L1871.15,153.05z"/>
	<path class="st3" d="M1871.7,143.08c-0.82,1.64-3,2.18-3.82,3.82c2.87,1.23,4.37,3,3.28,6.14l0,0c1.36-1.09,3.82-2.87,2.73,0.68
		c-1.23,4.64-9.01,26.21-9.01,26.21s-2.86,6.55-10.51,3.41c0,0-5.19-3.14-0.96-3.96c-0.71-0.74-1.14-1.71-1.23-2.73
		c-1.51-0.57-2.97-1.25-4.37-2.05c-1.5,8.87,7.37,11.46,7.37,11.46c8.87,1.77,12.01-6.14,12.01-6.14l8.6-25.39
		C1875.79,154.55,1877.98,146.77,1871.7,143.08z"/>
	<path class="st4" d="M1855.18,186.07c0,0-0.68-0.27-1.78-0.82c-0.8,1.48-2.42,2.34-4.09,2.18h-26.89
		c-2.63-0.23-4.59-2.55-4.37-5.19c0-4.23,2.46-6.28,5.73-6.01c3.28,0.14,21.97,0.55,25.39,0.55c2.01-0.03,3.84,1.15,4.64,3l0,0
		c0.83,0.64,1.75,1.14,2.73,1.5c0.88,0.28,1.81,0.37,2.73,0.27c-0.68-8.6-10.65-9.69-10.65-9.69l-24.3-0.14
		c-11.6-0.55-11.33,10.65-11.33,10.65c0.96,9.01,9.56,9.55,9.56,9.55l26.75,0.41c0,0,6.96-0.27,9.28-6.01
		C1857.45,186.38,1856.31,186.29,1855.18,186.07z"/>
	<path class="st5" d="M1859.69,144.31h-0.14c0.14,0.14,0.14,0.27,0.27,0.41C1859.82,144.58,1859.69,144.45,1859.69,144.31z"/>
	<path class="st6" d="M1840.58,120.15c-5.6-7.64-14.74-2.18-14.74-2.18l-19.66,14.33c-5.46,3.55-5.6,7.91-4.78,11.05
		c1.04-0.8,2.19-1.45,3.41-1.91c0.34-0.01,0.66-0.1,0.95-0.27c-0.24-1.98,0.73-3.92,2.46-4.91c2.73-1.91,18.15-12.69,20.88-14.74
		c2.15-1.65,5.22-1.24,6.87,0.9c0.08,0.11,0.16,0.21,0.23,0.33c1.91,2.86,2.05,5.19-0.68,7.23c-3,2.18-21.56,15.97-21.56,15.97
		c-1.54,0.95-3.46,1-5.05,0.14c-0.96-0.1-1.94-0.01-2.87,0.27c-0.91,0.25-1.72,0.77-2.32,1.5c6.01,6.14,12.97,1.64,12.97,1.64
		l21.7-15.56C1838.39,133.94,1846.17,127.8,1840.58,120.15z"/>
	<path class="st7" d="M1837.3,124.93c-0.19-0.8-0.57-1.55-1.09-2.18c-0.57-0.85-1.38-1.51-2.32-1.91c-4.23,7.64,2.18,13.1,2.18,13.1
		l20.06,15.29l0.14-0.27c0.64-1.38,1.47-2.67,2.46-3.82c-5.32-3.96-20.06-14.88-20.06-14.88
		C1837.16,128.92,1836.62,126.81,1837.3,124.93z"/>
	<path class="st7" d="M1868.97,133.39l-19.52-14.47c-4.91-4.09-9.01-3.14-11.74-1.5c1.12,0.72,2.09,1.65,2.87,2.73
		c0.14,0.27,0.41,0.55,0.55,0.82c1.8-0.66,3.81-0.24,5.19,1.09c2.59,2.05,17.33,13.51,20.2,15.7c2.17,1.61,2.63,4.67,1.02,6.84
		c-0.07,0.09-0.13,0.17-0.2,0.26c-1.36,1.64-2.73,2.59-4.23,2.59c-0.55,0-0.55,0.27-0.55,0.27c-0.72,0.55-1.25,1.31-1.5,2.18
		c-0.14,0.41-0.27,0.96-0.55,1.77c2.87,0.82,7.23,1.09,10.65-3.55C1876.88,140.63,1868.97,133.39,1868.97,133.39z"/>
	<path class="st8" d="M1804.82,141.45c-9.01,3-6.55,13.38-6.55,13.38l7.64,23.07c1.5,5.73,4.91,7.51,7.92,7.92
		c-0.45-1.09-0.72-2.24-0.82-3.41c0.01-0.55,0.06-1.1,0.14-1.64c-1.49-0.62-2.57-1.96-2.87-3.55c-0.95-3.14-6.41-21.16-7.64-24.43
		c-0.87-2.63,0.55-5.47,3.18-6.34c0.08-0.03,0.15-0.05,0.23-0.07c3.28-0.82,5.6-0.27,6.69,3c0.06,0.33,0.15,0.65,0.27,0.96
		c1.17-1.29,2.45-2.48,3.82-3.55C1815.6,144.45,1811.92,139.13,1804.82,141.45z"/>
	<path class="st9" d="M1825.56,173.25l-8.19-25.52c-0.2-0.31-0.38-0.63-0.55-0.96c-1.37,1.07-2.65,2.26-3.82,3.55
		c1.78,5.46,8.19,24.43,8.19,24.43c0.61,2.4-0.68,4.87-3,5.73c-0.12,0.58-0.16,1.18-0.14,1.77c-0.04,1.17,0.3,2.31,0.96,3.27
		l0.55-0.27C1827.75,181.57,1825.56,173.25,1825.56,173.25z"/>
	<path class="st8" d="M1825.56,173.25l-8.19-25.52c-0.2-0.31-0.38-0.63-0.55-0.96c-1.37,1.07-2.65,2.26-3.82,3.55
		c1.78,5.46,8.19,24.43,8.19,24.43c0.61,2.4-0.68,4.87-3,5.73c-0.12,0.58-0.16,1.18-0.14,1.77c-0.04,1.17,0.3,2.31,0.96,3.27
		l0.55-0.27C1827.75,181.57,1825.56,173.25,1825.56,173.25z"/>
	<path class="st3" d="M1867.74,144.17c0,0-6.55-3-10.1,8.19c-3,9.55-6.14,17.88-6.96,20.06c0.75,0.17,1.48,0.39,2.18,0.68
		c1.5-3.96,5.87-16.38,7.64-21.43c0.14-0.55,0.27-1.09,0.41-1.5c0.07-0.07,0.12-0.17,0.14-0.27c0-0.27,0.14-0.41,0.27-0.68l0,0
		c0.25-0.65,0.67-1.22,1.23-1.64l0.14-0.14c0.87-0.64,1.92-0.98,3-0.96c0.58-0.51,1.13-1.06,1.64-1.64
		c0.22-0.19,0.41-0.42,0.55-0.68L1867.74,144.17z"/>
	<path class="st6" d="M1813.96,145.95c-1.54,0.95-3.46,1-5.05,0.14c-0.96-0.1-1.94-0.01-2.87,0.27c-0.91,0.25-1.72,0.77-2.32,1.5
		c6.01,6.14,12.97,1.64,12.97,1.64l18.7-13.38c-0.64-1.5-1.37-2.95-2.18-4.37C1827.34,135.99,1813.96,145.95,1813.96,145.95z"/>
	<path class="st10" d="M1858.73,145.27c-3.69-2.87-13.79-10.37-18.02-13.51c-0.45-0.21-0.86-0.48-1.23-0.82
		c-0.14,0-0.14-0.14-0.27-0.14c-0.14-0.14-0.41-0.27-0.55-0.54l0,0c-0.55-0.42-0.98-0.99-1.23-1.64v-0.27
		c-0.39-1-0.44-2.11-0.14-3.14c0-0.07,0.06-0.14,0.13-0.14c0,0,0,0,0,0c-0.33-0.81-0.74-1.59-1.23-2.32
		c-0.01-0.1-0.06-0.2-0.14-0.27c-0.14,0-0.27,0-0.27,0.14l0,0c0,0-4.78,5.46,4.78,12.15c7.78,5.46,14.6,10.65,16.79,12.28
		C1857.73,146.39,1858.19,145.79,1858.73,145.27z"/>
	<path class="st10" d="M1869.79,134.08l-21.43-16.11c0,0-5.73-3.82-10.92-0.68c1.24,0.72,2.3,1.7,3.14,2.87
		c0.26,0.27,0.45,0.6,0.55,0.96c1.35-0.73,2.99-0.62,4.23,0.27l-0.14-0.41c-0.68-1.64-1.23-3.55,1.78-1.5
		c3.96,2.73,21.97,16.79,21.97,16.79s5.46,4.78,0,11.05c0,0-4.64,3.96-4.09-0.27c-0.65,0.27-1.34,0.41-2.05,0.41h-0.14l-0.14,0.14
		c-0.55,0.42-0.98,0.99-1.23,1.64l0,0c-0.14,0.27-0.27,0.41-0.27,0.68c-0.01,0.1-0.06,0.2-0.14,0.27c-0.14,0.41-0.27,0.82-0.41,1.37
		c7.51,2.59,11.33-4.23,11.33-4.23C1876.34,139.53,1869.79,134.08,1869.79,134.08z"/>
	<path class="st11" d="M1839.9,119.33c-6.14-6.55-13.24-1.91-13.24-1.91l-21.7,15.7c-3.24,2.31-4.67,6.42-3.55,10.24
		c1.05-0.77,2.2-1.42,3.41-1.91c0.34-0.01,0.67-0.1,0.96-0.27c-0.12-1.59,0.48-3.14,1.64-4.23l-0.55,0.14
		c-1.77,0.14-3.69,0.14-0.95-2.18c3.82-3,22.52-16.1,22.52-16.1s6.14-3.82,10.65,3.28c0,0,2.32,5.46-1.5,3.82
		c0.04,0.69-0.05,1.39-0.27,2.05l0,0c-0.02,0.15,0.03,0.3,0.14,0.41v0.27c0.25,0.65,0.67,1.22,1.23,1.64l0,0
		c0.14,0.27,0.41,0.41,0.55,0.54c0.14,0,0.14,0.14,0.27,0.14c0.35,0.18,0.67,0.41,0.95,0.68
		C1845.49,124.93,1839.9,119.33,1839.9,119.33z"/>
	<path class="st12" d="M1813.15,180.75c-1.25-0.36-2.24-1.34-2.59-2.59v0.68c-0.41,1.64-1.09,3.55-2.32,0.14
		c-1.64-4.5-8.32-26.48-8.32-26.48s-1.64-7.1,6.42-9.01c0,0,6.01-0.54,3.14,2.59c0.6,0.08,1.16,0.32,1.64,0.68
		c0.13,0.07,0.27,0.11,0.41,0.14c0.14,0.14,0.14,0,0.14,0c0.67-0.03,1.32-0.22,1.91-0.55h0.14c0.14-0.14,0.41-0.27,0.55-0.41
		l0.27-0.27c0.4-0.22,0.77-0.49,1.09-0.82c-4.64-6.41-11.6-3-11.6-3c-8.19,3.69-6.01,12.01-6.01,12.01l8.19,25.52
		c0,0,2.32,5.87,7.78,6.69c-0.51-1.17-0.83-2.41-0.95-3.68C1813.02,181.84,1813.07,181.3,1813.15,180.75z"/>
	<path class="st12" d="M1822.29,170.11c-3.41-9.01-6.01-17.06-6.96-19.65c0-0.07-0.06-0.14-0.13-0.14c0,0,0,0-0.01,0
		c-0.55,0.14-1.23,0.41-2.05,0.54c0,0.14,0,0.27,0.14,0.27c1.36,4.37,5.46,16.38,7.23,21.29c0.1,0.47,0.24,0.92,0.41,1.37
		c0.11,0.11,0.16,0.26,0.14,0.41c0.11,0.16,0.16,0.35,0.14,0.55l0.14,0.14c0.14,0.68,0.14,1.37,0,2.05c0,0.07-0.06,0.14-0.13,0.14
		c0,0,0,0-0.01,0c-0.24,1.06-0.81,2.02-1.64,2.73h-0.27c-0.17,0.85-0.26,1.72-0.27,2.59v0.41h0.27
		C1819.29,182.8,1826.38,181.03,1822.29,170.11z"/>
	<path class="st11" d="M1833.89,131.34c-3.82,2.73-13.79,9.96-18.02,13.24c-0.39,0.24-0.75,0.51-1.09,0.82
		c-0.14,0.14-0.27,0.14-0.27,0.27c-0.27,0.14-0.41,0.27-0.55,0.27c-0.07,0-0.13,0.06-0.14,0.13c0,0,0,0,0,0.01
		c-0.59,0.32-1.24,0.51-1.91,0.55c-0.07,0.08-0.19,0.08-0.27,0c0,0,0,0,0,0c-0.9,0.1-1.81-0.09-2.59-0.55
		c-1.01-0.11-2.03-0.01-3,0.27c-0.11,0.11-0.26,0.16-0.41,0.14l0,0c0,0,3.82,6.28,12.97-0.96c7.51-5.87,14.33-10.78,16.65-12.42
		C1834.74,132.58,1834.28,131.99,1833.89,131.34z"/>
	<path class="st13" d="M1855.18,186.08c0,0-0.68-0.27-1.78-0.82c-0.83,1.46-2.42,2.31-4.09,2.18l0,0c1.5,0.82,3.82,2.59,0.27,2.73
		c-4.78,0.27-27.71-0.41-27.71-0.41s-7.23-0.68-6.55-9.01c0,0,1.36-5.87,3.55-2.18c0.56-0.95,1.42-1.67,2.46-2.05
		c0.07-0.54,0.07-1.09,0-1.64l-0.14-0.14c0.02-0.19-0.03-0.39-0.14-0.55c0.02-0.15-0.03-0.3-0.14-0.41
		c-0.17-0.44-0.31-0.9-0.41-1.37c-0.14-0.14-0.14-0.14-0.14-0.27c-7.64,1.91-7.37,10.37-7.37,10.37c0.96,8.87,9.56,9.42,9.56,9.42
		l26.75,0.27c0,0,6.82,0,9.28-6C1857.46,186.37,1856.3,186.32,1855.18,186.08z"/>
	<path class="st13" d="M1849.86,176.79h0.14c0.66,0.14,1.31,0.37,1.91,0.68c0.07,0,0.14,0.06,0.14,0.13c0,0,0,0,0,0.01
		c0.77,0.56,1.38,1.31,1.77,2.18c0.83,0.64,1.75,1.14,2.73,1.5h0.27c0-0.96-0.14-7.1-10.92-6.96c-9.01,0-17.06-0.27-20.2-0.41
		c0.07,0.77,0.07,1.55,0,2.32c5.19,0.14,16.65,0.41,21.7,0.55L1849.86,176.79L1849.86,176.79z"/>
	<path class="st14" d="M1780.94,206.45h1.78v0.12c-0.04,0.54,0.04,1.09,0.23,1.6c0.28,0.45,0.87,0.59,1.32,0.31
		c0.11-0.07,0.2-0.16,0.28-0.26c0.19-0.45,0.27-0.95,0.23-1.44c0.05-0.47-0.04-0.95-0.28-1.37c-0.3-0.26-0.7-0.38-1.09-0.33
		c-0.12,0-0.22,0-0.3,0s-0.16,0.01-0.23,0.01v-1.33h0.13c0.44,0.05,0.88-0.06,1.25-0.31c0.27-0.32,0.39-0.73,0.34-1.14
		c0.03-0.36-0.04-0.73-0.2-1.06c-0.17-0.21-0.43-0.33-0.7-0.3c-0.27-0.02-0.54,0.1-0.69,0.33c-0.16,0.34-0.24,0.71-0.21,1.09v0.24
		h-1.77c0-0.04-0.01-0.09-0.01-0.14s0-0.13,0-0.24c-0.06-0.73,0.2-1.45,0.69-1.99c0.58-0.48,1.32-0.72,2.07-0.66
		c1.32-0.15,2.5,0.8,2.65,2.12c0.02,0.17,0.02,0.34,0,0.52c0.02,0.49-0.08,0.97-0.3,1.4c-0.19,0.35-0.5,0.62-0.88,0.74
		c0.45,0.1,0.83,0.38,1.07,0.77c0.26,0.51,0.38,1.07,0.35,1.64c0.07,0.89-0.19,1.77-0.73,2.48c-0.59,0.58-1.4,0.88-2.23,0.82
		c-0.78,0.07-1.55-0.22-2.1-0.79c-0.51-0.71-0.75-1.57-0.68-2.43c0-0.05,0-0.11,0.01-0.2S1780.95,206.49,1780.94,206.45
		L1780.94,206.45z M1788.06,209.89v-10.23h2.87l1.4,6.62l1.4-6.62h2.87v10.23h-1.82l0.04-9.07l-1.9,9.07h-1.17l-1.91-9.07l0.05,9.07
		L1788.06,209.89z M1809.46,209.89v-10.23h2.87l1.4,6.62l1.4-6.62h2.88v10.23h-1.82l0.04-9.07l-1.9,9.07h-1.17l-1.91-9.07l0.05,9.07
		L1809.46,209.89z M1823.8,206.25h1.85c0,0.04,0,0.11,0.01,0.2s0.01,0.15,0.01,0.2c0.07,0.94-0.19,1.87-0.75,2.63
		c-0.6,0.61-1.43,0.93-2.29,0.86c-0.43,0.01-0.85-0.06-1.26-0.19c-0.34-0.12-0.65-0.32-0.9-0.59c-0.37-0.41-0.63-0.91-0.73-1.46
		c-0.18-1.07-0.25-2.16-0.21-3.24c-0.01-0.84,0.03-1.68,0.13-2.51c0.04-0.48,0.18-0.96,0.39-1.39c0.24-0.43,0.59-0.79,1.02-1.02
		c0.49-0.23,1.02-0.34,1.56-0.32c0.84-0.08,1.66,0.22,2.26,0.81c0.54,0.76,0.79,1.68,0.71,2.6h-1.85v-0.24
		c0.03-0.43-0.06-0.86-0.27-1.24c-0.18-0.27-0.49-0.43-0.82-0.41c-0.4-0.03-0.78,0.19-0.93,0.56c-0.23,1.02-0.32,2.07-0.25,3.12
		c-0.07,1.13,0.02,2.25,0.24,3.36c0.14,0.39,0.52,0.63,0.93,0.6c0.36,0.03,0.71-0.15,0.89-0.47c0.21-0.55,0.29-1.14,0.25-1.73
		L1823.8,206.25L1823.8,206.25z M1827.24,206.3h1.91v0.66c-0.04,0.44,0.04,0.89,0.24,1.29c0.19,0.25,0.5,0.38,0.81,0.34
		c0.34,0.02,0.67-0.09,0.92-0.31c0.22-0.24,0.34-0.57,0.31-0.9c0.01-0.28-0.07-0.55-0.22-0.79c-0.27-0.33-0.59-0.62-0.95-0.85
		l-0.97-0.69c-0.62-0.38-1.17-0.87-1.61-1.45c-0.24-0.44-0.36-0.93-0.34-1.43c-0.04-0.75,0.24-1.48,0.76-2.02
		c1.26-0.99,3.05-0.97,4.29,0.05c0.54,0.61,0.81,1.42,0.76,2.23c0,0.1,0,0.17,0,0.23s-0.01,0.1-0.01,0.14h-1.81v-0.27
		c0.03-0.42-0.06-0.83-0.27-1.19c-0.22-0.26-0.56-0.39-0.9-0.36c-0.27-0.01-0.53,0.08-0.72,0.27c-0.18,0.2-0.28,0.47-0.26,0.75
		c0,0.43,0.39,0.91,1.17,1.43c0.01,0,0.01,0.01,0.02,0.01l1.05,0.71c0.6,0.35,1.12,0.83,1.52,1.4c0.28,0.51,0.42,1.1,0.4,1.68
		c0.05,0.8-0.24,1.58-0.8,2.15c-0.63,0.54-1.45,0.81-2.28,0.76c-0.84,0.07-1.67-0.22-2.29-0.8c-0.55-0.68-0.82-1.55-0.75-2.43
		c0-0.11,0.01-0.3,0.03-0.57L1827.24,206.3L1827.24,206.3z M1846.35,209.89l-1.99-10.23h1.97l1.25,7.75l1.33-7.75h1.58l1.47,7.9
		l1.09-7.9h1.96l-1.86,10.23h-2.25l-1.18-6.46l-1.09,6.46H1846.35z M1859.05,205.87c-0.5,0.22-0.96,0.52-1.36,0.9
		c-0.23,0.26-0.36,0.59-0.36,0.94c-0.02,0.27,0.05,0.53,0.19,0.75c0.15,0.17,0.37,0.26,0.59,0.24c0.29,0.01,0.57-0.15,0.7-0.41
		c0.18-0.38,0.26-0.8,0.23-1.21L1859.05,205.87L1859.05,205.87z M1859.3,209.89c-0.05-0.08-0.08-0.17-0.1-0.26
		c-0.03-0.12-0.06-0.28-0.09-0.49c-0.17,0.29-0.42,0.54-0.72,0.7c-0.32,0.17-0.67,0.25-1.03,0.24c-0.52,0.03-1.03-0.19-1.36-0.59
		c-0.35-0.47-0.52-1.05-0.49-1.64c-0.03-0.54,0.12-1.07,0.43-1.51c0.47-0.5,1.05-0.89,1.69-1.13c0.08-0.04,0.2-0.09,0.36-0.16
		c0.7-0.3,1.04-0.65,1.04-1.04c0.01-0.21-0.06-0.41-0.2-0.56c-0.16-0.14-0.37-0.21-0.58-0.2c-0.26-0.02-0.52,0.07-0.71,0.26
		c-0.17,0.23-0.25,0.52-0.23,0.81v0.15h-1.73c-0.06-0.69,0.17-1.37,0.64-1.88c0.58-0.45,1.31-0.66,2.03-0.59
		c0.7-0.07,1.4,0.12,1.96,0.54c0.43,0.53,0.64,1.21,0.56,1.89v4.34c0,0.2,0.02,0.39,0.06,0.58c0.04,0.18,0.11,0.36,0.2,0.52
		L1859.3,209.89z M1862.27,209.89v-7.68h1.7v1.25c0.17-0.42,0.44-0.8,0.78-1.11c0.29-0.23,0.65-0.35,1.01-0.34v2.16
		c-0.07-0.01-0.13-0.02-0.2-0.02s-0.15-0.01-0.24-0.01c-0.34-0.02-0.66,0.11-0.91,0.34c-0.23,0.25-0.35,0.57-0.33,0.91v4.5
		L1862.27,209.89z M1866.87,209.89v-7.68h1.7v1.25c0.17-0.42,0.44-0.8,0.78-1.11c0.29-0.23,0.65-0.35,1.01-0.34v2.16
		c-0.07-0.01-0.13-0.02-0.2-0.02s-0.15-0.01-0.24-0.01c-0.64-0.05-1.19,0.43-1.24,1.07c0,0.06,0,0.12,0,0.18v4.5L1866.87,209.89z
		 M1874.83,205.87c-0.5,0.22-0.96,0.52-1.36,0.9c-0.23,0.26-0.36,0.59-0.36,0.94c-0.02,0.27,0.05,0.53,0.19,0.75
		c0.15,0.17,0.37,0.26,0.59,0.24c0.29,0.01,0.57-0.15,0.7-0.41c0.18-0.38,0.26-0.8,0.23-1.21L1874.83,205.87L1874.83,205.87z
		 M1875.08,209.89c-0.05-0.08-0.08-0.17-0.1-0.26c-0.03-0.12-0.06-0.28-0.09-0.49c-0.17,0.29-0.42,0.54-0.72,0.7
		c-0.32,0.17-0.67,0.25-1.03,0.24c-0.52,0.03-1.03-0.19-1.36-0.59c-0.35-0.47-0.52-1.05-0.49-1.64c-0.03-0.54,0.12-1.07,0.43-1.51
		c0.47-0.5,1.05-0.89,1.69-1.13c0.08-0.04,0.2-0.09,0.36-0.16c0.7-0.3,1.04-0.65,1.04-1.04c0.01-0.21-0.06-0.41-0.2-0.56
		c-0.16-0.14-0.37-0.21-0.58-0.2c-0.26-0.02-0.52,0.07-0.71,0.26c-0.17,0.23-0.25,0.52-0.23,0.81v0.15h-1.73
		c-0.06-0.69,0.17-1.37,0.63-1.88c0.58-0.45,1.31-0.66,2.03-0.59c0.7-0.07,1.4,0.12,1.96,0.54c0.43,0.53,0.64,1.21,0.56,1.89v4.34
		c0,0.2,0.02,0.39,0.06,0.58c0.04,0.18,0.11,0.36,0.2,0.52L1875.08,209.89z M1878.04,209.89v-7.68h1.74v0.78
		c0.16-0.3,0.4-0.55,0.68-0.74c0.28-0.17,0.6-0.25,0.92-0.25c0.48-0.03,0.94,0.14,1.28,0.48c0.32,0.38,0.48,0.88,0.44,1.38v6.03
		h-1.71v-5.15c0.03-0.33-0.03-0.66-0.17-0.95c-0.13-0.19-0.35-0.29-0.58-0.27c-0.26-0.02-0.51,0.11-0.64,0.34
		c-0.15,0.36-0.22,0.76-0.19,1.15v4.89L1878.04,209.89z M1886.51,207.05v0.52c-0.03,0.27,0.01,0.54,0.11,0.78
		c0.11,0.12,0.27,0.19,0.43,0.17c0.05,0,0.09,0,0.12,0s0.06,0,0.08,0v1.38c-0.26,0.03-0.46,0.04-0.6,0.05s-0.26,0.01-0.35,0.01
		c-0.44,0.05-0.88-0.08-1.23-0.35c-0.28-0.43-0.4-0.95-0.33-1.46v-4.61h-0.69v-1.32h0.69v-2.09h1.78v2.09h0.73v1.32h-0.73
		L1886.51,207.05L1886.51,207.05z M1888.73,212.41v-1.33c0.04,0,0.07,0,0.11,0s0.1,0,0.17,0c0.19,0.01,0.38-0.03,0.55-0.12
		c0.12-0.1,0.19-0.25,0.17-0.4c0-0.07-0.01-0.14-0.02-0.21c-0.01-0.08-0.03-0.16-0.05-0.23l-1.97-7.92h1.88l1.06,5.54l1.03-5.54h1.8
		l-2,8.41c-0.09,0.55-0.33,1.06-0.71,1.47c-0.41,0.28-0.91,0.42-1.41,0.37c-0.1,0-0.2,0-0.3-0.01S1888.83,212.41,1888.73,212.41
		L1888.73,212.41z M1798.98,203.01v-2.6h-0.94v-0.57h2.53v0.56h-0.93v2.6L1798.98,203.01z M1800.95,203.01v-3.17h0.97l0.63,2.41
		l0.62-2.41h0.97v3.17h-0.61v-2.56l-0.64,2.56h-0.67l-0.65-2.56v2.56L1800.95,203.01z M1835.2,203.01v-2.6h-0.94v-0.57h2.53v0.56
		h-0.94v2.6L1835.2,203.01z M1837.16,203.01v-3.17h0.97l0.63,2.41l0.62-2.41h0.97v3.17h-0.61v-2.56l-0.64,2.56h-0.67l-0.65-2.56
		v2.56L1837.16,203.01z"/>
	<path class="st15" d="M1870.62,128.05v-2.85h0.87l0.57,2.17l0.56-2.17h0.87v2.85h-0.55v-2.3l-0.58,2.3h-0.6l-0.59-2.3v2.3H1870.62z
		 M1868.85,128.05v-2.34h-0.84v-0.51h2.27v0.51h-0.84v2.34H1868.85z"/>
</g>
</svg>
