<?xml version="1.0" encoding="utf-8"?>
<!-- Generator: Adobe Illustrator 24.2.3, SVG Export Plug-In . SVG Version: 6.00 Build 0)  -->
<svg version="1.1" id="Capa_1" xmlns="http://www.w3.org/2000/svg" xmlns:xlink="http://www.w3.org/1999/xlink" x="0px" y="0px"
	 viewBox="0 0 56.59 56.59" style="enable-background:new 0 0 56.59 56.59;" xml:space="preserve">
<style type="text/css">
	.st0{fill:#17A9EB;}
	.st1{fill:#FFFFFF;}
</style>
<g transform="translate(-4483.379 -3770.293)">
	<path class="st0" d="M4511.67,3770.29c-15.63,0-28.29,12.67-28.29,28.29c0,15.63,12.67,28.29,28.29,28.29
		c15.63,0,28.29-12.67,28.29-28.29C4539.97,3782.96,4527.3,3770.29,4511.67,3770.29
		C4511.67,3770.29,4511.67,3770.29,4511.67,3770.29z"/>
	<g transform="translate(4496.564 3783.478)">
		<path class="st1" d="M30.11,14.58l-0.83-2.01c-0.07-0.17-0.11-0.35-0.11-0.53V9.86c0-0.37-0.15-0.72-0.41-0.98l-1.54-1.54
			C27.1,7.21,27,7.06,26.93,6.89L26.1,4.88c-0.14-0.34-0.41-0.61-0.75-0.75l-2.01-0.83c-0.17-0.07-0.32-0.17-0.45-0.3l-1.54-1.54
			c-0.26-0.26-0.62-0.41-0.98-0.41h-2.18c-0.18,0-0.36-0.04-0.53-0.11l-2.01-0.83c-0.34-0.14-0.72-0.14-1.06,0l-2.01,0.83
			c-0.17,0.07-0.35,0.11-0.53,0.11H9.86c-0.37,0-0.72,0.15-0.98,0.41L7.34,2.99c-0.13,0.13-0.28,0.23-0.45,0.3L4.88,4.13
			C4.54,4.27,4.26,4.54,4.12,4.88L3.29,6.89c-0.07,0.17-0.17,0.32-0.3,0.45L1.45,8.88C1.19,9.14,1.05,9.49,1.05,9.86v2.18
			c0,0.18-0.04,0.36-0.11,0.53l-0.83,2.01c-0.14,0.34-0.14,0.72,0,1.06l0.83,2.01c0.07,0.17,0.11,0.35,0.11,0.53v2.18
			c0,0.37,0.15,0.72,0.41,0.98l1.54,1.54c0.13,0.13,0.23,0.28,0.3,0.45l0.83,2.01c0.14,0.34,0.41,0.61,0.75,0.75l2.01,0.83
			c0.17,0.07,0.32,0.17,0.45,0.3l1.54,1.54c0.26,0.26,0.61,0.41,0.98,0.41h2.18c0.18,0,0.36,0.04,0.53,0.11l2.01,0.83
			c0.34,0.14,0.72,0.14,1.06,0l2.01-0.83c0.17-0.07,0.35-0.11,0.53-0.11h2.18c0.37,0,0.72-0.15,0.98-0.41l1.54-1.54
			c0.13-0.13,0.28-0.23,0.45-0.3l2.01-0.83c0.34-0.14,0.61-0.41,0.75-0.75l0.83-2.01c0.07-0.17,0.17-0.32,0.3-0.45l1.54-1.54
			c0.26-0.26,0.41-0.61,0.41-0.98v-2.18c0-0.18,0.04-0.36,0.11-0.53l0.83-2.01C30.25,15.3,30.25,14.92,30.11,14.58z M15.11,25.89
			c-5.95,0-10.78-4.83-10.78-10.78S9.16,4.33,15.11,4.33c5.95,0,10.78,4.83,10.78,10.78C25.89,21.06,21.07,25.89,15.11,25.89
			C15.11,25.89,15.11,25.89,15.11,25.89L15.11,25.89z"/>
		<path class="st1" d="M18.93,11.75l-4.13,4.17l-2.05-2c-0.38-0.35-0.98-0.32-1.33,0.06c-0.33,0.37-0.32,0.93,0.02,1.28l2.43,2.36
			c0.53,0.52,1.38,0.51,1.9-0.02l4.5-4.55c0.38-0.36,0.39-0.95,0.04-1.33c-0.36-0.38-0.95-0.39-1.33-0.04
			C18.96,11.72,18.94,11.74,18.93,11.75z"/>
	</g>
</g>
</svg>
