<?xml version="1.0" encoding="utf-8"?>
<!-- Generator: Adobe Illustrator 24.2.3, SVG Export Plug-In . SVG Version: 6.00 Build 0)  -->
<svg version="1.1" id="Capa_1" xmlns="http://www.w3.org/2000/svg" xmlns:xlink="http://www.w3.org/1999/xlink" x="0px" y="0px"
	 viewBox="0 0 60.21 60.21" style="enable-background:new 0 0 60.21 60.21;" xml:space="preserve">
<style type="text/css">
	.st0{fill:#17A9EB;}
	.st1{fill:#FFFFFF;}
</style>
<g transform="translate(-1002.107 -4739.673)">
	<path class="st0" d="M1032.21,4739.67c16.62,0,30.1,13.48,30.1,30.1c0,16.62-13.48,30.1-30.1,30.1s-30.1-13.48-30.1-30.1
		C1002.11,4753.15,1015.58,4739.67,1032.21,4739.67C1032.21,4739.67,1032.21,4739.67,1032.21,4739.67z"/>
	<g transform="translate(1018.796 4754.512)">
		<path class="st1" d="M0.01,15.23C0.01,13,0.04,10.78,0,8.55C-0.07,7.9,0.28,7.27,0.87,6.99c3.87-2.2,7.72-4.43,11.56-6.68
			c0.59-0.41,1.37-0.42,1.96-0.01c3.81,2.23,7.64,4.44,11.48,6.62c0.63,0.29,1.01,0.93,0.96,1.62c-0.04,4.45-0.04,8.91-0.01,13.36
			c0.07,0.68-0.29,1.34-0.91,1.64c-3.9,2.21-7.77,4.45-11.64,6.72c-0.52,0.36-1.2,0.35-1.71-0.01c-3.89-2.28-7.8-4.53-11.72-6.76
			c-0.56-0.27-0.9-0.87-0.83-1.49C0.04,19.75,0.02,17.49,0.01,15.23L0.01,15.23z M24.11,8.03c-3.57-2.06-6.96-4.02-10.36-5.95
			c-0.31-0.08-0.63-0.04-0.9,0.13C9.89,3.89,6.95,5.59,4.01,7.29C3.62,7.52,3.25,7.76,2.77,8.05c3.49,2.01,6.85,3.96,10.23,5.88
			c0.26,0.12,0.56,0.12,0.82,0C17.21,12.02,20.57,10.07,24.11,8.03L24.11,8.03z M1.97,9.7c-0.05,0.11-0.09,0.22-0.12,0.34
			c-0.01,3.8-0.02,7.61,0.01,11.41c0.07,0.34,0.27,0.64,0.57,0.82c1.64,0.99,3.31,1.94,4.96,2.89s3.3,1.9,5,2.87
			c0.04-0.11,0.07-0.22,0.09-0.34c0-3.8,0.02-7.61-0.02-11.41c-0.06-0.34-0.26-0.64-0.55-0.82c-1.88-1.13-3.78-2.23-5.68-3.32
			C4.83,11.32,3.41,10.52,1.97,9.7L1.97,9.7z M14.33,27.96c0.16-0.02,0.23,0,0.28-0.03c3.29-1.89,6.59-3.77,9.86-5.7
			c0.31-0.26,0.5-0.64,0.51-1.04C25.02,17.57,25,13.96,25,10.34c-0.02-0.23-0.05-0.45-0.1-0.67c-3.46,2-6.83,3.94-10.18,5.91
			c-0.23,0.18-0.36,0.45-0.38,0.73C14.32,20.17,14.33,24.04,14.33,27.96L14.33,27.96z"/>
	</g>
</g>
</svg>
