<?xml version="1.0" encoding="utf-8"?>
<!-- Generator: Adobe Illustrator 24.2.3, SVG Export Plug-In . SVG Version: 6.00 Build 0)  -->
<svg version="1.1" id="Capa_1" xmlns="http://www.w3.org/2000/svg" xmlns:xlink="http://www.w3.org/1999/xlink" x="0px" y="0px"
	 viewBox="0 0 59.97 59.97" style="enable-background:new 0 0 59.97 59.97;" xml:space="preserve">
<style type="text/css">
	.st0{fill:#17A9EB;}
</style>
<path class="st0" d="M29.99,0C13.43,0,0,13.43,0,29.99s13.43,29.99,29.99,29.99s29.99-13.43,29.99-29.99l0,0
	C59.97,13.43,46.55,0,29.99,0z M14.69,32.26c-0.05-0.5-0.07-1-0.07-1.5l0,0c0.05-8.64,6.93-15.69,15.57-15.93l0,0
	c0.12,0,0.24,0,0.36,0c3.92,0,7.71,1.45,10.63,4.07c0.4,0.33,0.46,0.92,0.13,1.33c-0.33,0.4-0.92,0.46-1.33,0.13
	c-0.02-0.02-0.04-0.04-0.06-0.06c-2.58-2.31-5.91-3.59-9.37-3.58c-0.11,0-0.21,0-0.32,0l0,0c-7.62,0.21-13.69,6.43-13.73,14.05
	c0,0.44,0.02,0.89,0.06,1.33c0.05,0.52-0.33,0.98-0.85,1.03c-0.03,0-0.06,0-0.09,0C15.14,33.11,14.73,32.75,14.69,32.26L14.69,32.26
	z M17.81,38.72c-0.14,0.08-0.29,0.11-0.45,0.11c-0.35,0-0.66-0.19-0.83-0.49c-0.51-0.94-0.92-1.92-1.23-2.94
	c-0.12-0.51,0.18-1.02,0.69-1.14c0.47-0.11,0.95,0.14,1.11,0.59c0.27,0.9,0.64,1.77,1.08,2.59C18.43,37.9,18.26,38.47,17.81,38.72z
	 M21.92,43.06c-0.33,0.41-0.92,0.47-1.32,0.15c-0.83-0.67-1.59-1.41-2.28-2.23c-0.32-0.41-0.26-1,0.15-1.32
	c0.39-0.31,0.96-0.26,1.29,0.12c0.6,0.72,1.28,1.38,2.01,1.97C22.18,42.06,22.25,42.65,21.92,43.06
	C21.92,43.06,21.92,43.06,21.92,43.06L21.92,43.06z M27.4,45.45c-0.14,0.5-0.66,0.79-1.16,0.65c0,0,0,0,0,0
	c-1.03-0.29-2.02-0.68-2.97-1.17c-0.46-0.24-0.64-0.81-0.41-1.27s0.81-0.64,1.27-0.41c0.84,0.43,1.71,0.77,2.62,1.03
	C27.25,44.43,27.55,44.95,27.4,45.45C27.4,45.45,27.4,45.46,27.4,45.45L27.4,45.45z M24.36,32.5c-0.57-0.55-0.58-1.46-0.03-2.02
	c0.55-0.57,1.46-0.58,2.02-0.03l3.13,3.04l6.28-6.35c0.55-0.57,1.45-0.59,2.02-0.04c0.57,0.55,0.59,1.45,0.04,2.02
	c-0.01,0.01-0.02,0.02-0.03,0.03l-6.85,6.92c-0.79,0.8-2.08,0.81-2.88,0.03L24.36,32.5z M48.95,33.62c-0.37,0.37-0.96,0.37-1.33,0
	L46.4,32.4c-0.87,7.97-7.49,14.08-15.51,14.29l0,0c-0.11,0-0.23,0-0.34,0c-0.38,0-0.77-0.01-1.16-0.04
	c-0.52-0.03-0.92-0.47-0.89-0.99c0.03-0.52,0.47-0.92,0.99-0.89c0.01,0,0.02,0,0.03,0c0.44,0.03,0.89,0.04,1.32,0.03l0,0
	c6.96-0.19,12.75-5.41,13.64-12.32l-1.27,1.19c-0.37,0.37-0.97,0.36-1.33,0s-0.36-0.97,0-1.33c0.01-0.01,0.03-0.02,0.04-0.04
	l2.64-2.48c0.55-0.52,1.42-0.51,1.96,0.03l2.43,2.43C49.08,32.55,48.58,33.11,48.95,33.62L48.95,33.62z"/>
</svg>
