<?xml version="1.0" encoding="utf-8"?>
<!-- Generator: Adobe Illustrator 24.2.3, SVG Export Plug-In . SVG Version: 6.00 Build 0)  -->
<svg version="1.1" id="Capa_1" xmlns="http://www.w3.org/2000/svg" xmlns:xlink="http://www.w3.org/1999/xlink" x="0px" y="0px"
	 viewBox="0 0 59.47 59.47" style="enable-background:new 0 0 59.47 59.47;" xml:space="preserve">
<style type="text/css">
	.st0{fill:#17A9EB;}
</style>
<path class="st0" d="M29.73,0C13.31,0,0,13.31,0,29.73s13.31,29.73,29.73,29.73s29.73-13.31,29.73-29.73l0,0
	C59.47,13.31,46.15,0,29.73,0z M17.74,21.52c0.62-0.88,1.66-1.36,2.73-1.26c3.03,0.09,6.07,0.12,9.11,0.11
	c1.6-0.01,3.45,0.46,4.15-1.96c1.33,2.22,0.61,4.55-1.46,5.21c-1.04,0.32-2.12,0.47-3.2,0.45c-3.29-0.04-6.58-0.2-9.87-0.32
	c-0.22,0.01-0.45,0-0.67-0.05c-0.49-0.16-1.36-0.35-1.37-0.56C17.18,22.55,17.38,21.98,17.74,21.52z M27.1,27.63
	c0.52-0.67,0.94-1.42,1.25-2.21c0.2-0.5,0.4-0.73,0.93-0.71c0.64,0.02,1.27-0.03,1.91-0.02c1.3,0.03,1.61,0.4,1.42,1.71
	c-0.31,1.61-1.2,3.06-2.5,4.06c-1.56,1.36-2.37,1.3-3.77-0.24c-0.32-0.35-0.59-0.75-0.94-1.2C26.01,28.62,26.58,28.15,27.1,27.63
	L27.1,27.63z M24.36,27.43c-1.04-0.05-2-0.59-2.57-1.46c-0.2-0.33,0.03-0.91,0.07-1.38c0.37,0.04,0.85-0.06,1.08,0.13
	c0.67,0.76,1.83,0.83,2.59,0.16c0.05-0.04,0.09-0.08,0.13-0.13c0.24-0.22,0.74-0.14,1.12-0.2c0.13,0.43,0.17,0.87,0.12,1.32
	C26.49,27.02,25.42,27.24,24.36,27.43L24.36,27.43z M11.84,30.34c-0.58-0.01-1.16,0.13-1.67,0.4c-0.71,0.32-1,0.22-1.05-0.55
	c-0.2-3.33,0.28-3.94,3.58-4.5c0.76-0.13,1.51-0.26,2.27-0.36c0.89-0.11,1.78-0.19,2.93-0.31c0.85-0.29,1.66,0.23,2.39,0.97
	c1.78,1.79,3.57,3.57,5.34,5.37c0.21,0.28,0.38,0.6,0.51,0.93c-0.37,0.12-0.77,0.18-1.16,0.17c-2.52-0.41-5.03-0.9-7.55-1.32
	C15.58,30.83,13.71,30.54,11.84,30.34L11.84,30.34z M30.14,36.74L18.91,33.3l0.04-0.33c0.3-0.06,0.61-0.1,0.91-0.1
	c1.87,0.16,3.75,0.29,5.61,0.54c1.51,0.06,2.96,0.65,4.09,1.66c0.33,0.42,0.61,0.88,0.83,1.37L30.14,36.74z M44.01,40.7
	c-1.11,0.12-2.22,0.16-3.34,0.23c-3.04,0.65-4.94-1.22-6.82-3.1c-1.13-1.13-2.21-2.3-3.29-3.47c-0.39-0.42-0.96-0.79-0.37-1.52
	c0.93-1.16,1.6-1.54,2.45-1.11c1.51,0.76,3.01,1.55,4.49,2.36c2.46,1.34,4.93,2.7,7.36,4.09c0.39,0.22,0.95,0.72,0.91,1.03
	C45.37,39.98,44.78,40.61,44.01,40.7L44.01,40.7z M48.14,34.74c-1.08,2.16-1.74,2.43-3.89,1.39c-3.57-1.72-7.08-3.55-10.63-5.3
	c-0.64-0.31-0.9-0.75-0.61-1.38c0.32-0.7,0.32-1.8,1.5-1.67c1.27,0.15,2.53,0.36,3.77,0.65c3.06,0.68,6.1,1.4,9.15,2.11
	c1.23,0.29,1.46,0.57,1.59,1.8C48.77,33.16,48.48,33.96,48.14,34.74L48.14,34.74z M49.91,27.77c-0.18,0.79-0.97,1.29-1.76,1.1
	c-0.07-0.01-0.13-0.03-0.19-0.06c-4.11-0.8-8.21-1.63-12.32-2.42c-0.81-0.16-1.08-0.52-1.06-1.35c0.09-2.78,0.05-2.81,2.86-2.92
	c1.6-0.07,3.2-0.01,4.79-0.01V22c2.08,0,4.16,0.03,6.23-0.01c0.84-0.09,1.59,0.51,1.7,1.34C50.53,24.8,50.44,26.35,49.91,27.77
	L49.91,27.77z"/>
</svg>
