<?xml version="1.0" encoding="utf-8"?>
<!-- Generator: Adobe Illustrator 24.2.3, SVG Export Plug-In . SVG Version: 6.00 Build 0)  -->
<svg version="1.1" id="Capa_1" xmlns="http://www.w3.org/2000/svg" xmlns:xlink="http://www.w3.org/1999/xlink" x="0px" y="0px"
	 viewBox="0 0 60 60" style="enable-background:new 0 0 60 60;" xml:space="preserve">
<style type="text/css">
	.st0{fill:#17A9EB;}
	.st1{fill:#FFFFFF;}
</style>
<g transform="translate(-362.034 -454.45)">
	<path class="st0" d="M392.03,454.45c-16.57,0-30,13.43-30,30s13.43,30,30,30s30-13.43,30-30l0,0
		C422.03,467.88,408.6,454.45,392.03,454.45z"/>
	<g transform="translate(376.355 471.449)">
		<path class="st1" d="M16.86,28.01c-0.85,0.03-1.32-0.48-1.1-1.26c0.61-2.2,1.25-4.39,1.92-6.57c0.15-0.35,0.38-0.66,0.67-0.91
			C23.17,14.43,28,9.6,32.83,4.78c1.06-1.06,1.29-1.06,2.36,0.01c1.33,1.32,2.64,2.66,3.98,3.97c0.54,0.36,0.69,1.09,0.33,1.63
			c-0.08,0.12-0.18,0.23-0.3,0.31c-4.98,4.97-9.96,9.94-14.94,14.92c-0.22,0.22-0.48,0.39-0.77,0.49c-2.09,0.63-4.18,1.23-6.27,1.83
			C17.1,27.97,16.98,28,16.86,28.01z M34.04,5.59c-4.79,4.9-9.5,9.69-14.18,14.5c-0.77,0.65-0.86,1.8-0.21,2.57
			c0.08,0.1,0.18,0.19,0.28,0.27c0.41,0.36,0.79,0.76,1.14,1.18c0.82,1.15,1.72,0.71,2.61,0.19c0.27-0.2,0.52-0.44,0.73-0.7
			c2.87-2.92,5.73-5.86,8.61-8.77c1.68-1.7,3.4-3.35,5.04-4.97L34.04,5.59z"/>
		<path class="st1" d="M21.57,4.72c-0.22,0.08-0.44,0.18-0.64,0.31c-1.3,1.09-3.19,1.09-4.49,0c-0.58-0.56-0.99-1.28-1.17-2.07
			c-0.11-0.66-0.72-1.11-1.38-1.03c-0.85,0.01-1.37,0.25-1.43,1.09c-0.14,2.02-1.77,2.45-3.22,3.01C8.86,6.18,8.26,5.87,7.8,5.66
			C5.96,4.83,5.97,4.82,4.71,6.48C4.79,6.69,4.9,6.9,5.02,7.1c1.09,1.3,1.09,3.19,0,4.49c-0.41,0.61-1.4,0.87-2.17,1.21
			c-0.54,0.24-0.91,0.41-0.93,1.14c-0.14,0.66,0.27,1.3,0.93,1.45c0.07,0.02,0.14,0.02,0.21,0.03c0.63,0.13,1.47,0.27,1.77,0.71
			c0.62,0.87,1.04,1.88,1.22,2.93c0.09,0.64-0.44,1.41-0.8,2.07c-0.31,0.56-0.39,0.98,0.17,1.43c0.53,0.42,0.95,1.1,1.74,0.45
			c0.13-0.11,0.33-0.13,0.46-0.24c1.52-1.26,2.89-0.23,4.21,0.38c0.39,0.18,0.55,0.91,0.74,1.42c0.53,1.4,0.52,1.41,1.82,1.63v1.77
			c-0.69,0.05-1.38,0.04-2.07-0.03c-0.38-0.12-0.69-0.39-0.87-0.74c-0.27-0.6-0.5-1.22-0.7-1.84c-0.25-0.79-1.1-1.22-1.89-0.97
			c-0.09,0.03-0.19,0.07-0.27,0.12c-0.09,0.06-0.18,0.1-0.27,0.15c-0.83,0.26-1.93,0.97-2.43,0.68c-1.18-0.76-2.21-1.75-3.01-2.92
			c-0.26-0.35,0.25-1.33,0.52-1.97c0.3-0.72,0.89-1.39,0.2-2.17c-0.31-0.37-0.67-0.68-1.08-0.94C2.11,17.13,1.68,17,1.23,16.93
			c-0.72-0.05-1.27-0.67-1.23-1.4c0-0.04,0.01-0.09,0.01-0.13c0.02-0.24-0.01-0.48-0.01-0.73c-0.02-2.87-0.02-2.87,2.64-3.89
			c0.8-0.22,1.27-1.05,1.05-1.85C3.66,8.8,3.61,8.68,3.54,8.57C3.52,8.54,3.5,8.51,3.48,8.48c-0.3-0.86-1.08-2-0.79-2.53
			c0.8-1.16,1.77-2.2,2.88-3.08C5.75,2.72,6.25,2.8,6.55,2.91c0.58,0.21,1.14,0.51,1.7,0.77C8.97,4.1,9.89,3.85,10.3,3.13
			c0.06-0.11,0.11-0.22,0.14-0.34c0.96-2.83,0.96-2.83,4-2.78c1.86,0.03,1.86,0.03,2.5,1.8c0.13,0.43,0.28,0.85,0.47,1.27
			c0.55,0.69,1.55,0.84,2.27,0.34c2.32-1.17,2.32-1.17,4.1,0.52c1.8,1.71,1.83,1.73,0.7,3.97c-0.55,1.08-0.51,1.52,0.54,2.6
			c-0.01,0.06,0,0.14-0.04,0.18c-1.6,1.73-1.53,1.69-2.55-0.39c-0.5-0.83-0.49-1.87,0.01-2.7C23.3,6,23.24,5.97,21.57,4.72z"/>
		<path class="st1" d="M20.32,14.13c0.07,0.89-0.31,1.75-1.01,2.29c-1.06,1.03-1.95,2.22-2.98,3.3c-0.31,0.27-0.68,0.45-1.09,0.51
			c-3.42,0.69-6.76-1.53-7.45-4.95c-0.69-3.42,1.53-6.76,4.95-7.45c3.42-0.69,6.76,1.53,7.45,4.95
			C20.28,13.22,20.32,13.68,20.32,14.13L20.32,14.13z M14.02,18.36c2.4,0,4.34-1.95,4.34-4.35s-1.95-4.34-4.35-4.34
			c-2.4,0-4.34,1.95-4.34,4.35c0,0.03,0,0.05,0,0.08C9.73,16.46,11.65,18.35,14.02,18.36L14.02,18.36z"/>
	</g>
</g>
</svg>
