<?xml version="1.0" encoding="utf-8"?>
<!-- Generator: Adobe Illustrator 24.2.3, SVG Export Plug-In . SVG Version: 6.00 Build 0)  -->
<svg version="1.1" id="Capa_1" xmlns="http://www.w3.org/2000/svg" xmlns:xlink="http://www.w3.org/1999/xlink" x="0px" y="0px"
	 viewBox="0 0 126.23 43.5" style="enable-background:new 0 0 126.23 43.5;" xml:space="preserve">
<style type="text/css">
	.st0{fill-rule:evenodd;clip-rule:evenodd;fill:#FFFFFF;}
	.st1{fill:none;stroke:#FFFFFF;stroke-width:1.432;stroke-miterlimit:2.613;}
</style>
<g transform="translate(656.5 -20647.446)">
	<path class="st0" d="M-653.87,20686.51h0.08l0.74,2.22h-1.56L-653.87,20686.51L-653.87,20686.51z M-656.5,20690.78h1.07l0.49-1.23
		h2.22l0.41,1.23h1.07l-2.06-5.43h-0.99L-656.5,20690.78L-656.5,20690.78z"/>
	<path class="st0" d="M-650.25,20690.78v-5.43h3.54v0.74h-2.55v1.4h2.22v0.82h-2.22v1.64h2.63v0.82L-650.25,20690.78z"/>
	<path class="st0" d="M-644.25,20686.18h1.23c0.42-0.04,0.78,0.27,0.82,0.69c0,0.02,0,0.04,0,0.05c0,0.49-0.33,0.74-1.07,0.74h-0.99
		L-644.25,20686.18L-644.25,20686.18z M-644.25,20690.78v-2.3h0.99c0.91,0,0.99,0.08,0.99,0.9v0.66c0,0.25-0.08,0.49,0.08,0.74h1.23
		c-0.24-0.17-0.36-0.45-0.33-0.74v-0.82c0-0.74-0.33-1.15-1.07-1.15l0,0c0.74-0.16,1.15-0.49,1.15-1.32c0-0.99-0.66-1.4-1.64-1.4
		h-2.39v5.43L-644.25,20690.78z"/>
	<path class="st0" d="M-635.29,20688.07c0.13,1-0.58,1.91-1.58,2.04s-1.91-0.58-2.04-1.58c-0.02-0.15-0.02-0.31,0-0.46
		c-0.13-1,0.58-1.91,1.58-2.04s1.91,0.58,2.04,1.58C-635.27,20687.76-635.27,20687.91-635.29,20688.07z M-634.22,20688.07
		c0.04-1.55-1.19-2.84-2.74-2.88c-0.05,0-0.09,0-0.14,0c-1.52-0.06-2.81,1.12-2.88,2.64c0,0.08,0,0.16,0,0.24
		c-0.04,1.55,1.19,2.84,2.74,2.88c0.05,0,0.09,0,0.14,0c1.58,0.01,2.87-1.26,2.88-2.84
		C-634.22,20688.09-634.22,20688.08-634.22,20688.07z"/>
	<path class="st0" d="M-631.83,20686.09h0.9c0.99,0,1.23,0.33,1.23,0.9c0,0.66-0.25,0.99-1.23,0.99h-0.9V20686.09L-631.83,20686.09z
		 M-631.83,20690.78v-2.05h0.9c1.56,0,2.22-0.57,2.22-1.73c0-0.99-0.57-1.64-1.97-1.64h-2.14v5.43L-631.83,20690.78z"/>
	<path class="st0" d="M-626.49,20685.35v3.62c0.01,0.65,0.54,1.17,1.18,1.16c0.04,0,0.09,0,0.13-0.01c0.67,0.06,1.26-0.44,1.31-1.11
		c0-0.01,0-0.03,0-0.04v-3.62h0.99v3.7c0,1.31-1.07,1.89-2.3,1.89c-1.32,0-2.3-0.58-2.3-1.89v-3.7H-626.49z"/>
	<path class="st0" d="M-621.31,20690.78v-5.43h3.54v0.74h-2.55v1.4h2.22v0.82h-2.22v1.64h2.63v0.82L-621.31,20690.78z"/>
	<path class="st0" d="M-615.31,20686.18h1.23c0.49,0,0.82,0.25,0.82,0.74s-0.33,0.74-0.99,0.74h-1.07L-615.31,20686.18
		L-615.31,20686.18z M-615.31,20690.78v-2.3h0.99c0.9,0,0.99,0.08,0.99,0.9v0.66c-0.03,0.26,0.03,0.52,0.16,0.74h1.15
		c-0.24-0.17-0.36-0.45-0.33-0.74v-0.82c0-0.74-0.25-1.15-0.99-1.15l0,0c0.66-0.07,1.13-0.66,1.07-1.32c0-0.99-0.66-1.4-1.56-1.4
		h-2.47v5.43L-615.31,20690.78z"/>
	<path class="st0" d="M-611.28,20685.35h4.03v0.82h-1.56v4.6h-0.99v-4.6h-1.48V20685.35z"/>
	<path class="st0" d="M-601.74,20688.07c0.13,1-0.58,1.91-1.58,2.04c-1,0.13-1.91-0.58-2.04-1.58c-0.02-0.15-0.02-0.31,0-0.46
		c-0.13-1,0.58-1.91,1.58-2.04c1-0.13,1.91,0.58,2.04,1.58C-601.72,20687.76-601.72,20687.91-601.74,20688.07z M-600.67,20688.07
		c0.04-1.55-1.19-2.84-2.74-2.88c-0.04,0-0.09,0-0.13,0c-1.52-0.06-2.81,1.12-2.88,2.64c0,0.08,0,0.16,0,0.23
		c-0.04,1.55,1.19,2.84,2.74,2.88c0.05,0,0.09,0,0.14,0c1.58,0.01,2.87-1.26,2.88-2.84
		C-600.67,20688.09-600.67,20688.08-600.67,20688.07L-600.67,20688.07z"/>
	<path class="st0" d="M-598.7,20688.97c-0.03,0.61,0.43,1.13,1.04,1.16c0.06,0,0.13,0,0.19-0.01c0.58,0,1.23-0.25,1.23-0.82
		c0-1.32-3.37-0.33-3.37-2.47c0-1.15,1.07-1.64,2.14-1.64s2.14,0.41,2.22,1.81h-1.07c0-0.74-0.49-0.99-1.15-0.99
		c-0.74,0-1.07,0.33-1.07,0.74c0,1.15,3.29,0.16,3.29,2.38c0,1.23-0.99,1.81-2.22,1.81c-1.31,0-2.22-0.57-2.22-1.97H-598.7z"/>
	<path class="st0" d="M-590.15,20686.09h0.99c0.98-0.12,1.86,0.58,1.97,1.56c0.02,0.14,0.02,0.28,0,0.42
		c0.08,0.96-0.63,1.82-1.6,1.9c-0.13,0.01-0.25,0.01-0.38-0.01h-0.99V20686.09z M-591.13,20690.78h2.47
		c1.5-0.09,2.64-1.38,2.55-2.88c-0.08-1.37-1.18-2.46-2.55-2.55h-2.47V20690.78z"/>
	<path class="st0" d="M-584.72,20690.78v-5.43h3.54v0.74h-2.55v1.4h2.14v0.82h-2.14v1.64h2.55v0.82L-584.72,20690.78z"/>
	<path class="st0" d="M-578.72,20689.96h2.55v0.82h-3.54v-5.43h0.99L-578.72,20689.96L-578.72,20689.96z"/>
	<path class="st0" d="M-571.57,20688.97c0,0.82,0.57,1.15,1.32,1.15c0.49,0,1.15-0.25,1.15-0.82c0-1.32-3.37-0.33-3.37-2.47
		c0-1.15,1.07-1.64,2.14-1.64s2.14,0.41,2.22,1.81h-1.07c0-0.74-0.49-0.99-1.15-0.99c-0.74,0-1.07,0.33-1.07,0.74
		c0,1.15,3.37,0.16,3.37,2.38c0,1.23-1.07,1.81-2.3,1.81c-1.32,0-2.22-0.57-2.22-1.97H-571.57z"/>
	<path class="st0" d="M-565.81,20685.35v3.62c0,0.65,0.53,1.17,1.18,1.16c0.05,0,0.09,0,0.14-0.01c0.67,0.06,1.26-0.44,1.31-1.11
		c0-0.01,0-0.03,0-0.04v-3.62h0.99v3.7c0,1.31-1.07,1.89-2.3,1.89c-1.32,0-2.3-0.58-2.3-1.89v-3.7L-565.81,20685.35z"/>
	<path class="st0" d="M-559.64,20686.18h1.23c0.49,0,0.82,0.25,0.82,0.74s-0.33,0.74-0.99,0.74h-1.07L-559.64,20686.18
		L-559.64,20686.18z M-559.64,20690.78v-2.3h1.07c0.82,0,0.9,0.08,0.9,0.9v0.66c-0.03,0.26,0.03,0.52,0.16,0.74h1.15
		c-0.2-0.19-0.32-0.46-0.33-0.74v-0.82c0-0.74-0.25-1.15-0.99-1.15l0,0c0.67-0.06,1.18-0.64,1.15-1.32c0-0.99-0.74-1.4-1.65-1.4
		h-2.47v5.43L-559.64,20690.78z"/>
	<path class="st0" d="M-555.04,20690.78v-5.43h3.54v0.74h-2.55v1.4h2.22v0.82h-2.22v1.64h2.63v0.82L-555.04,20690.78z"/>
	<path class="st0" d="M-549.45,20688.97c0,0.82,0.57,1.15,1.31,1.15c0.49,0,1.15-0.25,1.15-0.82c0-1.32-3.37-0.33-3.37-2.47
		c0-1.15,1.07-1.64,2.14-1.64s2.14,0.41,2.22,1.81h-1.07c0-0.74-0.49-0.99-1.15-0.99c-0.74,0-1.07,0.33-1.07,0.74
		c0,1.15,3.37,0.16,3.37,2.38c0,1.23-1.07,1.81-2.3,1.81c-1.32,0-2.22-0.57-2.22-1.97H-549.45z"/>
	<path class="st0" d="M-545.18,20685.35h4.03v0.82h-1.56v4.6h-0.99v-4.6h-1.48V20685.35z"/>
	<path class="st0" d="M-540.08,20690.78v-5.43h3.54v0.74h-2.55v1.4h2.22v0.82h-2.22v1.64h2.63v0.82L-540.08,20690.78z"/>
	<path class="st0" d="M-636.68,20666.86l6-8.8h0.41c-0.35,1.21-0.63,2.45-0.82,3.7l-0.9,5.1H-636.68z M-641.7,20673.68h8.72
		l-0.58,3.62h12.25l1.4-28.86h-12.83l-23.68,28.86h12.17L-641.7,20673.68L-641.7,20673.68z"/>
	<path class="st0" d="M-617.77,20666.77l0.41,0.41c1.59,1.65,3.79,2.57,6.08,2.55c1.07-0.08,3.12-0.49,3.62-1.81
		c0.57-1.31-0.9-1.4-1.89-1.56l-2.14-0.33c-4.19-0.66-6.99-3.04-5.02-7.56c2.88-6.91,11.35-10.85,18.25-11.02
		c3.17-0.19,6.31,0.65,8.96,2.38l-6.25,7.48c-1.59-1.38-3.65-2.12-5.76-2.06c-0.99,0-2.63,0.41-3.12,1.56
		c-0.41,1.07,0.9,1.23,1.73,1.4l2.39,0.49c4.44,0.9,6.99,3.21,4.93,8.14c-2.88,6.99-11.26,10.52-18.09,10.61
		c-3.84,0.13-7.65-0.7-11.1-2.38L-617.77,20666.77L-617.77,20666.77z"/>
	<path class="st0" d="M-556.6,20648.36l-7.56,17.02c-3.7,8.47-11.18,12.25-20.06,12.25s-12.99-3.78-9.29-12.25l7.56-17.02h11.51
		l-7.07,16.03c-0.99,2.3-1.81,4.28,1.23,4.28s4.03-1.97,5.02-4.28l7.15-16.03H-556.6z"/>
	<path class="st0" d="M-546.24,20656.25h0.9c1.97,0,3.62,0.25,2.63,2.46c-0.99,2.14-2.96,2.39-4.85,2.39h-0.82L-546.24,20656.25
		L-546.24,20656.25z M-566.71,20677.21h11.26l4.11-9.29h0.17l0.99,9.29h13.32l-2.8-9.37c-0.2-0.68-0.6-1.28-1.15-1.73l0.08-0.25
		c4.85-1.32,7.56-3.12,9.45-7.48c3.21-7.32-1.65-10.03-8.8-10.03h-13.98L-566.71,20677.21L-566.71,20677.21z"/>
	<line class="st1" x1="-656.5" y1="20681.96" x2="-536.54" y2="20681.96"/>
</g>
</svg>
