<?xml version="1.0" encoding="utf-8"?>
<!-- Generator: Adobe Illustrator 24.2.3, SVG Export Plug-In . SVG Version: 6.00 Build 0)  -->
<svg version="1.1" id="Capa_1" xmlns="http://www.w3.org/2000/svg" xmlns:xlink="http://www.w3.org/1999/xlink" x="0px" y="0px"
	 viewBox="0 0 138 72.01" style="enable-background:new 0 0 138 72.01;" xml:space="preserve">
<style type="text/css">
	.st0{fill-rule:evenodd;clip-rule:evenodd;fill:#FF0001;}
</style>
<g transform="translate(-15 -13)">
	<path class="st0" d="M17.68,37.25h19.26c0.03-1.12,0.21-2.22,0.56-3.28c1.18-3.52,5.17-5.39,9.03-5.5c4.38-0.13,8.6,2,8.41,6.55
		c0.04,3.41-2.49,4.92-6.52,5.33c-3.04,0-6.08,0-9.12,0v13.39h6.83c1.43,0.16,2.81,0.64,4.04,1.39c6.54,4.03,3.42,12.56-3.23,13.45
		c-4.13,0.55-8.77-0.86-10.65-5.23c-0.88-2.29-1.33-4.72-1.34-7.17H15C15,74.71,25.53,85.05,45.07,85
		c11.9-0.16,23.78-4.26,28.47-13.1c0.07-0.14,0.15-0.28,0.22-0.42v11.86h20.29V40.44l10.76,42.91h17.35l11.04-42.88l-0.18,42.88H153
		V14.31h-29.78l-9.62,40.12l-9.97-40.12H73.75v14.03C70.28,16.76,57.78,13.14,46.95,13C27.41,12.96,18.61,21.37,17.68,37.25
		L17.68,37.25z M73.75,54.07c-1.75-2.85-4.1-5.3-6.89-7.16c-0.29-0.23-0.32-0.36,0-0.55c2-1.09,3.77-2.57,5.2-4.34
		c0.72-0.96,1.29-2.02,1.69-3.15L73.75,54.07L73.75,54.07z"/>
</g>
</svg>
