<?xml version="1.0" encoding="utf-8"?>
<!-- Generator: Adobe Illustrator 24.2.3, SVG Export Plug-In . SVG Version: 6.00 Build 0)  -->
<svg version="1.1" id="Capa_1" xmlns="http://www.w3.org/2000/svg" xmlns:xlink="http://www.w3.org/1999/xlink" x="0px" y="0px"
	 viewBox="0 0 56.92 56.92" style="enable-background:new 0 0 56.92 56.92;" xml:space="preserve">
<style type="text/css">
	.st0{fill:#17A9EB;}
</style>
<g transform="translate(-4845.66 -3770.261)">
	<g transform="translate(4845.66 3770.261)">
		<path class="st0" d="M39.78,35.21c-1.44-0.01-2.61,1.15-2.61,2.59c-0.01,1.44,1.15,2.61,2.59,2.61c1.44,0.01,2.61-1.15,2.61-2.58
			c0.02-1.43-1.13-2.6-2.56-2.62C39.8,35.21,39.79,35.21,39.78,35.21z"/>
		<path class="st0" d="M20.06,35.21c-1.44-0.02-2.61,1.14-2.63,2.57c-0.02,1.44,1.14,2.61,2.57,2.63c1.43,0.02,2.61-1.13,2.63-2.57
			C22.64,36.4,21.49,35.23,20.06,35.21z"/>
		<path class="st0" d="M28.46,0C12.74,0,0,12.74,0,28.46s12.74,28.46,28.46,28.46s28.46-12.74,28.46-28.46S44.17,0,28.46,0L28.46,0z
			 M11.86,20.69c1.07-0.01,2.15,0,3.22,0h1.69c1.6,0,3.21,0,4.81,0c0.33-0.05,0.65,0.15,0.76,0.47c0.11,0.36-0.09,0.74-0.45,0.86
			c-0.01,0-0.01,0-0.02,0.01c-0.11,0.03-0.22,0.04-0.34,0.04c-3.19,0-6.37,0-9.56,0c-0.48,0-0.77-0.21-0.82-0.59
			c-0.07-0.36,0.17-0.71,0.53-0.77C11.73,20.69,11.8,20.68,11.86,20.69L11.86,20.69z M24.73,23.97c0.6,0,0.93,0.24,0.93,0.68
			s-0.33,0.69-0.92,0.69h-5.53c-1.85,0-3.71,0-5.56,0c-0.17,0.01-0.33-0.02-0.48-0.08c-0.33-0.16-0.47-0.57-0.31-0.9
			c0.08-0.16,0.21-0.28,0.38-0.34c0.15-0.04,0.31-0.06,0.46-0.05C17.37,23.97,21.05,23.96,24.73,23.97L24.73,23.97z M10.06,27.45
			c0.12-0.01,0.25-0.02,0.37-0.01h9.34c0.62,0,0.95,0.25,0.94,0.7s-0.33,0.67-0.93,0.67H15.1c-1.6,0-3.21,0-4.81,0
			c-0.38,0.05-0.73-0.21-0.79-0.59c-0.06-0.37,0.19-0.71,0.56-0.77C10.06,27.45,10.06,27.45,10.06,27.45L10.06,27.45z M48.68,37.86
			c-0.04,0.39-0.38,0.67-0.77,0.64c-0.02,0-0.04,0-0.05-0.01c-1.29,0-2.59,0.01-3.88-0.01c-0.21,0-0.3,0.05-0.36,0.27
			c-0.52,2.13-2.66,3.43-4.79,2.91c-1.42-0.35-2.53-1.44-2.9-2.86c-0.03-0.1-0.06-0.2-0.09-0.32h-0.34c-3.72,0-7.44,0-11.16-0.01
			c-0.29,0-0.39,0.09-0.46,0.36c-0.44,1.66-1.89,2.84-3.6,2.94c-1.69,0.09-3.25-0.89-3.9-2.45c-0.05-0.11-0.09-0.23-0.13-0.35
			c-0.14-0.48-0.14-0.48-0.66-0.48h-2.81c-0.63,0-0.91-0.36-0.76-0.98c0.16-0.67,0.33-1.33,0.5-2c0.02-0.09,0.03-0.18,0.06-0.3
			c-0.8,0-1.57,0-2.33,0c-0.37,0.03-0.7-0.24-0.73-0.62c-0.01-0.1,0.01-0.21,0.03-0.31c0.26-1.05,0.52-2.1,0.79-3.15
			c0.06-0.38,0.41-0.64,0.79-0.58c0.01,0,0.02,0,0.04,0.01c0.38,0.09,0.61,0.48,0.52,0.86c-0.01,0.02-0.01,0.05-0.02,0.07
			c-0.17,0.69-0.34,1.37-0.51,2.06c-0.02,0.08-0.03,0.16-0.05,0.28h0.95c0.47,0,0.94-0.01,1.41,0c0.38-0.01,0.69,0.28,0.71,0.65
			c0,0.08-0.01,0.16-0.03,0.24c-0.19,0.78-0.38,1.55-0.59,2.37c0.11,0.01,0.2,0.03,0.28,0.03c0.68,0,1.35,0,2.03,0
			c0.19,0,0.29-0.04,0.34-0.26c0.51-2.13,2.65-3.44,4.78-2.92c1.41,0.34,2.52,1.42,2.89,2.81c0.09,0.31,0.22,0.37,0.51,0.37
			c2.1-0.01,4.21-0.01,6.32,0c0.24,0,0.34-0.06,0.4-0.3c0.82-3.31,1.64-6.61,2.47-9.92c0.65-2.6,1.3-5.2,1.95-7.79
			c0.03-0.1,0.04-0.2,0.07-0.34H15.35c-0.6,0-0.93-0.23-0.94-0.67s0.33-0.7,0.94-0.7h20.98c0.65,0,0.93,0.36,0.77,0.99
			c-0.18,0.75-0.37,1.49-0.57,2.28c0.14,0.01,0.25,0.02,0.36,0.02h6c0.51,0,0.67,0.11,0.86,0.6c1.01,2.51,2.01,5.03,3.03,7.54
			c0.07,0.16,0.2,0.3,0.36,0.39c0.87,0.45,1.75,0.88,2.62,1.32c0.51,0.25,0.62,0.47,0.48,1.03C49.73,33.66,49.2,35.76,48.68,37.86
			L48.68,37.86z"/>
		<path class="st0" d="M48.58,31.47c-0.82-0.4-1.65-0.8-2.46-1.24c-0.2-0.11-0.35-0.28-0.45-0.48c-1-2.46-1.99-4.92-2.97-7.39
			c-0.04-0.19-0.22-0.32-0.42-0.3c-1.94,0.01-3.88,0.01-5.81,0c-0.24,0-0.32,0.08-0.37,0.3c-0.29,1.18-0.58,2.37-0.88,3.55
			c-0.72,2.89-1.45,5.78-2.17,8.67c-0.21,0.83-0.41,1.66-0.63,2.54h0.39c0.88,0,1.75-0.01,2.63,0.01c0.3,0.01,0.46-0.06,0.5-0.38
			c0.04-0.2,0.11-0.4,0.21-0.59c0.9-2,3.25-2.88,5.25-1.98c1.12,0.5,1.94,1.5,2.22,2.69c0.05,0.17,0.11,0.26,0.31,0.26
			c1.08-0.01,2.17-0.01,3.25,0c0.21,0,0.28-0.07,0.33-0.27c0.41-1.67,0.83-3.33,1.26-5C48.83,31.64,48.76,31.56,48.58,31.47z"/>
	</g>
</g>
</svg>
