<?xml version="1.0" encoding="utf-8"?>
<!-- Generator: Adobe Illustrator 24.2.3, SVG Export Plug-In . SVG Version: 6.00 Build 0)  -->
<svg version="1.1" id="Capa_1" xmlns="http://www.w3.org/2000/svg" xmlns:xlink="http://www.w3.org/1999/xlink" x="0px" y="0px"
	 viewBox="0 0 53.33 53.33" style="enable-background:new 0 0 53.33 53.33;" xml:space="preserve">
<style type="text/css">
	.st0{fill:#17A9EB;}
	.st1{fill:none;stroke:#FFFFFF;stroke-miterlimit:10;}
</style>
<g transform="translate(-1502 -3795.807)">
	<path class="st0" d="M1528.67,3795.81c-14.73,0-26.67,11.94-26.67,26.66c0,14.73,11.94,26.67,26.66,26.67s26.67-11.94,26.67-26.66
		v0C1555.33,3807.75,1543.39,3795.81,1528.67,3795.81z"/>
	<g transform="translate(-3523.5 -155.5)">
		<g transform="translate(5033.189 3970.51)">
			<path class="st1" d="M37.55,9.09l-18.58,8.87c-0.08,0.04-0.16,0.04-0.24,0L0.16,9.13C0.02,9.06-0.04,8.9,0.03,8.76
				C0.06,8.7,0.1,8.66,0.16,8.63l18.6-8.6c0.07-0.03,0.16-0.03,0.23,0L37.55,8.6c0.14,0.07,0.2,0.23,0.13,0.37
				C37.65,9.02,37.61,9.07,37.55,9.09z"/>
			<path class="st1" d="M28.35,9.04l-9.14,4.36c-0.04,0.02-0.08,0.02-0.12,0L9.96,9.05c-0.07-0.03-0.1-0.11-0.07-0.18
				C9.9,8.84,9.93,8.82,9.96,8.8l9.15-4.23c0.04-0.02,0.08-0.02,0.11,0l9.13,4.21c0.07,0.03,0.1,0.11,0.07,0.18
				C28.41,9,28.38,9.02,28.35,9.04z"/>
			<line class="st1" x1="4.66" y1="6.54" x2="23.53" y2="15.79"/>
			<line class="st1" x1="9.88" y1="4.18" x2="28.78" y2="13.44"/>
			<line class="st1" x1="14.47" y1="1.92" x2="33.33" y2="11.16"/>
			<line class="st1" x1="4.45" y1="11.17" x2="23.71" y2="2.2"/>
			<line class="st1" x1="9.25" y1="13.45" x2="28.78" y2="4.37"/>
			<line class="st1" x1="14.1" y1="15.79" x2="33.52" y2="6.73"/>
		</g>
	</g>
</g>
</svg>
