<?xml version="1.0" encoding="utf-8"?>
<!-- Generator: Adobe Illustrator 24.2.3, SVG Export Plug-In . SVG Version: 6.00 Build 0)  -->
<svg version="1.1" id="Capa_1" xmlns="http://www.w3.org/2000/svg" xmlns:xlink="http://www.w3.org/1999/xlink" x="0px" y="0px"
	 viewBox="0 0 203.09 88.66" style="enable-background:new 0 0 203.09 88.66;" xml:space="preserve">
<style type="text/css">
	.st0{fill:#0194D6;}
	.st1{fill:#FFFFFF;}
	.st2{fill:#FDFEFE;}
	.st3{fill:#F0F9F9;}
</style>
<g transform="translate(-690.668 -442.161)">
	<path class="st0" d="M690.82,442.16h193c5.49,0,9.94,4.45,9.94,9.94c0,0,0,0,0,0v78.72l0,0H700.44c-5.31,0-9.62-4.31-9.62-9.62
		V442.16L690.82,442.16z"/>
	<path class="st0" d="M690.67,442.16h193c5.49,0,9.94,4.45,9.94,9.94c0,0,0,0,0,0v78.72l0,0H700.29c-5.31,0-9.62-4.31-9.62-9.62
		V442.16L690.67,442.16z"/>
	<g transform="translate(763.631 465.005)">
		<path class="st1" d="M0.47,14.07C0.16,14.07,0,13.92,0,13.62V0.78c0.3-0.05,0.62-0.1,0.97-0.15s0.7-0.08,1.05-0.12
			s0.71-0.06,1.04-0.08s0.66-0.03,0.96-0.03c0.81-0.02,1.61,0.1,2.38,0.35c0.64,0.22,1.21,0.62,1.64,1.15
			c0.47,0.62,0.79,1.34,0.95,2.11c0.4,2.11,0.4,4.29,0,6.4c-0.15,0.76-0.47,1.49-0.93,2.12c-0.41,0.54-0.97,0.94-1.61,1.17
			c-0.76,0.26-1.55,0.38-2.35,0.36L0.47,14.07z M3.94,2.05c-0.3,0-0.63,0.01-1,0.04c-0.36,0.03-0.66,0.06-0.9,0.1v10.24H3.9
			c0.49,0.01,0.99-0.05,1.46-0.19c0.42-0.13,0.79-0.39,1.03-0.75c0.31-0.49,0.52-1.04,0.6-1.61c0.25-1.75,0.26-3.52,0.03-5.27
			C6.95,4.06,6.76,3.53,6.48,3.05C6.24,2.69,5.89,2.41,5.47,2.26C4.98,2.11,4.46,2.04,3.94,2.05L3.94,2.05z"/>
		<path class="st1" d="M13.21,9.83c0.02,0.45,0.07,0.89,0.18,1.33c0.07,0.33,0.23,0.64,0.46,0.89c0.24,0.24,0.54,0.41,0.87,0.5
			c0.46,0.11,0.93,0.17,1.41,0.15c0.46,0,0.93-0.02,1.39-0.08c0.28-0.04,0.57-0.07,0.86-0.08c0.3,0,0.45,0.14,0.45,0.43v0.82
			c-0.41,0.16-0.84,0.27-1.28,0.34c-0.62,0.1-1.24,0.15-1.86,0.15c-0.65,0.01-1.31-0.08-1.93-0.27c-0.52-0.17-0.99-0.47-1.36-0.89
			c-0.39-0.46-0.66-1.01-0.79-1.6c-0.18-0.78-0.27-1.59-0.25-2.39c-0.01-0.81,0.07-1.61,0.25-2.4c0.13-0.59,0.4-1.15,0.77-1.63
			c0.34-0.42,0.78-0.73,1.28-0.92c0.57-0.2,1.17-0.3,1.78-0.28c0.63-0.02,1.26,0.09,1.85,0.32c0.45,0.19,0.83,0.49,1.13,0.87
			c0.28,0.38,0.47,0.82,0.57,1.28c0.11,0.52,0.16,1.04,0.16,1.57c0,0.37-0.02,0.73-0.06,1.09c-0.02,0.27-0.08,0.54-0.16,0.8
			L13.21,9.83z M17.32,8.45c0.01-0.13,0.02-0.23,0.02-0.29V7.9c0.04-0.65-0.09-1.3-0.38-1.88c-0.35-0.47-0.92-0.71-1.49-0.63
			c-0.38-0.01-0.75,0.06-1.09,0.21C14.1,5.73,13.86,5.94,13.7,6.2c-0.18,0.29-0.31,0.62-0.36,0.96c-0.08,0.42-0.12,0.85-0.13,1.28
			L17.32,8.45z M14.69,2.89c-0.11,0.01-0.21-0.04-0.27-0.13c-0.05-0.1-0.04-0.23,0.02-0.32C14.62,2,14.81,1.57,15,1.17
			c0.2-0.4,0.4-0.79,0.62-1.17h1.6c0.22,0,0.33,0.08,0.33,0.25c0,0.1-0.03,0.19-0.08,0.27c-0.06,0.1-0.13,0.2-0.2,0.29l-1.6,2.07
			L14.69,2.89z"/>
		<path class="st1" d="M27.63,13.79c-0.37,0.15-0.76,0.27-1.15,0.34c-0.49,0.1-0.98,0.15-1.48,0.15c-0.63,0.02-1.27-0.1-1.85-0.34
			c-0.49-0.21-0.92-0.56-1.23-0.99c-0.33-0.49-0.57-1.04-0.68-1.62c-0.15-0.72-0.22-1.46-0.21-2.2c-0.11-1.39,0.23-2.79,0.97-3.97
			c0.74-0.87,1.84-1.33,2.97-1.24c0.44,0,0.87,0.04,1.31,0.11c0.32,0.04,0.64,0.12,0.94,0.24c0.12,0.05,0.23,0.14,0.3,0.25
			c0.06,0.11,0.09,0.24,0.09,0.37v0.84c-0.42-0.07-0.81-0.11-1.19-0.15s-0.7-0.05-0.97-0.05c-0.38-0.01-0.76,0.05-1.12,0.17
			c-0.3,0.11-0.57,0.31-0.75,0.58c-0.22,0.33-0.36,0.7-0.42,1.08C23.03,7.91,22.99,8.47,23,9.03c-0.01,0.61,0.04,1.22,0.16,1.81
			c0.07,0.39,0.23,0.77,0.45,1.1c0.18,0.25,0.43,0.44,0.72,0.55c0.32,0.1,0.66,0.15,1,0.15c0.36,0,0.72-0.02,1.08-0.07
			c0.25-0.04,0.5-0.06,0.75-0.07c0.23-0.03,0.44,0.12,0.47,0.35c0.01,0.04,0.01,0.08,0,0.12L27.63,13.79z"/>
		<path class="st1" d="M33.16,14.3c-1.2,0.11-2.38-0.35-3.19-1.25c-1.31-2.47-1.31-5.43,0-7.9c1.8-1.66,4.58-1.66,6.38,0
			c1.31,2.47,1.31,5.43,0,7.9C35.55,13.95,34.37,14.41,33.16,14.3z M35.35,9.09c0.01-0.59-0.03-1.18-0.13-1.76
			c-0.06-0.39-0.19-0.78-0.39-1.12c-0.16-0.27-0.4-0.48-0.68-0.6c-0.64-0.23-1.33-0.23-1.97,0c-0.28,0.12-0.52,0.33-0.68,0.6
			c-0.2,0.35-0.33,0.73-0.39,1.12c-0.09,0.58-0.14,1.17-0.13,1.76c-0.01,0.6,0.03,1.19,0.13,1.79c0.06,0.4,0.19,0.78,0.39,1.13
			c0.16,0.26,0.4,0.47,0.68,0.59c0.64,0.22,1.33,0.22,1.97,0c0.29-0.12,0.53-0.32,0.68-0.59c0.2-0.35,0.33-0.73,0.39-1.13
			C35.32,10.29,35.36,9.69,35.35,9.09L35.35,9.09z"/>
		<path class="st1" d="M43.99,4.08c0.18-0.02,0.37,0.02,0.53,0.13c0.09,0.09,0.14,0.21,0.14,0.34v1.31
			c-0.09-0.01-0.18-0.02-0.27-0.02h-0.25c-0.5-0.01-0.99,0.08-1.45,0.25c-0.47,0.19-0.88,0.48-1.22,0.86v7.12h-1.5
			c-0.31,0-0.47-0.15-0.47-0.45V4.14h1.19c0.13-0.01,0.27,0.03,0.37,0.11c0.1,0.11,0.16,0.24,0.17,0.38l0.08,0.86
			c0.33-0.39,0.72-0.72,1.15-0.98C42.92,4.22,43.45,4.07,43.99,4.08z"/>
	</g>
	<g transform="translate(763.23 488.072)">
		<path class="st1" d="M0.47,14.03C0.16,14.03,0,13.88,0,13.58V0.72c0.57-0.1,1.22-0.19,1.93-0.26c0.72-0.07,1.39-0.11,2.01-0.11
			c1.25-0.1,2.48,0.26,3.48,1.02c0.83,0.93,1.24,2.16,1.11,3.4c0.02,0.7-0.08,1.39-0.3,2.05C8.07,7.33,7.78,7.8,7.39,8.19
			C7.01,8.55,6.55,8.81,6.05,8.96C5.48,9.13,4.9,9.21,4.3,9.2c-0.36,0-0.72-0.02-1.08-0.07c-0.38-0.05-0.78-0.11-1.19-0.2v5.1
			L0.47,14.03z M2.03,7.37c0.34,0.07,0.68,0.12,1.02,0.17C3.39,7.58,3.73,7.6,4.07,7.6C4.43,7.61,4.8,7.56,5.16,7.47
			C5.45,7.4,5.72,7.24,5.93,7.02c0.22-0.25,0.38-0.55,0.46-0.87C6.5,5.7,6.56,5.23,6.55,4.77C6.56,4.28,6.5,3.79,6.38,3.32
			C6.29,3,6.12,2.7,5.88,2.47C5.65,2.27,5.37,2.12,5.07,2.06C4.71,1.99,4.35,1.95,3.98,1.95c-0.39,0-0.76,0.01-1.1,0.04
			s-0.63,0.06-0.85,0.1V7.37z"/>
		<path class="st1" d="M14.95,4.02c0.19-0.02,0.37,0.02,0.53,0.13c0.09,0.09,0.14,0.21,0.14,0.34V5.8
			c-0.09-0.01-0.18-0.02-0.27-0.02h-0.25c-0.5-0.01-0.99,0.08-1.46,0.25c-0.47,0.19-0.89,0.48-1.22,0.86v7.13H10.9
			c-0.31,0-0.47-0.15-0.47-0.45v-9.5h1.19c0.13-0.01,0.27,0.03,0.37,0.11c0.1,0.11,0.16,0.24,0.17,0.38l0.08,0.86
			c0.33-0.39,0.72-0.72,1.15-0.98C13.87,4.17,14.4,4.02,14.95,4.02z"/>
		<path class="st1" d="M18.33,2.52C18,2.55,17.67,2.46,17.4,2.28c-0.38-0.49-0.38-1.17,0-1.65c0.27-0.19,0.6-0.28,0.93-0.25
			c0.33-0.03,0.65,0.06,0.92,0.25c0.39,0.48,0.39,1.17,0,1.65C18.98,2.46,18.65,2.55,18.33,2.52z M19.3,14.03h-1.5
			c-0.31,0-0.47-0.15-0.47-0.45v-9.5h1.5c0.31,0,0.47,0.15,0.47,0.45V14.03z"/>
		<path class="st1" d="M22.2,14.03c-0.31,0-0.47-0.15-0.47-0.45v-9.5h1.19c0.13,0,0.25,0.03,0.36,0.1c0.12,0.1,0.18,0.24,0.19,0.39
			l0.08,0.61c0.8-0.87,1.93-1.35,3.11-1.31c0.87-0.09,1.72,0.26,2.29,0.93c0.49,0.73,0.73,1.6,0.68,2.47v6.76h-1.5
			c-0.12,0.01-0.25-0.04-0.34-0.12c-0.09-0.09-0.13-0.21-0.13-0.33V7.42c0.05-0.52-0.1-1.04-0.43-1.45
			c-0.34-0.31-0.79-0.47-1.25-0.44c-0.48-0.01-0.95,0.1-1.37,0.32c-0.33,0.18-0.63,0.4-0.9,0.65v7.52L22.2,14.03z"/>
		<path class="st1" d="M36.79,13.97c-0.28,0.07-0.56,0.13-0.85,0.18c-0.27,0.04-0.55,0.06-0.83,0.06c-0.74,0.07-1.47-0.16-2.04-0.63
			c-0.47-0.55-0.7-1.26-0.64-1.98V5.65h-0.68c-0.31,0-0.47-0.15-0.47-0.45V4.08h1.19l0.1-2.58h1.37c0.31,0,0.47,0.15,0.47,0.45v2.13
			h1.91c0.12-0.01,0.25,0.04,0.34,0.12c0.09,0.09,0.14,0.21,0.13,0.33v1.11h-2.38v5.86c-0.02,0.28,0.05,0.57,0.18,0.82
			c0.16,0.22,0.43,0.33,0.7,0.29c0.22,0,0.41,0,0.56-0.01s0.29-0.01,0.42-0.01c0.35,0,0.53,0.15,0.53,0.45L36.79,13.97z"/>
		<path class="st1" d="M42.38,4.02c-0.08-1.04,0.31-2.06,1.05-2.79c0.94-0.7,2.1-1.03,3.26-0.94c0.55,0,1.1,0.04,1.64,0.11
			c0.43,0.05,0.86,0.14,1.27,0.26c0.16,0.05,0.3,0.16,0.38,0.3c0.05,0.12,0.07,0.25,0.07,0.38v0.9c-0.48-0.07-0.98-0.12-1.48-0.17
			c-0.51-0.04-1.03-0.07-1.56-0.07C46.58,2,46.16,2.04,45.74,2.14c-0.29,0.06-0.57,0.19-0.81,0.36c-0.2,0.15-0.35,0.35-0.43,0.59
			c-0.09,0.26-0.13,0.54-0.13,0.82c-0.01,0.3,0.04,0.59,0.14,0.87c0.1,0.24,0.26,0.44,0.46,0.6c0.26,0.19,0.54,0.35,0.84,0.46
			c0.34,0.14,0.77,0.3,1.28,0.48c0.52,0.19,0.99,0.39,1.42,0.59c0.4,0.18,0.77,0.43,1.09,0.73c0.31,0.3,0.55,0.67,0.7,1.08
			c0.18,0.52,0.26,1.06,0.24,1.61c0.11,1.13-0.31,2.24-1.13,3.02c-0.96,0.67-2.12,0.99-3.28,0.91c-0.61,0-1.22-0.04-1.82-0.13
			c-0.46-0.06-0.92-0.16-1.37-0.3c-0.14-0.04-0.27-0.13-0.35-0.25c-0.07-0.12-0.1-0.25-0.1-0.39V12.2c0.46,0.07,0.96,0.13,1.51,0.2
			c0.59,0.07,1.18,0.1,1.77,0.1c0.46,0.01,0.91-0.04,1.36-0.15c0.31-0.07,0.59-0.21,0.84-0.41c0.2-0.17,0.35-0.4,0.42-0.65
			c0.08-0.29,0.12-0.58,0.12-0.88c0.01-0.31-0.03-0.61-0.13-0.9c-0.09-0.24-0.24-0.45-0.44-0.6c-0.26-0.19-0.54-0.34-0.83-0.46
			c-0.34-0.14-0.78-0.31-1.3-0.49c-0.5-0.17-0.98-0.38-1.46-0.61c-0.4-0.19-0.76-0.44-1.07-0.75c-0.3-0.3-0.53-0.66-0.67-1.05
			C42.44,5.06,42.36,4.54,42.38,4.02z"/>
		<path class="st1" d="M56.96,14.15c-0.47,0.01-0.94-0.06-1.39-0.2c-0.32-0.11-0.64-0.25-0.94-0.41v3.81h-1.5
			c-0.31,0-0.47-0.15-0.47-0.45v-6.58c0-0.74,0.01-1.5,0.02-2.29c0.01-0.78,0.04-1.56,0.08-2.35h-0.35c-0.26,0-0.39-0.14-0.39-0.43
			V4.32c0.2-0.04,0.44-0.08,0.73-0.13s0.61-0.08,0.95-0.12s0.7-0.06,1.07-0.09c0.37-0.03,0.74-0.04,1.09-0.04
			c0.72-0.01,1.45,0.07,2.15,0.24c0.56,0.14,1.07,0.43,1.48,0.83c0.42,0.43,0.71,0.97,0.86,1.55c0.2,0.79,0.29,1.61,0.27,2.43
			c0.1,1.36-0.21,2.72-0.9,3.9C59.08,13.76,58.03,14.23,56.96,14.15z M56.41,12.6c0.34,0.01,0.68-0.05,1.01-0.17
			c0.29-0.12,0.53-0.32,0.69-0.58c0.21-0.34,0.34-0.71,0.4-1.1c0.09-0.58,0.13-1.16,0.13-1.75c0.01-0.55-0.03-1.09-0.12-1.63
			c-0.05-0.39-0.2-0.77-0.43-1.09c-0.21-0.28-0.51-0.5-0.85-0.61c-0.45-0.14-0.91-0.2-1.38-0.18c-0.16,0-0.35,0-0.59,0.01
			c-0.22,0-0.43,0.02-0.64,0.05v6.62c0.26,0.13,0.52,0.23,0.8,0.31C55.75,12.57,56.08,12.61,56.41,12.6z"/>
		<path class="st1" d="M64.42,9.79c0.02,0.45,0.08,0.89,0.18,1.33c0.07,0.33,0.23,0.64,0.46,0.89c0.24,0.24,0.54,0.42,0.87,0.5
			c0.46,0.12,0.93,0.17,1.41,0.16c0.46,0,0.93-0.02,1.39-0.08c0.29-0.04,0.57-0.07,0.86-0.08c0.3,0,0.45,0.14,0.45,0.43v0.82
			c-0.41,0.16-0.84,0.27-1.28,0.34c-0.62,0.1-1.24,0.15-1.87,0.15c-0.66,0.01-1.31-0.08-1.93-0.27c-0.52-0.17-0.99-0.48-1.36-0.89
			c-0.39-0.46-0.66-1.01-0.79-1.6c-0.18-0.78-0.27-1.59-0.25-2.39c-0.01-0.81,0.07-1.61,0.25-2.4c0.13-0.59,0.4-1.15,0.77-1.63
			c0.34-0.42,0.78-0.73,1.28-0.92c0.57-0.2,1.17-0.3,1.78-0.28c0.63-0.02,1.27,0.09,1.86,0.32c0.45,0.19,0.84,0.49,1.13,0.87
			c0.28,0.38,0.47,0.82,0.57,1.28c0.11,0.52,0.16,1.04,0.16,1.57c0,0.37-0.02,0.73-0.06,1.1c-0.02,0.27-0.08,0.54-0.16,0.8
			L64.42,9.79z M68.55,8.4c0.01-0.13,0.02-0.23,0.02-0.29V7.85c0.04-0.65-0.09-1.3-0.38-1.89c-0.35-0.47-0.92-0.71-1.5-0.64
			c-0.38-0.01-0.75,0.06-1.09,0.21c-0.28,0.14-0.52,0.34-0.68,0.61c-0.18,0.3-0.31,0.62-0.36,0.97c-0.08,0.42-0.12,0.85-0.13,1.28
			L68.55,8.4z"/>
		<path class="st1" d="M78.86,13.76c-0.37,0.15-0.76,0.27-1.15,0.34c-0.49,0.1-0.99,0.15-1.48,0.15c-0.64,0.02-1.27-0.1-1.86-0.34
			c-0.49-0.22-0.92-0.56-1.23-1c-0.33-0.49-0.57-1.04-0.68-1.62c-0.15-0.72-0.22-1.46-0.21-2.2c-0.11-1.39,0.22-2.79,0.97-3.98
			c0.74-0.87,1.85-1.33,2.98-1.24c0.44,0,0.88,0.03,1.31,0.11c0.32,0.04,0.64,0.13,0.94,0.24c0.12,0.05,0.23,0.14,0.3,0.25
			c0.06,0.11,0.09,0.24,0.09,0.37v0.84c-0.42-0.07-0.81-0.12-1.19-0.15c-0.38-0.03-0.7-0.05-0.98-0.05
			c-0.38-0.01-0.76,0.05-1.12,0.17c-0.3,0.11-0.57,0.31-0.75,0.58c-0.22,0.33-0.36,0.7-0.42,1.08c-0.09,0.55-0.14,1.11-0.13,1.67
			c-0.01,0.61,0.04,1.22,0.16,1.82c0.07,0.39,0.23,0.77,0.45,1.1c0.18,0.25,0.43,0.45,0.72,0.55c0.32,0.1,0.66,0.15,1,0.15
			c0.36,0,0.72-0.02,1.08-0.07c0.25-0.04,0.5-0.06,0.75-0.07c0.23-0.03,0.44,0.13,0.47,0.35c0.01,0.04,0.01,0.08,0,0.12L78.86,13.76
			z"/>
		<path class="st1" d="M81.79,2.52c-0.33,0.03-0.66-0.06-0.93-0.24c-0.38-0.49-0.38-1.17,0-1.65c0.27-0.19,0.6-0.28,0.93-0.25
			c0.33-0.03,0.65,0.06,0.92,0.25c0.39,0.48,0.39,1.17,0,1.65C82.44,2.46,82.12,2.55,81.79,2.52z M82.77,14.03h-1.5
			c-0.31,0-0.47-0.15-0.47-0.45v-9.5h1.5c0.31,0,0.47,0.15,0.47,0.45V14.03z"/>
		<path class="st1" d="M87.81,14.2c-0.84,0.07-1.67-0.24-2.27-0.84c-0.53-0.66-0.79-1.48-0.74-2.33c-0.02-0.52,0.08-1.04,0.28-1.52
			c0.18-0.39,0.45-0.72,0.8-0.97c0.37-0.25,0.78-0.42,1.22-0.51c0.5-0.1,1.01-0.15,1.53-0.15h2.01V7.23
			c0.06-0.52-0.13-1.04-0.53-1.39c-0.55-0.29-1.18-0.42-1.8-0.37c-0.52,0-1.03,0.03-1.54,0.09c-0.3,0.04-0.6,0.07-0.9,0.09
			c-0.13,0.01-0.27-0.03-0.36-0.13c-0.07-0.09-0.11-0.21-0.11-0.32V4.35C85.91,4.2,86.43,4.08,86.96,4
			c0.58-0.09,1.17-0.14,1.76-0.14c0.63-0.02,1.25,0.07,1.86,0.24c0.45,0.13,0.85,0.37,1.19,0.69c0.3,0.31,0.52,0.68,0.64,1.1
			c0.13,0.46,0.19,0.94,0.18,1.43v6.7h-1.19c-0.22,0-0.36-0.05-0.41-0.15c-0.06-0.11-0.1-0.22-0.12-0.34l-0.08-0.59
			c-0.37,0.34-0.78,0.64-1.22,0.87C89.02,14.09,88.42,14.22,87.81,14.2z M88.57,9.28c-0.33-0.01-0.66,0.03-0.98,0.13
			c-0.23,0.07-0.44,0.19-0.61,0.35c-0.15,0.15-0.26,0.33-0.31,0.54c-0.06,0.22-0.09,0.45-0.09,0.68c-0.04,0.48,0.11,0.95,0.43,1.31
			c0.37,0.3,0.84,0.45,1.31,0.41c0.47,0.01,0.93-0.09,1.35-0.3c0.36-0.19,0.68-0.42,0.98-0.69V9.28L88.57,9.28z"/>
		<path class="st1" d="M96.9,11.72c-0.03,0.24,0.03,0.49,0.18,0.68c0.18,0.13,0.4,0.19,0.63,0.17c0.16,0,0.32,0.04,0.47,0.1
			c0.1,0.05,0.16,0.18,0.16,0.37v0.9c-0.21,0.07-0.43,0.11-0.64,0.15c-0.24,0.03-0.48,0.05-0.72,0.05c-0.34,0.01-0.68-0.05-1-0.19
			c-0.26-0.12-0.47-0.31-0.63-0.56c-0.17-0.28-0.28-0.6-0.32-0.93c-0.06-0.43-0.09-0.87-0.09-1.3V0h1.5
			c0.12-0.01,0.25,0.04,0.34,0.12c0.09,0.09,0.13,0.21,0.13,0.33L96.9,11.72z"/>
		<path class="st1" d="M101.06,2.52c-0.33,0.03-0.66-0.06-0.93-0.24c-0.38-0.49-0.38-1.17,0-1.65c0.57-0.34,1.28-0.34,1.85,0
			c0.39,0.48,0.39,1.17,0,1.65C101.71,2.46,101.38,2.55,101.06,2.52z M102.03,14.03h-1.51c-0.31,0-0.47-0.15-0.47-0.45v-9.5h1.51
			c0.31,0,0.47,0.15,0.47,0.45V14.03z"/>
		<path class="st1" d="M104.14,12.41c0.42,0.05,0.88,0.1,1.39,0.15s1,0.07,1.48,0.07c0.6,0.06,1.2-0.06,1.74-0.33
			c0.32-0.26,0.48-0.65,0.45-1.05c0.01-0.19-0.02-0.38-0.09-0.56c-0.07-0.16-0.18-0.3-0.32-0.39c-0.2-0.13-0.41-0.23-0.64-0.3
			c-0.27-0.09-0.61-0.19-1.03-0.29c-0.46-0.12-0.88-0.24-1.26-0.36c-0.35-0.11-0.69-0.28-0.99-0.5c-0.27-0.21-0.49-0.48-0.64-0.79
			c-0.17-0.39-0.24-0.82-0.23-1.24c-0.09-0.86,0.26-1.7,0.92-2.26c0.77-0.49,1.67-0.73,2.58-0.67c0.22,0,0.46,0.01,0.72,0.03
			s0.51,0.05,0.76,0.08c0.25,0.03,0.48,0.07,0.69,0.12c0.18,0.04,0.36,0.09,0.54,0.15c0.12,0.05,0.22,0.12,0.3,0.21
			c0.07,0.11,0.1,0.24,0.09,0.37v0.84c-0.59-0.07-1.1-0.11-1.53-0.15s-0.83-0.05-1.18-0.05c-0.53-0.04-1.07,0.06-1.55,0.29
			c-0.3,0.21-0.47,0.57-0.44,0.94c-0.01,0.2,0.03,0.4,0.12,0.58c0.09,0.16,0.22,0.29,0.37,0.38c0.21,0.12,0.43,0.22,0.66,0.28
			c0.27,0.08,0.6,0.17,0.98,0.26c0.44,0.12,0.85,0.24,1.23,0.36c0.35,0.11,0.68,0.27,0.98,0.49c0.28,0.21,0.5,0.48,0.64,0.8
			c0.16,0.41,0.24,0.84,0.22,1.28c0.01,0.5-0.08,0.99-0.26,1.45c-0.16,0.38-0.42,0.71-0.75,0.97c-0.35,0.26-0.74,0.44-1.16,0.53
			c-0.49,0.11-0.99,0.16-1.49,0.16c-0.23,0-0.49-0.01-0.77-0.03c-0.28-0.02-0.56-0.05-0.83-0.09c-0.27-0.04-0.53-0.08-0.76-0.13
			c-0.19-0.03-0.37-0.08-0.55-0.15c-0.13-0.04-0.24-0.13-0.31-0.24c-0.06-0.11-0.08-0.24-0.08-0.36L104.14,12.41z"/>
		<path class="st1" d="M117.86,13.97c-0.28,0.07-0.56,0.13-0.85,0.18c-0.27,0.04-0.55,0.06-0.83,0.06
			c-0.74,0.07-1.47-0.16-2.04-0.63c-0.47-0.55-0.7-1.26-0.64-1.98V5.65h-0.68c-0.31,0-0.47-0.15-0.47-0.45V4.08h1.19l0.1-2.58h1.37
			c0.31,0,0.47,0.15,0.47,0.45v2.13h1.91c0.12-0.01,0.25,0.04,0.34,0.12c0.09,0.09,0.14,0.21,0.13,0.33v1.11h-2.39v5.86
			c-0.02,0.28,0.05,0.57,0.18,0.82c0.16,0.22,0.43,0.33,0.7,0.29c0.22,0,0.41,0,0.56-0.01s0.29-0.01,0.42-0.01
			c0.35,0,0.53,0.15,0.53,0.45L117.86,13.97z"/>
	</g>
	<path class="st2" d="M723.15,463.1c-0.87,2.39-1.67,4.56-2.46,6.74c-2.9,7.96-5.81,15.93-8.73,23.89c-0.3,0.82-0.1,0.98,0.7,0.93
		c1.03-0.06,2.06-0.04,3.09-0.02c0.39,0.06,0.76-0.21,0.83-0.6c1.77-4.88,3.57-9.75,5.34-14.62c0.54-1.5,0.52-1.51,2.12-1.51
		c2.09,0,2.09,0,1.36,2c-1.71,4.67-3.41,9.35-5.14,14.02c-0.21,0.57-0.13,0.75,0.5,0.72c1.09-0.04,2.18-0.03,3.27,0
		c0.43,0.07,0.84-0.2,0.94-0.62c1.83-5.08,3.71-10.15,5.52-15.23c0.58-1.4-0.08-3-1.48-3.58c-0.36-0.15-0.76-0.22-1.15-0.21
		c-1.18-0.06-2.36-0.01-3.54-0.02c-0.78-0.01-0.8-0.18-0.51-0.89c0.75-1.87,1.42-3.78,2.11-5.68c0.68-1.84,1.37-3.67,2.02-5.53
		c0.17-0.5,0.46-0.6,0.93-0.62c12.45-0.22,22.71,9.69,22.93,22.14c0.18,10.45-6.84,19.65-16.97,22.23c-2.05,0.55-4.18,0.77-6.3,0.65
		c0.62-1.72,1.21-3.39,1.81-5.05c0.84-2.3,1.7-4.58,2.51-6.89c0.1-0.48,0.56-0.8,1.04-0.73c1.78,0.03,3.57,0.02,5.35,0.01
		c1.35,0.05,2.57-0.79,3-2.07c1.67-4.56,3.34-9.12,4.99-13.69c0.63-1.34,0.05-2.93-1.28-3.56c-0.34-0.16-0.71-0.24-1.08-0.25
		c-2.96-0.15-5.93-0.05-8.89-0.07c-0.45,0-0.52,0.32-0.64,0.64c-2.17,5.95-4.34,11.91-6.51,17.86c-1.53,4.2-3.08,8.38-4.58,12.59
		c-0.2,0.55-0.4,0.66-0.97,0.5c-12.03-3.27-19.13-15.66-15.86-27.69c1.56-5.74,5.32-10.62,10.46-13.6
		C719.53,464.31,721.3,463.57,723.15,463.1z"/>
	<path class="st3" d="M736.58,491.11c-1.83,0.02-1.84,0.02-1.2-1.74c1.32-3.63,2.66-7.25,3.95-10.89c0.09-0.54,0.61-0.91,1.16-0.82
		c0.01,0,0.01,0,0.02,0c0.6,0.06,1.21,0.06,1.81,0c0.81-0.08,0.82,0.22,0.59,0.86c-1.25,3.36-2.47,6.74-3.7,10.11
		c-0.09,0.26-0.17,0.52-0.27,0.77C738.33,491.09,738.33,491.09,736.58,491.11z"/>
</g>
</svg>
