<?xml version="1.0" encoding="utf-8"?>
<!-- Generator: Adobe Illustrator 24.2.3, SVG Export Plug-In . SVG Version: 6.00 Build 0)  -->
<svg version="1.1" id="Capa_1" xmlns="http://www.w3.org/2000/svg" xmlns:xlink="http://www.w3.org/1999/xlink" x="0px" y="0px"
	 viewBox="0 0 53.64 53.64" style="enable-background:new 0 0 53.64 53.64;" xml:space="preserve">
<style type="text/css">
	.st0{fill:#17A9EB;}
</style>
<g transform="translate(-4665.136 -3952.007)">
	<g transform="translate(4665.136 3952.007)">
		<path class="st0" d="M22.46,37.2l18.68-5.36v-2.07l-18.68,5.36V37.2z"/>
		<path class="st0" d="M22.46,34.25l18.68-5.36v-2.5l-18.68,5.36V34.25z"/>
		<path class="st0" d="M22.46,40.96l18.68-5.95v-2.29l-18.68,5.36V40.96z"/>
		<path class="st0" d="M22.46,30.86l18.68-5.36v-2.82l-18.68,5.68V30.86z"/>
		<path class="st0" d="M26.82,0C12.01,0,0,12.01,0,26.82c0,14.81,12.01,26.82,26.82,26.82s26.82-12.01,26.82-26.82S41.64,0,26.82,0
			L26.82,0z M41.99,35.5h-0.04c-0.05,0.1-0.14,0.18-0.25,0.22l-19.71,6.27l-10.2-9.88c-0.16-0.17-0.15-0.44,0.02-0.6
			c0.16-0.15,0.41-0.15,0.57-0.01l9.24,8.96v-2.6l-9.83-9.53c-0.16-0.17-0.15-0.44,0.02-0.6c0.16-0.15,0.41-0.15,0.57-0.01
			l9.24,8.96v-1.77l-9.83-9.53c-0.18-0.15-0.19-0.42-0.04-0.6c0.15-0.18,0.42-0.19,0.6-0.04c0.01,0.01,0.02,0.02,0.03,0.03
			l9.24,8.96v-2.2L11.79,22c-0.18-0.15-0.19-0.42-0.04-0.6c0.15-0.18,0.42-0.19,0.6-0.04c0.01,0.01,0.02,0.02,0.03,0.03l9.24,8.96
			v-2.2l-9.83-9.53c-0.18-0.15-0.19-0.42-0.04-0.6c0.15-0.18,0.42-0.19,0.6-0.04c0.01,0.01,0.02,0.02,0.03,0.03l9.84,9.53
			l18.68-5.68l-9.73-9.44c-0.16-0.17-0.16-0.43,0.01-0.6c0.16-0.16,0.42-0.16,0.58-0.01l10.06,9.77c0.12,0.13,0.18,0.3,0.16,0.48
			h0.02L41.99,35.5z"/>
	</g>
</g>
</svg>
