<?xml version="1.0" encoding="utf-8"?>
<!-- Generator: Adobe Illustrator 24.2.3, SVG Export Plug-In . SVG Version: 6.00 Build 0)  -->
<svg version="1.1" id="Capa_1" xmlns="http://www.w3.org/2000/svg" xmlns:xlink="http://www.w3.org/1999/xlink" x="0px" y="0px"
	 viewBox="0 0 55.08 55.08" style="enable-background:new 0 0 55.08 55.08;" xml:space="preserve">
<style type="text/css">
	.st0{fill:#17A9EB;}
	.st1{fill:#FFFFFF;}
</style>
<g transform="translate(-4664.786 -3770.293)">
	<path class="st0" d="M4692.33,3770.29c-15.21,0-27.54,12.33-27.54,27.54s12.33,27.54,27.54,27.54c15.21,0,27.54-12.33,27.54-27.54
		S4707.53,3770.29,4692.33,3770.29L4692.33,3770.29z M4710.02,3799.38c-0.1,0.24-0.35,0.38-0.61,0.33c-0.66-0.01-1.31,0-1.97-0.02
		c-0.24-0.01-0.33,0.06-0.38,0.3c-0.08,0.49-0.19,0.98-0.32,1.46c-0.83,3.05-2.68,5.72-5.23,7.58c-1.22,0.91-2.59,1.6-4.05,2.06
		c-7.35,2.78-15.57-0.93-18.35-8.28c-2.51-6.65,0.26-14.13,6.5-17.53c2.8-1.43,5.97-1.96,9.08-1.5c0.43,0.27,0.55,0.83,0.28,1.26
		c-0.05,0.08-0.11,0.15-0.18,0.21c-6.93-1.31-13.6,3.25-14.91,10.18c-1.31,6.93,3.25,13.6,10.18,14.91
		c1.18,0.22,2.39,0.28,3.58,0.16c4.32-0.66,7.89-3.73,9.17-7.91c0.3-0.93,0.46-1.91,0.48-2.89c-0.13-0.01-0.24-0.02-0.35-0.02
		c-0.61,0-1.22-0.01-1.83-0.01c-0.29,0.05-0.56-0.14-0.61-0.42c-0.04-0.21,0.05-0.42,0.23-0.53c1.37-1.36,2.74-2.71,4.11-4.07
		c0.34-0.34,0.58-0.33,0.93,0.02c1.35,1.36,2.69,2.73,4.04,4.09C4709.98,3798.93,4710.13,3799.11,4710.02,3799.38z"/>
	<g transform="translate(4686.781 3791.104)">
		<path class="st1" d="M0,11.56C0.09,9.4,1.31,7.45,3.21,6.43c1.48,1.25,3.64,1.26,5.13,0.02c1.94,0.98,3.18,2.94,3.23,5.11L0,11.56
			z"/>
		<path class="st1" d="M2.43,3.37C2.43,1.51,3.94,0,5.8,0s3.37,1.51,3.37,3.38S7.66,6.75,5.8,6.74c0,0,0,0-0.01,0
			C3.94,6.75,2.44,5.27,2.43,3.42C2.43,3.4,2.43,3.39,2.43,3.37z"/>
	</g>
</g>
</svg>
