<?xml version="1.0" encoding="utf-8"?>
<!-- Generator: Adobe Illustrator 24.2.3, SVG Export Plug-In . SVG Version: 6.00 Build 0)  -->
<svg version="1.1" id="Capa_1" xmlns="http://www.w3.org/2000/svg" xmlns:xlink="http://www.w3.org/1999/xlink" x="0px" y="0px"
	 viewBox="0 0 60 60" style="enable-background:new 0 0 60 60;" xml:space="preserve">
<style type="text/css">
	.st0{fill:#17A9EB;}
</style>
<g>
	<path class="st0" d="M41.5,36.89c-1.47,0-2.66,1.17-2.66,2.64c0,1.47,1.19,2.66,2.65,2.66c1.45,0,2.64-1.19,2.65-2.63
		C44.14,38.08,42.97,36.89,41.5,36.89z"/>
	<path class="st0" d="M21.42,36.89c-1.47-0.01-2.67,1.16-2.68,2.63c-0.01,1.44,1.18,2.65,2.61,2.67c1.46,0.02,2.67-1.16,2.69-2.62
		C24.05,38.09,22.88,36.9,21.42,36.89z"/>
	<path class="st0" d="M29.97,1.02C13.96,1.02,0.98,14,0.98,30.01S13.96,59,29.97,59s28.99-12.98,28.99-28.99S45.98,1.02,29.97,1.02z
		 M13.06,22.1c1.09-0.01,2.19,0,3.28,0c0.57,0,1.15,0,1.72,0c1.63,0,3.27,0,4.9,0c0.42,0,0.68,0.17,0.77,0.48
		c0.12,0.38-0.09,0.77-0.47,0.88c-0.11,0.03-0.23,0.04-0.35,0.04c-3.25,0-6.49,0-9.74,0c-0.49,0-0.79-0.22-0.84-0.6
		C12.27,22.43,12.57,22.1,13.06,22.1z M26.17,25.43c0.61,0,0.95,0.25,0.95,0.69c0,0.45-0.33,0.7-0.94,0.7c-1.88,0-3.76,0-5.64,0
		c-1.89,0-3.78,0-5.67,0c-0.17,0-0.34-0.02-0.49-0.08c-0.28-0.12-0.4-0.37-0.38-0.67c0.02-0.29,0.17-0.51,0.45-0.59
		c0.15-0.04,0.31-0.05,0.47-0.05C18.67,25.43,22.42,25.43,26.17,25.43z M11.23,28.98c0.13-0.02,0.25-0.01,0.38-0.01
		c3.17,0,6.35,0,9.52,0c0.63,0,0.96,0.25,0.96,0.71c-0.01,0.45-0.34,0.69-0.95,0.69c-1.59,0-3.18,0-4.78,0c-1.63,0-3.27,0-4.9,0
		c-0.46,0-0.75-0.22-0.8-0.6C10.6,29.39,10.85,29.04,11.23,28.98z M50.57,39.59c-0.12,0.48-0.34,0.64-0.84,0.64
		c-1.32,0-2.63,0-3.95-0.01c-0.22,0-0.31,0.05-0.37,0.28c-0.46,1.82-2.05,3.07-3.89,3.08c-1.85,0.01-3.46-1.22-3.94-3.03
		c-0.03-0.1-0.06-0.2-0.1-0.33c-0.12,0-0.24,0-0.35,0c-3.79,0-7.58,0-11.37-0.01c-0.29,0-0.39,0.1-0.47,0.36
		c-0.49,1.73-1.9,2.87-3.67,3c-1.67,0.12-3.27-0.89-3.97-2.5c-0.05-0.12-0.09-0.24-0.13-0.36c-0.14-0.49-0.14-0.49-0.67-0.49
		c-0.96,0-1.91,0-2.87,0c-0.64,0-0.93-0.37-0.77-1c0.17-0.68,0.34-1.36,0.51-2.04c0.02-0.09,0.03-0.18,0.06-0.31
		c-0.81,0-1.59,0-2.38,0c-0.42,0-0.71-0.25-0.75-0.63c-0.01-0.1,0.01-0.21,0.03-0.31c0.27-1.07,0.53-2.14,0.81-3.21
		c0.11-0.44,0.47-0.67,0.84-0.58c0.42,0.1,0.62,0.49,0.51,0.95c-0.17,0.7-0.35,1.4-0.52,2.1c-0.02,0.08-0.03,0.16-0.05,0.29
		c0.34,0,0.66,0,0.97,0c0.48,0,0.96-0.01,1.43,0c0.51,0.01,0.81,0.42,0.69,0.91c-0.2,0.79-0.39,1.58-0.6,2.41
		c0.11,0.01,0.2,0.03,0.29,0.03c0.69,0,1.38,0,2.07,0c0.2,0,0.29-0.04,0.35-0.26c0.45-1.81,2.02-3.06,3.85-3.09
		c1.87-0.03,3.46,1.15,3.97,2.98c0.09,0.32,0.23,0.38,0.52,0.38c2.14-0.01,4.29-0.01,6.43,0c0.24,0,0.35-0.06,0.41-0.31
		c0.83-3.37,1.68-6.73,2.52-10.1c0.66-2.65,1.32-5.29,1.98-7.94c0.03-0.1,0.04-0.2,0.07-0.35c-0.17,0-0.3,0-0.44,0
		c-6.72,0-13.44,0-20.16,0c-0.62,0-0.95-0.24-0.96-0.69c-0.01-0.46,0.33-0.72,0.96-0.72c7.12,0,14.25,0,21.37,0
		c0.66,0,0.95,0.36,0.79,1.01c-0.19,0.76-0.38,1.52-0.58,2.32c0.14,0.01,0.25,0.02,0.36,0.02c2.04,0,4.08,0,6.12,0
		c0.52,0,0.68,0.12,0.88,0.61c1.02,2.56,2.05,5.12,3.08,7.68c0.06,0.16,0.21,0.32,0.37,0.39c0.88,0.46,1.78,0.9,2.67,1.34
		c0.52,0.26,0.63,0.48,0.49,1.05C51.64,35.31,51.1,37.45,50.57,39.59z"/>
	<path class="st0" d="M50.47,33.08c-0.84-0.41-1.68-0.82-2.5-1.26c-0.19-0.1-0.37-0.29-0.45-0.49c-1.02-2.51-2.03-5.02-3.02-7.53
		c-0.09-0.22-0.18-0.31-0.43-0.31c-1.97,0.01-3.95,0.01-5.92,0c-0.24,0-0.33,0.09-0.38,0.3c-0.29,1.21-0.6,2.41-0.9,3.61
		c-0.74,2.94-1.48,5.89-2.21,8.83c-0.21,0.84-0.42,1.69-0.64,2.59c0.16,0,0.28,0,0.39,0c0.89,0,1.78-0.01,2.67,0.01
		c0.3,0.01,0.47-0.06,0.51-0.38c0.03-0.21,0.12-0.41,0.21-0.6c0.77-1.62,2.33-2.51,4.11-2.35c1.66,0.15,3.05,1.36,3.5,3.07
		c0.05,0.18,0.11,0.26,0.32,0.26c1.1-0.01,2.21-0.01,3.31,0c0.21,0,0.29-0.07,0.34-0.27c0.42-1.7,0.85-3.4,1.28-5.09
		C50.72,33.25,50.65,33.17,50.47,33.08z"/>
</g>
</svg>
