<?xml version="1.0" encoding="utf-8"?>
<!-- Generator: Adobe Illustrator 24.2.3, SVG Export Plug-In . SVG Version: 6.00 Build 0)  -->
<svg version="1.1" id="Capa_1" xmlns="http://www.w3.org/2000/svg" xmlns:xlink="http://www.w3.org/1999/xlink" x="0px" y="0px"
	 viewBox="0 0 63.55 63.55" style="enable-background:new 0 0 63.55 63.55;" xml:space="preserve">
<style type="text/css">
	.st0{fill:#17A9EB;}
	.st1{fill:#FFFFFF;}
</style>
<g transform="translate(-362.034 -454.45)">
	<path class="st0" d="M393.81,454.45c-17.55,0-31.77,14.23-31.77,31.78S376.26,518,393.81,518c17.55,0,31.77-14.23,31.77-31.78
		S411.36,454.45,393.81,454.45C393.81,454.45,393.81,454.45,393.81,454.45z"/>
	<g transform="translate(376.97 472.379)">
		<path class="st1" d="M17.94,29.81c-0.91,0.03-1.4-0.51-1.17-1.34c0.65-2.34,1.33-4.68,2.04-7c0.16-0.37,0.4-0.7,0.71-0.96
			c5.13-5.15,10.27-10.29,15.42-15.42c1.13-1.13,1.37-1.13,2.51,0.01c1.41,1.41,2.8,2.83,4.23,4.22c0.58,0.38,0.74,1.16,0.36,1.74
			c-0.09,0.13-0.2,0.24-0.32,0.33c-5.3,5.29-10.6,10.58-15.9,15.88c-0.23,0.23-0.51,0.41-0.82,0.52c-2.22,0.67-4.45,1.31-6.68,1.95
			C18.19,29.77,18.07,29.79,17.94,29.81z M36.23,5.95c-5.1,5.21-10.11,10.31-15.09,15.43c-0.82,0.69-0.92,1.92-0.22,2.74
			c0.09,0.1,0.19,0.2,0.3,0.28c0.44,0.39,0.84,0.81,1.22,1.26c0.87,1.22,1.83,0.75,2.78,0.2c0.29-0.21,0.55-0.46,0.78-0.74
			c3.05-3.11,6.1-6.23,9.17-9.33c1.79-1.8,3.61-3.57,5.36-5.29L36.23,5.95z"/>
		<path class="st1" d="M22.95,5.03c-0.24,0.08-0.47,0.19-0.68,0.33c-1.6,1.32-3.28,0.99-4.78,0c-0.62-0.6-1.05-1.36-1.24-2.2
			c-0.12-0.7-0.77-1.18-1.47-1.1c-0.9,0.01-1.46,0.26-1.52,1.16c-0.15,2.15-1.89,2.61-3.42,3.2C9.43,6.57,8.78,6.24,8.3,6.02
			c-1.95-0.88-1.95-0.9-3.29,0.87c0.09,0.23,0.2,0.45,0.34,0.66c1.15,1.38,1.15,3.39,0,4.78c-0.44,0.65-1.49,0.93-2.3,1.29
			c-0.57,0.25-0.96,0.44-1,1.21c-0.15,0.7,0.29,1.39,0.99,1.54c0.07,0.02,0.15,0.03,0.22,0.03c0.67,0.14,1.56,0.29,1.89,0.76
			c0.66,0.93,1.1,2,1.3,3.12c0.1,0.68-0.47,1.5-0.85,2.2c-0.33,0.6-0.42,1.04,0.17,1.52c0.56,0.45,1.01,1.17,1.85,0.47
			c0.14-0.11,0.35-0.14,0.49-0.26c1.62-1.34,3.08-0.25,4.48,0.41c0.41,0.19,0.58,0.97,0.79,1.51c0.57,1.49,0.55,1.5,1.94,1.74v1.88
			c-0.73,0.05-1.47,0.04-2.2-0.04c-0.4-0.13-0.74-0.42-0.93-0.79c-0.29-0.64-0.53-1.29-0.74-1.96c-0.27-0.84-1.17-1.3-2.01-1.03
			c-0.1,0.03-0.19,0.07-0.29,0.12c-0.09,0.06-0.19,0.11-0.29,0.16c-0.88,0.28-2.06,1.04-2.59,0.72c-1.26-0.81-2.35-1.87-3.2-3.1
			c-0.27-0.37,0.26-1.41,0.55-2.09c0.32-0.77,0.95-1.48,0.21-2.3c-0.33-0.39-0.72-0.73-1.15-0.99c-0.43-0.2-0.9-0.34-1.37-0.41
			C0.54,17.97-0.05,17.31,0,16.53c0-0.05,0.01-0.09,0.02-0.14c0.02-0.26-0.01-0.52-0.02-0.78c-0.02-3.05-0.02-3.05,2.81-4.14
			c0.85-0.23,1.35-1.11,1.12-1.97c-0.04-0.14-0.1-0.27-0.17-0.4C3.74,9.09,3.73,9.06,3.71,9.02C3.39,8.11,2.56,6.9,2.87,6.34
			C3.73,5.1,4.76,3.99,5.94,3.06C6.12,2.89,6.65,2.98,6.97,3.1c0.62,0.22,1.21,0.54,1.81,0.82c0.76,0.44,1.74,0.18,2.19-0.58
			c0.07-0.11,0.12-0.24,0.15-0.37c1.02-3.01,1.02-3.01,4.26-2.95c1.98,0.03,1.98,0.03,2.66,1.92c0.14,0.46,0.3,0.91,0.5,1.35
			c0.59,0.73,1.65,0.89,2.42,0.36c2.47-1.24,2.47-1.24,4.36,0.56c1.91,1.82,1.95,1.84,0.74,4.22c-0.58,1.15-0.55,1.61,0.57,2.76
			c-0.01,0.06,0,0.15-0.04,0.19c-1.7,1.84-1.63,1.8-2.72-0.42c-0.53-0.89-0.53-1.99,0.01-2.87C24.8,6.39,24.74,6.35,22.95,5.03z"/>
		<path class="st1" d="M21.62,15.03c0.07,0.94-0.33,1.86-1.08,2.44c-1.13,1.1-2.08,2.37-3.17,3.51c-0.33,0.29-0.73,0.47-1.16,0.54
			c-3.64,0.73-7.19-1.62-7.93-5.27c-0.73-3.64,1.62-7.19,5.27-7.93c3.64-0.73,7.19,1.62,7.93,5.27
			C21.59,14.07,21.63,14.55,21.62,15.03L21.62,15.03z M14.92,19.53c2.55,0,4.62-2.07,4.62-4.63s-2.07-4.62-4.63-4.62
			c-2.55,0-4.62,2.07-4.62,4.63c0,0.03,0,0.06,0,0.09C10.35,17.51,12.4,19.52,14.92,19.53z"/>
	</g>
</g>
</svg>
