<?xml version="1.0" encoding="utf-8"?>
<!-- Generator: Adobe Illustrator 24.2.3, SVG Export Plug-In . SVG Version: 6.00 Build 0)  -->
<svg version="1.1" id="Capa_1" xmlns="http://www.w3.org/2000/svg" xmlns:xlink="http://www.w3.org/1999/xlink" x="0px" y="0px"
	 viewBox="0 0 56.4 56.4" style="enable-background:new 0 0 56.4 56.4;" xml:space="preserve">
<style type="text/css">
	.st0{fill:#6DD302;}
</style>
<g transform="translate(-5027.186 -3771.293)">
	<g transform="translate(5027.186 3771.293)">
		<path class="st0" d="M39.01,11.95c-1.15-0.75-2.49-1.14-3.86-1.14c-1.2,0.01-2.39,0.3-3.45,0.85l-17.58,9.03
			c-2.55,1.29-4.21,3.86-4.34,6.72c-0.17,2.6,1.07,5.1,3.25,6.52l16.51,10.7c2.2,1.41,4.98,1.53,7.28,0.31
			c2.56-1.28,4.23-3.85,4.36-6.71l0.12-2.17c-0.08,0.02-0.16,0.03-0.25,0.03H37.5l1-3.22l0.83,0.73c0.04,0.05,0.09,0.09,0.14,0.12
			c0.26,0.14,0.57,0.16,0.84,0.06c0.04-0.01,0.08-0.03,0.12-0.05c0.09-0.05,0.16-0.13,0.21-0.22c0.06-0.15,0.02-0.32-0.09-0.43
			l-1.4-1.56c-0.11-0.11-0.26-0.18-0.41-0.19c-0.05-0.01-0.1-0.01-0.15,0c-0.12,0.01-0.24,0.05-0.36,0.09l-2.87,1.1l-0.06,0.02
			c-0.15,0.06-0.28,0.15-0.39,0.26c-0.05,0.05-0.08,0.11-0.1,0.17c-0.02,0.06-0.01,0.12,0.01,0.18c0.02,0.04,0.06,0.08,0.1,0.1
			c0.06,0.04,0.14,0.06,0.21,0.07c0.21,0.02,0.41,0,0.61-0.08l1.6-0.51l-2.06,3.36h-0.7c-0.11,0-0.23-0.02-0.34-0.05
			c-0.28-0.07-0.52-0.24-0.67-0.48c-0.16-0.24-0.22-0.54-0.17-0.83l0.84-3.59l0.01-0.05c0.1-0.29,0.28-0.54,0.52-0.73
			c0.22-0.18,0.49-0.28,0.78-0.29h4.55c0.03,0,0.07,0,0.1,0.01c0.57,0.08,1.02,0.51,1.14,1.06l0.2,0.83l0.72-13.48
			C42.45,15.9,41.21,13.39,39.01,11.95z M23.52,17.18h3.28v1.12h-2.15v1.09h2.15v0.21c0.05-0.36,0.16-0.71,0.34-1.02
			c0.28-0.47,0.68-0.86,1.16-1.12c0.5-0.28,1.06-0.43,1.63-0.42c1.01,0,1.96,0.44,2.62,1.21l-0.8,0.76
			c-0.46-0.54-1.13-0.85-1.84-0.86c-1.11-0.02-2.03,0.87-2.04,1.98c0,0.02,0,0.04,0,0.06c-0.01,0.37,0.08,0.74,0.26,1.07
			c0.17,0.31,0.43,0.56,0.74,0.73c0.32,0.18,0.69,0.27,1.06,0.27c0.31,0,0.62-0.06,0.91-0.19c0.34-0.17,0.65-0.4,0.91-0.68
			l0.78,0.81c-0.36,0.37-0.79,0.68-1.26,0.9c-0.43,0.17-0.89,0.26-1.35,0.25c-0.86,0.03-1.69-0.29-2.3-0.89
			c-0.52-0.53-0.83-1.23-0.87-1.97h-2.1v1.58h2.15v1.13h-3.28V17.18z M29.76,25.66v1.14h-2.23v1.65h2.23v1.17h-3.42v-6.26h3.42v1.17
			h-2.23v1.13L29.76,25.66z M22.24,23.36h1.26c0.5-0.03,1,0.04,1.48,0.19c0.3,0.12,0.54,0.34,0.71,0.61
			c0.18,0.31,0.28,0.66,0.27,1.02c0.01,0.37-0.09,0.73-0.3,1.03c-0.23,0.3-0.54,0.52-0.89,0.63l1.48,2.78h-1.3l-1.41-2.65h-0.11
			v2.65h-1.19L22.24,23.36z M15.43,26.46c-0.01-0.8,0.28-1.57,0.82-2.16c0.64-0.72,1.57-1.13,2.54-1.09c0.52,0,1.04,0.1,1.53,0.3
			c0.45,0.21,0.85,0.51,1.17,0.88l-0.84,0.83c-0.47-0.53-1.15-0.84-1.86-0.84c-0.58-0.01-1.14,0.21-1.55,0.61
			c-0.41,0.39-0.63,0.93-0.62,1.49c-0.01,0.58,0.22,1.14,0.65,1.54c0.43,0.42,1,0.65,1.6,0.63c0.36,0.01,0.73-0.08,1.04-0.26
			c0.3-0.2,0.54-0.48,0.68-0.81h-1.81v-1.12h3.15l0.01,0.26c0,0.55-0.15,1.09-0.43,1.56c-0.26,0.47-0.64,0.85-1.1,1.12
			c-0.49,0.27-1.03,0.4-1.59,0.39c-0.61,0.01-1.2-0.14-1.74-0.42c-0.51-0.28-0.93-0.7-1.21-1.2C15.59,27.63,15.43,27.05,15.43,26.46
			L15.43,26.46z M19.45,35.79c-0.36,0.32-0.83,0.49-1.32,0.47c-0.39,0.01-0.77-0.1-1.1-0.31c-0.35-0.25-0.63-0.58-0.81-0.97
			l0.95-0.57c0.29,0.52,0.61,0.78,0.98,0.78c0.18,0.01,0.35-0.05,0.49-0.17c0.12-0.09,0.2-0.23,0.2-0.39c0-0.15-0.06-0.29-0.15-0.4
			c-0.2-0.23-0.42-0.43-0.66-0.61c-0.47-0.35-0.89-0.75-1.25-1.21c-0.18-0.25-0.28-0.54-0.28-0.85c0-0.4,0.17-0.78,0.47-1.05
			c0.32-0.29,0.73-0.45,1.16-0.44c0.29,0,0.58,0.07,0.85,0.2c0.33,0.19,0.63,0.44,0.87,0.74l-0.84,0.73
			c-0.18-0.34-0.52-0.56-0.9-0.61c-0.13-0.01-0.26,0.04-0.36,0.12c-0.09,0.06-0.14,0.16-0.14,0.27c0,0.1,0.04,0.2,0.1,0.28
			c0.26,0.27,0.53,0.52,0.83,0.76c0.43,0.36,0.69,0.58,0.78,0.67c0.2,0.19,0.36,0.41,0.49,0.66c0.1,0.22,0.15,0.45,0.14,0.68
			C19.98,35.05,19.79,35.48,19.45,35.79L19.45,35.79z M21.25,36.11h-1.12v-5.87h1.12V36.11z M27.2,34.84
			c-0.25,0.44-0.61,0.8-1.04,1.05c-0.46,0.25-0.98,0.37-1.5,0.36c-0.57,0.01-1.14-0.13-1.65-0.4c-0.48-0.26-0.88-0.65-1.15-1.13
			c-0.28-0.48-0.42-1.03-0.42-1.58c-0.01-0.75,0.27-1.48,0.78-2.03c0.61-0.68,1.49-1.06,2.4-1.03c0.5,0,0.99,0.09,1.45,0.28
			c0.42,0.19,0.8,0.47,1.11,0.82l-0.8,0.78c-0.45-0.5-1.09-0.79-1.76-0.79c-0.55-0.01-1.08,0.19-1.47,0.58
			c-0.39,0.36-0.6,0.87-0.59,1.4c-0.01,0.55,0.21,1.07,0.61,1.44c0.4,0.39,0.95,0.61,1.51,0.59c0.35,0.01,0.69-0.07,0.99-0.24
			c0.29-0.18,0.51-0.45,0.65-0.76H24.6v-1.05h2.98l0.01,0.25C27.6,33.9,27.46,34.4,27.2,34.84L27.2,34.84z M32.56,36.11h-1.09
			l-2.53-3.85v3.85h-1.13v-5.87h1.08l2.54,3.87v-3.87h1.13L32.56,36.11z M33.43,24.53h-2.23v1.13h2.23v1.14h-2.23v1.65h2.23v1.17
			h-3.42v-6.26h3.42L33.43,24.53z M38.68,29.62h-1.15l-2.67-4.11v4.11h-1.19v-6.26h1.14l2.68,4.12v-4.12h1.19V29.62z M37.78,22.44
			c-1.23,1.22-3.22,1.21-4.44-0.02c0,0-0.01-0.01-0.01-0.01c-1.23-1.24-1.21-3.24,0.03-4.47c0.59-0.58,1.39-0.91,2.22-0.91
			c0.83-0.01,1.62,0.32,2.2,0.92c0.6,0.59,0.94,1.41,0.92,2.25C38.7,21.05,38.37,21.85,37.78,22.44L37.78,22.44z"/>
		<path class="st0" d="M35.55,18.15c-0.53-0.01-1.03,0.2-1.4,0.58c-0.38,0.39-0.59,0.93-0.57,1.48c-0.03,0.61,0.24,1.2,0.72,1.58
			c0.36,0.3,0.81,0.46,1.28,0.45c0.52,0.01,1.03-0.21,1.39-0.59c0.77-0.82,0.77-2.09,0-2.91C36.6,18.36,36.09,18.14,35.55,18.15z"/>
		<path class="st0" d="M24.59,25.66c0.15-0.12,0.23-0.3,0.21-0.49c0-0.13-0.03-0.25-0.11-0.36c-0.07-0.1-0.17-0.18-0.28-0.22
			c-0.21-0.06-0.43-0.08-0.65-0.07h-0.33v1.29h0.37C24.08,25.83,24.35,25.78,24.59,25.66z"/>
		<path class="st0" d="M28.2,0C12.63,0,0,12.63,0,28.2s12.63,28.2,28.2,28.2c15.57,0,28.2-12.63,28.2-28.2S43.78,0,28.2,0L28.2,0z
			 M43.47,38.74c-0.17,3.55-2.24,6.73-5.42,8.33c-1.33,0.68-2.8,1.04-4.29,1.05c-1.74,0-3.44-0.5-4.89-1.45L11.66,35.51
			c-2.75-1.8-4.33-4.94-4.12-8.22c0.16-3.55,2.22-6.74,5.39-8.35l18.32-9.41c4.42-2.37,9.91-0.71,12.28,3.71
			c0.81,1.51,1.17,3.22,1.05,4.93L43.47,38.74z"/>
	</g>
</g>
</svg>
