<?xml version="1.0" encoding="utf-8"?>
<!-- Generator: Adobe Illustrator 24.2.3, SVG Export Plug-In . SVG Version: 6.00 Build 0)  -->
<svg version="1.1" id="Capa_1" xmlns="http://www.w3.org/2000/svg" xmlns:xlink="http://www.w3.org/1999/xlink" x="0px" y="0px"
	 viewBox="0 0 208.05 81.49" style="enable-background:new 0 0 208.05 81.49;" xml:space="preserve">
<style type="text/css">
	.st0{fill:#444444;}
	.st1{fill:#202124;}
	.st2{fill:none;stroke:#202124;stroke-miterlimit:10;}
	.st3{fill:#4090C1;}
</style>
<g transform="translate(-1346.481 -150.966)">
	<path class="st0" d="M1354.09,218.09c0.26,0,0.4,0.13,0.4,0.38v11.05h-1.34c-0.11,0.01-0.21-0.03-0.29-0.1
		c-0.07-0.07-0.11-0.18-0.11-0.28v-4.75h-4.24v5.13h-1.33c-0.27,0-0.4-0.13-0.4-0.38v-11.05h1.34c0.1,0,0.21,0.03,0.29,0.1
		c0.07,0.07,0.11,0.18,0.11,0.28v4.47h4.24v-4.85L1354.09,218.09z"/>
	<path class="st0" d="M1357.19,229.52c-0.26,0-0.4-0.13-0.4-0.38v-10.85c0.48-0.09,1.03-0.16,1.63-0.22
		c0.61-0.06,1.17-0.09,1.7-0.09c1.05-0.09,2.1,0.22,2.94,0.86c0.7,0.78,1.04,1.82,0.94,2.87c0.01,0.59-0.07,1.17-0.26,1.73
		c-0.15,0.43-0.39,0.83-0.72,1.15c-0.32,0.3-0.71,0.53-1.13,0.65c-0.48,0.14-0.98,0.21-1.47,0.21c-0.3,0-0.61-0.02-0.91-0.06
		c-0.32-0.04-0.65-0.1-1.01-0.17v4.3L1357.19,229.52z M1358.5,223.9c0.29,0.05,0.57,0.1,0.86,0.14c0.28,0.04,0.57,0.06,0.86,0.06
		c0.31,0.01,0.62-0.03,0.92-0.11c0.25-0.06,0.47-0.19,0.65-0.38c0.19-0.21,0.32-0.46,0.39-0.73c0.18-0.79,0.17-1.6-0.01-2.39
		c-0.07-0.27-0.22-0.52-0.42-0.72c-0.19-0.17-0.43-0.29-0.68-0.35c-0.3-0.06-0.61-0.09-0.92-0.09c-0.33,0-0.64,0.01-0.93,0.03
		c-0.29,0.02-0.53,0.05-0.72,0.08L1358.5,223.9z"/>
	<path class="st0" d="M1369.6,229.52c-0.27,0-0.4-0.13-0.4-0.38v-11.05h1.34c0.11,0,0.21,0.03,0.29,0.1
		c0.07,0.07,0.11,0.18,0.11,0.28v9.6h4.06c0.27,0,0.4,0.13,0.4,0.38v1.07L1369.6,229.52z"/>
	<path class="st0" d="M1379.05,229.67c-0.71,0.06-1.41-0.2-1.91-0.71c-0.45-0.55-0.67-1.25-0.63-1.96
		c-0.01-0.44,0.07-0.88,0.24-1.29c0.15-0.33,0.38-0.61,0.68-0.82c0.31-0.21,0.66-0.36,1.03-0.43c0.42-0.08,0.85-0.13,1.29-0.12h1.7
		v-0.56c0.05-0.44-0.11-0.88-0.45-1.17c-0.46-0.25-0.99-0.36-1.52-0.31c-0.43,0-0.87,0.02-1.3,0.07c-0.25,0.04-0.5,0.06-0.76,0.07
		c-0.11,0.01-0.23-0.03-0.31-0.11c-0.06-0.08-0.09-0.17-0.09-0.27v-0.71c0.43-0.13,0.86-0.23,1.3-0.3c0.49-0.08,0.99-0.12,1.48-0.12
		c0.53-0.01,1.06,0.06,1.57,0.21c0.38,0.11,0.72,0.31,1.01,0.59c0.25,0.26,0.44,0.58,0.54,0.92c0.11,0.39,0.16,0.79,0.16,1.2v5.66
		h-1c-0.19,0-0.3-0.04-0.35-0.12c-0.05-0.09-0.08-0.19-0.1-0.29l-0.06-0.49c-0.31,0.29-0.65,0.54-1.03,0.73
		C1380.07,229.57,1379.56,229.68,1379.05,229.67z M1379.69,225.51c-0.28-0.01-0.56,0.03-0.82,0.11c-0.19,0.06-0.37,0.16-0.52,0.3
		c-0.13,0.13-0.22,0.28-0.26,0.45c-0.05,0.19-0.08,0.38-0.07,0.58c-0.03,0.4,0.1,0.8,0.36,1.1c0.31,0.25,0.7,0.38,1.1,0.35
		c0.39,0.01,0.79-0.08,1.14-0.26c0.3-0.16,0.58-0.35,0.82-0.59v-2.04L1379.69,225.51z"/>
	<path class="st0" d="M1389.16,229.47c-0.24,0.06-0.48,0.11-0.72,0.15c-0.23,0.03-0.47,0.05-0.7,0.05
		c-0.62,0.06-1.24-0.13-1.72-0.53c-0.4-0.46-0.59-1.06-0.54-1.66v-5.03h-0.58c-0.27,0-0.4-0.13-0.4-0.38v-0.94h1.01l0.08-2.18h1.15
		c0.27,0,0.4,0.13,0.4,0.38v1.8h1.62c0.11-0.01,0.21,0.03,0.29,0.1c0.07,0.07,0.11,0.18,0.11,0.28v0.94h-2.01v4.95
		c-0.01,0.24,0.04,0.48,0.15,0.69c0.14,0.18,0.37,0.28,0.59,0.25c0.19,0,0.34,0,0.47-0.01s0.24-0.01,0.35-0.01
		c0.3,0,0.44,0.13,0.44,0.38L1389.16,229.47z"/>
	<path class="st0" d="M1391.91,225.94c0.01,0.38,0.06,0.75,0.15,1.12c0.06,0.28,0.2,0.54,0.39,0.75c0.2,0.2,0.46,0.35,0.73,0.42
		c0.39,0.1,0.79,0.14,1.19,0.13c0.39,0,0.78-0.02,1.17-0.07c0.24-0.03,0.48-0.06,0.72-0.07c0.25,0,0.38,0.12,0.38,0.36v0.69
		c-0.35,0.13-0.71,0.23-1.08,0.29c-0.52,0.09-1.05,0.13-1.57,0.12c-0.55,0.01-1.1-0.07-1.63-0.23c-0.44-0.14-0.84-0.4-1.15-0.75
		c-0.33-0.39-0.55-0.86-0.67-1.35c-0.16-0.66-0.23-1.34-0.21-2.02c-0.01-0.68,0.06-1.36,0.21-2.03c0.11-0.5,0.34-0.97,0.65-1.38
		c0.28-0.35,0.66-0.62,1.08-0.77c0.48-0.17,0.99-0.25,1.5-0.24c0.54-0.02,1.07,0.07,1.57,0.27c0.38,0.16,0.71,0.41,0.96,0.73
		c0.24,0.32,0.4,0.69,0.48,1.08c0.09,0.44,0.13,0.88,0.13,1.33c0,0.31-0.02,0.62-0.05,0.92c-0.02,0.23-0.06,0.46-0.13,0.68
		L1391.91,225.94z M1395.39,224.77c0.01-0.11,0.02-0.19,0.02-0.25v-0.21c0.03-0.55-0.08-1.1-0.32-1.59c-0.29-0.4-0.78-0.6-1.26-0.54
		c-0.32-0.01-0.63,0.05-0.92,0.18c-0.24,0.11-0.44,0.29-0.58,0.51c-0.15,0.25-0.25,0.53-0.3,0.82c-0.06,0.36-0.1,0.72-0.11,1.08
		L1395.39,224.77z"/>
	<path class="st0" d="M1403.8,229.52c-0.15,0-0.25-0.04-0.3-0.12c-0.05-0.08-0.08-0.16-0.11-0.25c-0.22-0.55-0.47-1.09-0.75-1.62
		c-0.29-0.54-0.64-1.06-1.03-1.54c-0.45,0.55-0.84,1.15-1.15,1.79c-0.31,0.62-0.56,1.2-0.76,1.73h-1.16c-0.1,0-0.19-0.02-0.28-0.06
		c-0.09-0.04-0.14-0.14-0.13-0.24c0.01-0.14,0.05-0.27,0.12-0.4c0.28-0.65,0.61-1.27,0.99-1.87c0.41-0.63,0.87-1.22,1.39-1.77
		c-0.22-0.25-0.45-0.54-0.7-0.87s-0.49-0.67-0.72-1.03s-0.44-0.72-0.63-1.1c-0.18-0.35-0.33-0.7-0.45-1.07h1.45
		c0.11-0.01,0.21,0.03,0.29,0.1c0.07,0.08,0.12,0.17,0.16,0.26c0.13,0.32,0.26,0.6,0.37,0.85c0.11,0.25,0.23,0.48,0.36,0.7
		c0.13,0.22,0.26,0.44,0.41,0.67s0.32,0.47,0.52,0.74c0.38-0.5,0.72-1.02,1.03-1.57c0.32-0.56,0.59-1.14,0.8-1.75h1.12
		c0.1,0,0.2,0.02,0.29,0.06c0.09,0.05,0.14,0.14,0.12,0.24c0,0.05-0.01,0.09-0.02,0.14c-0.02,0.06-0.05,0.16-0.11,0.3
		c-0.11,0.28-0.25,0.55-0.4,0.81c-0.17,0.29-0.35,0.58-0.56,0.88s-0.41,0.58-0.63,0.86s-0.43,0.53-0.63,0.75
		c1.17,1.24,2.05,2.73,2.58,4.35L1403.8,229.52z"/>
	<path class="st0" d="M1410.48,229.52c-0.27,0-0.4-0.13-0.4-0.38v-10.85c0.48-0.09,1.03-0.16,1.63-0.22s1.17-0.09,1.7-0.09
		c1.05-0.09,2.1,0.22,2.94,0.86c0.7,0.78,1.04,1.82,0.94,2.87c0.01,0.59-0.07,1.17-0.26,1.73c-0.15,0.43-0.39,0.83-0.72,1.15
		c-0.32,0.3-0.71,0.53-1.13,0.65c-0.48,0.14-0.98,0.21-1.47,0.21c-0.3,0-0.61-0.02-0.91-0.06c-0.32-0.04-0.66-0.1-1.01-0.17v4.3
		L1410.48,229.52z M1411.79,223.9c0.29,0.05,0.57,0.1,0.86,0.14c0.28,0.04,0.57,0.06,0.86,0.06c0.31,0.01,0.62-0.03,0.92-0.11
		c0.25-0.06,0.47-0.19,0.65-0.38c0.19-0.21,0.32-0.46,0.39-0.73c0.18-0.79,0.18-1.6-0.01-2.39c-0.07-0.27-0.22-0.52-0.42-0.72
		c-0.19-0.17-0.43-0.29-0.68-0.35c-0.3-0.06-0.61-0.09-0.92-0.09c-0.33,0-0.64,0.01-0.93,0.03c-0.29,0.02-0.53,0.05-0.72,0.08
		L1411.79,223.9z"/>
	<path class="st0" d="M1422.7,221.08c0.16-0.02,0.31,0.02,0.44,0.11c0.08,0.07,0.12,0.18,0.12,0.29v1.11
		c-0.08-0.01-0.15-0.02-0.23-0.02h-0.21c-0.42-0.01-0.84,0.07-1.23,0.21c-0.39,0.16-0.75,0.41-1.03,0.73v6.02h-1.27
		c-0.26,0-0.4-0.13-0.4-0.38v-8.01h1c0.11-0.01,0.22,0.02,0.31,0.09c0.08,0.09,0.13,0.2,0.15,0.32l0.06,0.73
		c0.28-0.33,0.6-0.61,0.97-0.82C1421.78,221.2,1422.23,221.07,1422.7,221.08z"/>
	<path class="st0" d="M1425.55,219.81c-0.28,0.02-0.55-0.05-0.78-0.21c-0.32-0.41-0.32-0.98,0-1.39c0.48-0.29,1.08-0.29,1.56,0
		c0.33,0.41,0.33,0.99,0,1.39C1426.1,219.76,1425.82,219.83,1425.55,219.81z M1426.37,229.52h-1.27c-0.26,0-0.4-0.13-0.4-0.38v-8.01
		h1.27c0.27,0,0.4,0.13,0.4,0.38L1426.37,229.52z"/>
	<path class="st0" d="M1428.81,229.52c-0.26,0-0.4-0.13-0.4-0.38v-8.01h1c0.11,0,0.21,0.02,0.31,0.08c0.1,0.08,0.15,0.2,0.16,0.33
		l0.06,0.51c0.67-0.73,1.63-1.13,2.62-1.1c0.73-0.07,1.45,0.22,1.93,0.78c0.41,0.61,0.61,1.35,0.58,2.09v5.71h-1.26
		c-0.11,0.01-0.21-0.03-0.29-0.1c-0.08-0.07-0.11-0.18-0.11-0.28v-5.19c0.04-0.44-0.09-0.88-0.36-1.23
		c-0.29-0.26-0.67-0.4-1.06-0.37c-0.4-0.01-0.8,0.08-1.16,0.27c-0.28,0.15-0.53,0.34-0.76,0.55v6.35L1428.81,229.52z"/>
	<path class="st0" d="M1441.13,229.47c-0.24,0.06-0.48,0.11-0.72,0.15c-0.23,0.03-0.47,0.05-0.7,0.05
		c-0.62,0.06-1.24-0.13-1.72-0.53c-0.4-0.46-0.59-1.06-0.54-1.66v-5.03h-0.58c-0.26,0-0.4-0.13-0.4-0.38v-0.94h1.01l0.08-2.18h1.16
		c0.26,0,0.4,0.13,0.4,0.38v1.8h1.62c0.11-0.01,0.21,0.03,0.29,0.1c0.07,0.07,0.11,0.18,0.11,0.28v0.94h-2.01v4.95
		c-0.01,0.24,0.04,0.48,0.15,0.69c0.14,0.18,0.37,0.28,0.59,0.25c0.19,0,0.34,0,0.47-0.01c0.13-0.01,0.24-0.01,0.35-0.01
		c0.3,0,0.45,0.13,0.44,0.38V229.47z"/>
	<path class="st0" d="M1443.6,219.81c-0.28,0.02-0.55-0.05-0.78-0.21c-0.32-0.41-0.32-0.98,0-1.39c0.48-0.29,1.08-0.29,1.56,0
		c0.33,0.41,0.33,0.99,0,1.39C1444.15,219.76,1443.88,219.83,1443.6,219.81z M1444.43,229.52h-1.27c-0.27,0-0.4-0.13-0.4-0.38v-8.01
		h1.27c0.26,0,0.4,0.13,0.4,0.38L1444.43,229.52z"/>
	<path class="st0" d="M1446.87,229.52c-0.27,0-0.4-0.13-0.4-0.38v-8.01h1.01c0.11,0,0.21,0.02,0.31,0.08
		c0.1,0.08,0.15,0.2,0.16,0.33l0.06,0.51c0.67-0.73,1.63-1.13,2.62-1.1c0.73-0.07,1.45,0.22,1.93,0.78
		c0.41,0.61,0.61,1.35,0.58,2.09v5.71h-1.27c-0.11,0.01-0.21-0.03-0.29-0.1c-0.07-0.07-0.11-0.18-0.11-0.28v-5.19
		c0.04-0.44-0.09-0.88-0.36-1.23c-0.29-0.26-0.67-0.4-1.06-0.37c-0.4-0.01-0.8,0.08-1.15,0.27c-0.28,0.15-0.53,0.34-0.76,0.55v6.35
		L1446.87,229.52z"/>
	<path class="st0" d="M1454.91,225.25c-0.02-0.69,0.06-1.38,0.24-2.05c0.13-0.49,0.38-0.94,0.73-1.3c0.35-0.33,0.78-0.57,1.24-0.68
		c0.58-0.14,1.18-0.21,1.77-0.2c0.44,0,0.9,0.02,1.37,0.07s0.87,0.09,1.2,0.15c0.16,0.02,0.32,0.07,0.47,0.15
		c0.12,0.09,0.18,0.24,0.16,0.4v0.71h-0.63c0.03,0.69,0.06,1.38,0.07,2.05c0.01,0.68,0.02,1.34,0.02,2v2.95
		c0.06,0.82-0.24,1.62-0.81,2.21c-0.71,0.56-1.6,0.83-2.51,0.76c-0.18,0-0.37-0.01-0.59-0.02s-0.44-0.04-0.67-0.07
		s-0.44-0.06-0.64-0.1c-0.17-0.03-0.34-0.08-0.5-0.14c-0.11-0.03-0.21-0.11-0.27-0.21c-0.04-0.09-0.06-0.2-0.06-0.3v-0.69
		c0.39,0.05,0.77,0.1,1.15,0.13c0.39,0.03,0.75,0.05,1.11,0.05c0.58,0.05,1.16-0.07,1.67-0.34c0.34-0.29,0.52-0.72,0.47-1.16v-1.02
		c-0.3,0.21-0.62,0.38-0.96,0.51c-0.37,0.13-0.76,0.19-1.15,0.18c-0.49,0.02-0.97-0.09-1.41-0.3c-0.36-0.19-0.67-0.48-0.88-0.83
		c-0.23-0.39-0.39-0.82-0.46-1.27C1454.95,226.34,1454.91,225.79,1454.91,225.25z M1456.58,225.22c-0.01,0.44,0.03,0.87,0.1,1.3
		c0.05,0.3,0.15,0.59,0.31,0.86c0.12,0.21,0.31,0.37,0.54,0.47c0.25,0.1,0.51,0.15,0.78,0.14c0.31,0.01,0.61-0.05,0.9-0.16
		c0.25-0.11,0.49-0.24,0.72-0.39v-5.08c-0.18-0.02-0.35-0.04-0.54-0.04s-0.35-0.01-0.5-0.01c-0.35-0.01-0.7,0.03-1.04,0.12
		c-0.28,0.07-0.52,0.22-0.71,0.44c-0.21,0.26-0.35,0.56-0.41,0.88C1456.62,224.23,1456.57,224.72,1456.58,225.22L1456.58,225.22z"/>
	<path class="st0" d="M1469.45,219.54h-2.62c-0.27,0-0.4-0.13-0.4-0.38v-1.07h7.39c0.11,0,0.21,0.03,0.29,0.1
		c0.07,0.07,0.11,0.18,0.11,0.28v1.07h-3.03v9.98h-1.33c-0.27,0-0.4-0.13-0.4-0.38L1469.45,219.54z"/>
	<path class="st0" d="M1475.72,225.94c0.01,0.38,0.06,0.75,0.15,1.12c0.06,0.28,0.2,0.54,0.39,0.75c0.2,0.2,0.46,0.35,0.73,0.42
		c0.39,0.1,0.79,0.14,1.19,0.13c0.39,0,0.78-0.02,1.17-0.07c0.24-0.03,0.48-0.06,0.72-0.07c0.25,0,0.38,0.12,0.38,0.36v0.69
		c-0.35,0.13-0.71,0.23-1.08,0.29c-0.52,0.09-1.05,0.13-1.57,0.12c-0.55,0.01-1.1-0.07-1.63-0.23c-0.44-0.14-0.84-0.4-1.15-0.75
		c-0.33-0.39-0.55-0.86-0.67-1.35c-0.15-0.66-0.23-1.34-0.21-2.02c-0.01-0.68,0.06-1.36,0.21-2.03c0.11-0.5,0.34-0.97,0.65-1.38
		c0.28-0.35,0.66-0.62,1.08-0.77c0.48-0.17,0.99-0.25,1.5-0.24c0.54-0.02,1.07,0.07,1.57,0.27c0.38,0.16,0.71,0.41,0.96,0.73
		c0.24,0.32,0.4,0.69,0.48,1.08c0.09,0.44,0.13,0.88,0.13,1.33c0,0.31-0.02,0.62-0.05,0.92c-0.02,0.23-0.06,0.46-0.13,0.68
		L1475.72,225.94z M1479.2,224.77c0.01-0.11,0.02-0.19,0.02-0.25v-0.21c0.03-0.55-0.08-1.1-0.32-1.59c-0.29-0.4-0.77-0.6-1.26-0.54
		c-0.32-0.01-0.63,0.05-0.92,0.18c-0.24,0.12-0.44,0.29-0.58,0.51c-0.15,0.25-0.26,0.53-0.31,0.82c-0.06,0.36-0.1,0.72-0.11,1.08
		L1479.2,224.77z"/>
	<path class="st0" d="M1487.91,229.29c-0.31,0.13-0.64,0.23-0.97,0.29c-0.41,0.08-0.83,0.13-1.25,0.12
		c-0.54,0.01-1.07-0.08-1.57-0.29c-0.42-0.18-0.77-0.47-1.04-0.84c-0.28-0.41-0.48-0.88-0.58-1.37c-0.13-0.61-0.19-1.23-0.18-1.85
		c-0.1-1.18,0.19-2.35,0.82-3.35c0.62-0.73,1.56-1.12,2.51-1.05c0.37,0,0.74,0.03,1.1,0.09c0.27,0.04,0.54,0.11,0.79,0.21
		c0.1,0.04,0.19,0.12,0.25,0.21c0.05,0.1,0.08,0.2,0.07,0.31v0.71c-0.35-0.05-0.69-0.1-1.01-0.12s-0.59-0.04-0.82-0.04
		c-0.32-0.01-0.64,0.04-0.95,0.14c-0.26,0.09-0.48,0.26-0.63,0.49c-0.18,0.28-0.3,0.59-0.35,0.92c-0.08,0.47-0.11,0.94-0.11,1.41
		c-0.01,0.51,0.03,1.03,0.13,1.53c0.06,0.33,0.19,0.65,0.38,0.93c0.15,0.21,0.36,0.38,0.61,0.46c0.27,0.09,0.56,0.13,0.84,0.12
		c0.31,0,0.61-0.02,0.91-0.06c0.21-0.03,0.42-0.05,0.64-0.06c0.19-0.03,0.37,0.11,0.4,0.3c0,0.03,0,0.07,0,0.1L1487.91,229.29z"/>
	<path class="st0" d="M1494.9,229.52c-0.11,0.01-0.21-0.03-0.29-0.1c-0.08-0.07-0.11-0.18-0.11-0.28v-5.19
		c0.04-0.44-0.09-0.88-0.36-1.23c-0.29-0.26-0.67-0.4-1.06-0.37c-0.4-0.01-0.8,0.08-1.15,0.27c-0.28,0.15-0.53,0.34-0.76,0.55v6.35
		h-1.27c-0.26,0-0.4-0.13-0.4-0.38v-11.46h1.27c0.11,0,0.21,0.03,0.29,0.1c0.07,0.07,0.11,0.18,0.11,0.28v3.91
		c0.31-0.34,0.7-0.6,1.13-0.77c0.44-0.17,0.92-0.26,1.39-0.26c0.72-0.07,1.43,0.22,1.9,0.77c0.41,0.62,0.62,1.35,0.58,2.09v5.7
		H1494.9z"/>
	<path class="st0" d="M1498.54,229.52c-0.27,0-0.4-0.13-0.4-0.38v-8.01h1.01c0.11,0,0.21,0.03,0.3,0.08c0.1,0.08,0.15,0.2,0.16,0.33
		l0.06,0.51c0.67-0.73,1.63-1.13,2.62-1.1c0.73-0.07,1.45,0.22,1.93,0.78c0.41,0.61,0.61,1.35,0.58,2.09v5.71h-1.27
		c-0.11,0.01-0.21-0.03-0.29-0.1c-0.08-0.07-0.11-0.18-0.11-0.28v-5.19c0.04-0.44-0.09-0.88-0.36-1.23
		c-0.29-0.26-0.67-0.4-1.06-0.37c-0.4-0.01-0.8,0.08-1.15,0.27c-0.28,0.15-0.53,0.34-0.76,0.55v6.35L1498.54,229.52z"/>
	<path class="st0" d="M1510.11,229.72c-1.02,0.1-2.02-0.3-2.7-1.05c-1.11-2.09-1.11-4.59,0-6.68c1.52-1.41,3.87-1.41,5.39,0
		c1.11,2.09,1.11,4.59,0,6.68C1512.13,229.42,1511.13,229.81,1510.11,229.72z M1511.96,225.32c0.01-0.5-0.03-0.99-0.11-1.48
		c-0.05-0.33-0.16-0.65-0.33-0.95c-0.14-0.22-0.34-0.4-0.58-0.5c-0.54-0.2-1.13-0.2-1.67,0c-0.24,0.1-0.44,0.28-0.58,0.5
		c-0.17,0.29-0.28,0.61-0.33,0.95c-0.08,0.49-0.11,0.99-0.11,1.48c-0.01,0.51,0.03,1.01,0.11,1.51c0.05,0.34,0.16,0.66,0.33,0.96
		c0.13,0.22,0.34,0.4,0.58,0.49c0.54,0.19,1.13,0.19,1.67,0c0.24-0.1,0.44-0.27,0.58-0.49c0.17-0.29,0.28-0.62,0.33-0.96
		C1511.93,226.33,1511.97,225.82,1511.96,225.32L1511.96,225.32z"/>
	<path class="st0" d="M1517.12,227.57c-0.03,0.2,0.03,0.41,0.15,0.58c0.16,0.11,0.34,0.16,0.53,0.15c0.14,0,0.27,0.03,0.4,0.08
		c0.09,0.04,0.13,0.15,0.13,0.31v0.76c-0.18,0.06-0.36,0.1-0.54,0.12c-0.2,0.03-0.41,0.04-0.61,0.04c-0.29,0.01-0.58-0.04-0.84-0.16
		c-0.22-0.1-0.4-0.27-0.53-0.47c-0.14-0.24-0.23-0.51-0.27-0.78c-0.05-0.36-0.08-0.73-0.07-1.1v-9.43h1.27
		c0.11,0,0.21,0.03,0.29,0.1c0.07,0.07,0.11,0.18,0.11,0.28L1517.12,227.57z"/>
	<path class="st0" d="M1522.78,229.72c-1.02,0.09-2.02-0.3-2.7-1.05c-1.11-2.09-1.11-4.59,0-6.68c1.52-1.41,3.87-1.41,5.39,0
		c1.11,2.09,1.11,4.59,0,6.68C1524.79,229.42,1523.79,229.81,1522.78,229.72z M1524.63,225.32c0.01-0.5-0.03-0.99-0.11-1.48
		c-0.05-0.33-0.16-0.65-0.33-0.95c-0.14-0.22-0.34-0.4-0.58-0.5c-0.54-0.2-1.13-0.2-1.67,0c-0.24,0.1-0.44,0.28-0.58,0.5
		c-0.17,0.29-0.28,0.61-0.33,0.95c-0.08,0.49-0.11,0.99-0.11,1.48c-0.01,0.51,0.03,1.01,0.11,1.51c0.05,0.34,0.16,0.66,0.33,0.96
		c0.13,0.22,0.34,0.4,0.58,0.49c0.54,0.19,1.13,0.19,1.67,0c0.24-0.1,0.44-0.27,0.58-0.49c0.17-0.3,0.28-0.62,0.33-0.96
		C1524.6,226.33,1524.63,225.82,1524.63,225.32L1524.63,225.32z"/>
	<path class="st0" d="M1527.92,225.25c-0.02-0.69,0.06-1.38,0.24-2.05c0.13-0.49,0.38-0.94,0.73-1.3c0.35-0.33,0.78-0.57,1.24-0.68
		c0.58-0.14,1.18-0.21,1.77-0.2c0.44,0,0.9,0.02,1.37,0.07c0.47,0.04,0.87,0.09,1.2,0.15c0.16,0.02,0.32,0.07,0.47,0.15
		c0.12,0.09,0.18,0.24,0.16,0.4v0.71h-0.63c0.03,0.69,0.06,1.38,0.07,2.05c0.01,0.68,0.02,1.34,0.02,2v2.95
		c0.06,0.82-0.24,1.62-0.81,2.21c-0.71,0.56-1.6,0.83-2.51,0.76c-0.18,0-0.37-0.01-0.59-0.02c-0.22-0.02-0.44-0.04-0.67-0.07
		s-0.44-0.06-0.64-0.1c-0.17-0.03-0.34-0.08-0.5-0.14c-0.11-0.03-0.21-0.11-0.27-0.21c-0.04-0.09-0.06-0.2-0.06-0.3v-0.69
		c0.38,0.05,0.77,0.1,1.15,0.13c0.39,0.03,0.75,0.05,1.11,0.05c0.58,0.05,1.16-0.07,1.67-0.34c0.34-0.29,0.52-0.72,0.47-1.16v-1.02
		c-0.3,0.21-0.62,0.38-0.96,0.51c-0.37,0.13-0.76,0.19-1.15,0.18c-0.49,0.02-0.97-0.09-1.41-0.3c-0.36-0.19-0.67-0.48-0.88-0.83
		c-0.23-0.39-0.39-0.82-0.46-1.27C1527.96,226.34,1527.92,225.79,1527.92,225.25z M1529.59,225.22c-0.01,0.44,0.03,0.87,0.1,1.3
		c0.05,0.3,0.15,0.59,0.31,0.86c0.12,0.21,0.31,0.37,0.54,0.47c0.25,0.1,0.51,0.15,0.78,0.14c0.31,0.01,0.61-0.05,0.9-0.16
		c0.25-0.11,0.49-0.24,0.72-0.39v-5.08c-0.18-0.02-0.35-0.04-0.54-0.04s-0.35-0.01-0.5-0.01c-0.35-0.01-0.7,0.03-1.04,0.12
		c-0.27,0.07-0.52,0.22-0.71,0.44c-0.21,0.26-0.35,0.56-0.41,0.88C1529.62,224.23,1529.58,224.72,1529.59,225.22L1529.59,225.22z"/>
	<path class="st0" d="M1537.55,219.81c-0.28,0.02-0.55-0.05-0.78-0.21c-0.32-0.41-0.32-0.98,0-1.39c0.48-0.29,1.08-0.29,1.56,0
		c0.33,0.41,0.33,0.99,0,1.39C1538.1,219.76,1537.83,219.83,1537.55,219.81z M1538.38,229.52h-1.27c-0.26,0-0.4-0.13-0.4-0.38v-8.01
		h1.27c0.27,0,0.4,0.13,0.4,0.38L1538.38,229.52z"/>
	<path class="st0" d="M1541.81,225.94c0.01,0.38,0.06,0.75,0.15,1.12c0.06,0.28,0.2,0.54,0.39,0.75c0.2,0.2,0.46,0.35,0.73,0.42
		c0.39,0.1,0.79,0.14,1.19,0.13c0.39,0,0.78-0.02,1.17-0.07c0.24-0.03,0.48-0.06,0.72-0.07c0.25,0,0.38,0.12,0.38,0.36v0.69
		c-0.35,0.13-0.71,0.23-1.08,0.29c-0.52,0.09-1.05,0.13-1.57,0.12c-0.55,0.01-1.1-0.07-1.63-0.23c-0.44-0.14-0.84-0.4-1.15-0.75
		c-0.33-0.39-0.55-0.86-0.67-1.35c-0.16-0.66-0.23-1.34-0.21-2.02c-0.01-0.68,0.06-1.36,0.21-2.03c0.11-0.5,0.34-0.97,0.65-1.38
		c0.28-0.35,0.66-0.62,1.08-0.77c0.48-0.17,0.99-0.25,1.5-0.24c0.54-0.02,1.07,0.07,1.57,0.27c0.38,0.16,0.71,0.41,0.96,0.73
		c0.24,0.32,0.4,0.69,0.48,1.08c0.09,0.44,0.13,0.88,0.13,1.33c0,0.31-0.02,0.62-0.05,0.92c-0.02,0.23-0.06,0.46-0.13,0.68
		L1541.81,225.94z M1545.28,224.77c0.01-0.11,0.02-0.19,0.02-0.25v-0.21c0.03-0.55-0.08-1.1-0.32-1.59c-0.29-0.4-0.78-0.6-1.26-0.54
		c-0.32-0.01-0.63,0.05-0.92,0.18c-0.24,0.11-0.44,0.29-0.58,0.51c-0.15,0.25-0.25,0.53-0.3,0.82c-0.06,0.36-0.1,0.72-0.11,1.08
		L1545.28,224.77z"/>
	<path class="st0" d="M1548.25,228.15c0.35,0.04,0.74,0.09,1.17,0.12s0.84,0.06,1.25,0.06c0.51,0.05,1.02-0.05,1.47-0.28
		c0.27-0.22,0.41-0.55,0.38-0.89c0-0.16-0.02-0.32-0.07-0.47c-0.06-0.13-0.15-0.25-0.27-0.33c-0.17-0.11-0.35-0.2-0.54-0.26
		c-0.23-0.08-0.51-0.16-0.86-0.25c-0.39-0.1-0.74-0.2-1.06-0.3c-0.3-0.09-0.58-0.23-0.83-0.42c-0.23-0.18-0.41-0.4-0.54-0.67
		c-0.14-0.33-0.2-0.69-0.19-1.05c-0.07-0.72,0.22-1.43,0.78-1.9c0.65-0.42,1.41-0.61,2.18-0.57c0.19,0,0.39,0.01,0.61,0.02
		s0.43,0.04,0.64,0.07s0.4,0.06,0.58,0.1c0.15,0.03,0.3,0.07,0.45,0.12c0.1,0.04,0.19,0.1,0.26,0.18c0.06,0.09,0.08,0.2,0.07,0.31
		v0.71c-0.49-0.05-0.93-0.1-1.3-0.12c-0.37-0.03-0.7-0.04-1-0.04c-0.45-0.04-0.9,0.05-1.31,0.25c-0.26,0.18-0.4,0.48-0.37,0.79
		c-0.01,0.17,0.03,0.33,0.1,0.49c0.07,0.13,0.18,0.25,0.31,0.32c0.18,0.1,0.36,0.18,0.56,0.24c0.23,0.07,0.5,0.14,0.82,0.22
		c0.37,0.1,0.72,0.2,1.04,0.3c0.29,0.09,0.57,0.23,0.82,0.41c0.23,0.17,0.42,0.41,0.54,0.68c0.14,0.34,0.2,0.71,0.19,1.08
		c0.01,0.42-0.06,0.84-0.22,1.23c-0.14,0.32-0.36,0.6-0.64,0.82c-0.29,0.22-0.63,0.37-0.98,0.45c-0.41,0.09-0.84,0.14-1.26,0.13
		c-0.2,0-0.42-0.01-0.65-0.02s-0.47-0.04-0.7-0.07s-0.44-0.07-0.64-0.11c-0.16-0.03-0.31-0.07-0.46-0.12
		c-0.11-0.04-0.2-0.11-0.26-0.21c-0.05-0.1-0.07-0.2-0.07-0.31L1548.25,228.15z"/>
	<g transform="translate(1346.481 150.966)">
		<g transform="translate(45.129 4.227)">
			<path class="st1" d="M3.04,15.85C3.06,16.58,3.16,17.3,3.32,18c0.12,0.54,0.38,1.03,0.74,1.44c0.39,0.39,0.87,0.67,1.41,0.81
				c0.74,0.19,1.51,0.27,2.28,0.25c0.75,0,1.5-0.04,2.25-0.13c0.46-0.07,0.93-0.11,1.39-0.13c0.48,0,0.73,0.23,0.73,0.7v1.33
				c-0.67,0.26-1.36,0.44-2.07,0.55c-1,0.17-2.01,0.25-3.02,0.24c-1.06,0.02-2.12-0.13-3.13-0.44c-0.85-0.27-1.61-0.77-2.2-1.44
				c-0.63-0.75-1.07-1.64-1.28-2.6c-0.3-1.27-0.43-2.57-0.41-3.88c-0.02-1.31,0.12-2.62,0.41-3.89c0.22-0.96,0.65-1.86,1.25-2.64
				C2.21,7.5,2.92,6.99,3.73,6.69c0.92-0.32,1.9-0.48,2.88-0.46C7.64,6.2,8.66,6.38,9.62,6.75c0.72,0.3,1.35,0.79,1.83,1.41
				c0.45,0.62,0.77,1.32,0.92,2.07c0.17,0.84,0.26,1.69,0.25,2.55c0,0.59-0.03,1.18-0.09,1.77c-0.04,0.44-0.12,0.88-0.25,1.3
				L3.04,15.85z M9.71,13.61c0.02-0.21,0.03-0.37,0.03-0.48v-0.41c0.06-1.05-0.15-2.11-0.62-3.05C8.57,8.91,7.64,8.52,6.71,8.64
				C6.1,8.62,5.49,8.74,4.94,8.99C4.49,9.21,4.1,9.55,3.83,9.97c-0.3,0.48-0.5,1.01-0.59,1.57c-0.12,0.68-0.19,1.38-0.21,2.07
				L9.71,13.61z"/>
			<path class="st1" d="M26.42,22.28c-0.6,0.25-1.23,0.43-1.87,0.55c-0.79,0.16-1.6,0.24-2.41,0.24c-1.03,0.03-2.05-0.16-3.01-0.55
				c-0.8-0.35-1.49-0.91-1.99-1.61c-0.54-0.79-0.92-1.68-1.11-2.63c-0.24-1.17-0.36-2.36-0.35-3.56c0-2.95,0.52-5.1,1.57-6.44
				c1.19-1.41,2.99-2.15,4.82-2.01c0.71,0,1.42,0.06,2.12,0.17c0.52,0.07,1.03,0.2,1.52,0.4c0.2,0.08,0.38,0.23,0.49,0.41
				c0.1,0.18,0.15,0.39,0.14,0.6v1.36c-0.68-0.11-1.32-0.18-1.93-0.24s-1.14-0.08-1.58-0.08c-0.62-0.02-1.23,0.08-1.82,0.27
				c-0.49,0.18-0.92,0.5-1.22,0.93c-0.35,0.53-0.58,1.13-0.68,1.76c-0.15,0.89-0.22,1.8-0.21,2.71c-0.02,0.99,0.07,1.97,0.25,2.94
				c0.12,0.64,0.37,1.25,0.73,1.79c0.29,0.41,0.7,0.72,1.17,0.89c0.52,0.17,1.07,0.25,1.61,0.24c0.59,0,1.17-0.04,1.76-0.11
				c0.4-0.06,0.81-0.1,1.22-0.11c0.37-0.05,0.71,0.2,0.76,0.57c0.01,0.06,0.01,0.13,0,0.19L26.42,22.28z"/>
			<path class="st1" d="M35.41,23.1c-2.38,0-4.11-0.67-5.17-2.02s-1.6-3.49-1.6-6.42c0-2.91,0.53-5.04,1.6-6.39s2.79-2.03,5.17-2.02
				c2.38,0,4.11,0.67,5.17,2.02s1.6,3.48,1.6,6.39c0,2.93-0.53,5.07-1.6,6.42S37.79,23.1,35.41,23.1z M38.95,14.65
				c0.01-0.95-0.06-1.91-0.21-2.85c-0.09-0.64-0.31-1.26-0.63-1.82C37.85,9.55,37.47,9.21,37,9.02c-1.03-0.38-2.17-0.38-3.2,0
				c-0.46,0.2-0.85,0.53-1.11,0.96c-0.32,0.56-0.54,1.18-0.63,1.82c-0.15,0.94-0.22,1.89-0.2,2.85c-0.02,0.97,0.05,1.94,0.2,2.9
				c0.09,0.65,0.31,1.27,0.63,1.84c0.26,0.43,0.64,0.76,1.11,0.95c1.04,0.36,2.16,0.36,3.2,0c0.46-0.19,0.85-0.52,1.11-0.95
				c0.33-0.57,0.54-1.19,0.63-1.84C38.9,16.59,38.96,15.62,38.95,14.65L38.95,14.65z"/>
			<path class="st1" d="M45.15,20.09c0.67,0.08,1.42,0.16,2.25,0.24c0.82,0.07,1.62,0.11,2.4,0.11c0.97,0.09,1.95-0.09,2.82-0.54
				c0.51-0.41,0.78-1.05,0.73-1.71c0.01-0.31-0.04-0.61-0.14-0.9c-0.11-0.26-0.29-0.48-0.52-0.63c-0.32-0.21-0.66-0.38-1.03-0.49
				c-0.43-0.15-0.99-0.31-1.66-0.48c-0.74-0.19-1.42-0.39-2.04-0.59c-0.58-0.18-1.12-0.45-1.6-0.81c-0.44-0.34-0.8-0.78-1.03-1.28
				c-0.27-0.64-0.39-1.32-0.36-2.01c-0.14-1.39,0.42-2.76,1.49-3.65c1.24-0.8,2.7-1.18,4.18-1.09c0.36,0,0.75,0.02,1.17,0.05
				s0.83,0.07,1.23,0.13s0.78,0.12,1.12,0.19c0.3,0.06,0.59,0.14,0.87,0.24c0.19,0.07,0.36,0.19,0.49,0.35
				c0.11,0.18,0.16,0.39,0.14,0.6v1.36c-0.95-0.11-1.78-0.18-2.48-0.24c-0.71-0.05-1.35-0.08-1.92-0.08
				c-0.87-0.07-1.74,0.09-2.52,0.48c-0.49,0.34-0.76,0.92-0.71,1.52c-0.01,0.32,0.05,0.64,0.19,0.93c0.14,0.26,0.35,0.47,0.6,0.62
				c0.34,0.2,0.7,0.35,1.07,0.46c0.44,0.14,0.97,0.28,1.58,0.43c0.72,0.19,1.38,0.39,1.99,0.59c0.57,0.18,1.1,0.44,1.58,0.79
				c0.45,0.34,0.8,0.78,1.03,1.3c0.27,0.66,0.39,1.36,0.36,2.07c0.02,0.81-0.12,1.61-0.43,2.36c-0.27,0.62-0.68,1.16-1.22,1.57
				c-0.56,0.41-1.2,0.71-1.88,0.85c-0.79,0.18-1.61,0.26-2.42,0.25c-0.38,0-0.8-0.02-1.25-0.05s-0.9-0.08-1.34-0.14
				c-0.44-0.06-0.85-0.13-1.23-0.21c-0.3-0.05-0.6-0.13-0.89-0.24c-0.21-0.07-0.39-0.21-0.51-0.4c-0.09-0.18-0.13-0.38-0.13-0.59
				L45.15,20.09z"/>
			<path class="st1" d="M66.03,23.1c-2.38,0-4.11-0.67-5.17-2.02s-1.6-3.49-1.6-6.42c0-2.91,0.53-5.04,1.6-6.39s2.79-2.03,5.17-2.02
				c2.38,0,4.11,0.67,5.17,2.02s1.6,3.48,1.6,6.39c0,2.93-0.53,5.07-1.6,6.42S68.42,23.1,66.03,23.1z M69.58,14.65
				c0.01-0.95-0.06-1.91-0.21-2.85c-0.1-0.64-0.31-1.26-0.63-1.82c-0.26-0.43-0.65-0.77-1.11-0.96c-1.03-0.38-2.16-0.38-3.19,0
				c-0.46,0.2-0.85,0.53-1.11,0.96c-0.32,0.56-0.54,1.18-0.63,1.82c-0.15,0.94-0.22,1.89-0.21,2.85c-0.01,0.97,0.05,1.94,0.21,2.9
				c0.09,0.65,0.31,1.27,0.63,1.84c0.26,0.43,0.65,0.76,1.11,0.95c1.03,0.36,2.16,0.36,3.19,0c0.46-0.19,0.85-0.52,1.11-0.95
				c0.32-0.57,0.54-1.19,0.63-1.84C69.52,16.59,69.59,15.62,69.58,14.65z"/>
			<path class="st1" d="M79.48,18.98c-0.05,0.39,0.05,0.79,0.29,1.11c0.3,0.2,0.65,0.3,1.01,0.29c0.26,0,0.52,0.06,0.76,0.16
				c0.17,0.09,0.25,0.28,0.25,0.6v1.46c-0.34,0.11-0.69,0.19-1.05,0.24c-0.39,0.05-0.78,0.08-1.17,0.08
				c-0.55,0.02-1.1-0.08-1.61-0.3c-0.42-0.2-0.77-0.51-1.01-0.9c-0.27-0.46-0.45-0.97-0.52-1.5c-0.1-0.7-0.15-1.4-0.14-2.1V0.01
				h2.44c0.2-0.01,0.4,0.06,0.55,0.19c0.14,0.14,0.22,0.34,0.21,0.54L79.48,18.98z"/>
			<path class="st1" d="M96.06,6.61c0.51,0,0.76,0.24,0.76,0.73v15.38h-1.93c-0.21,0.01-0.41-0.05-0.59-0.16
				c-0.19-0.16-0.3-0.39-0.3-0.63l-0.13-0.98c-1.29,1.41-3.13,2.18-5.03,2.12c-0.76,0.02-1.51-0.12-2.21-0.4
				c-0.58-0.24-1.09-0.62-1.49-1.11c-0.4-0.51-0.69-1.11-0.84-1.74c-0.19-0.74-0.28-1.5-0.27-2.26V6.61h2.44
				c0.2-0.01,0.4,0.06,0.55,0.19c0.14,0.14,0.22,0.34,0.21,0.54v9.97c-0.08,0.85,0.17,1.69,0.7,2.36c0.55,0.51,1.28,0.76,2.03,0.71
				c0.77,0.02,1.53-0.16,2.21-0.52c0.53-0.29,1.02-0.64,1.45-1.06V6.61H96.06z"/>
			<path class="st1" d="M108.65,22.62c-0.45,0.12-0.91,0.21-1.38,0.28c-0.45,0.07-0.89,0.1-1.34,0.1c-1.19,0.11-2.38-0.26-3.31-1.01
				c-0.76-0.88-1.13-2.04-1.03-3.2V9.15h-1.11c-0.51,0-0.76-0.24-0.76-0.73v-1.8h1.93l0.16-4.18h2.21c0.51,0,0.76,0.24,0.76,0.73
				v3.45h3.1c0.2-0.01,0.4,0.06,0.55,0.19c0.14,0.14,0.22,0.34,0.21,0.54v1.8h-3.86v9.49c-0.02,0.46,0.07,0.92,0.28,1.33
				c0.27,0.35,0.7,0.54,1.14,0.48c0.36,0,0.66-0.01,0.9-0.02c0.24-0.01,0.47-0.02,0.68-0.02c0.57,0,0.85,0.24,0.85,0.73
				L108.65,22.62z"/>
			<path class="st1" d="M113.4,4.08c-0.53,0.05-1.06-0.1-1.5-0.4c-0.61-0.79-0.61-1.89,0-2.67c0.92-0.55,2.07-0.55,2.99,0
				c0.63,0.78,0.63,1.89,0,2.67C114.45,3.98,113.93,4.12,113.4,4.08z M114.98,22.72h-2.44c-0.51,0-0.76-0.24-0.76-0.73V6.61h2.44
				c0.51,0,0.76,0.24,0.76,0.73L114.98,22.72z"/>
			<path class="st1" d="M125.3,23.1c-2.38,0-4.11-0.67-5.17-2.02c-1.07-1.35-1.6-3.49-1.6-6.42c0-2.91,0.53-5.04,1.6-6.39
				s2.79-2.03,5.17-2.02c2.38,0,4.11,0.67,5.17,2.02c1.07,1.35,1.6,3.48,1.6,6.39c0,2.93-0.53,5.07-1.6,6.42S127.68,23.1,125.3,23.1
				z M128.84,14.65c0.01-0.95-0.06-1.91-0.21-2.85c-0.09-0.64-0.31-1.26-0.63-1.82c-0.26-0.43-0.65-0.77-1.11-0.96
				c-1.03-0.38-2.17-0.38-3.2,0c-0.46,0.2-0.85,0.53-1.11,0.96c-0.32,0.56-0.54,1.18-0.63,1.82c-0.15,0.94-0.22,1.89-0.21,2.85
				c-0.01,0.97,0.05,1.94,0.21,2.9c0.09,0.65,0.31,1.27,0.63,1.84c0.26,0.43,0.64,0.76,1.11,0.95c1.04,0.36,2.16,0.36,3.2,0
				c0.46-0.19,0.85-0.52,1.11-0.95c0.33-0.57,0.54-1.19,0.63-1.84C128.78,16.59,128.85,15.62,128.84,14.65z"/>
			<path class="st1" d="M136.31,22.72c-0.51,0-0.76-0.24-0.76-0.73V6.61h1.93c0.21-0.01,0.41,0.05,0.59,0.16
				c0.19,0.16,0.29,0.39,0.3,0.63l0.13,0.98c1.29-1.41,3.13-2.18,5.03-2.12c1.4-0.14,2.79,0.42,3.7,1.5c0.79,1.18,1.18,2.58,1.11,4
				v10.95h-2.44c-0.2,0.01-0.4-0.06-0.55-0.19c-0.14-0.14-0.22-0.34-0.21-0.54v-9.97c0.08-0.85-0.17-1.69-0.7-2.36
				c-0.55-0.51-1.28-0.76-2.02-0.71c-0.77-0.02-1.54,0.16-2.21,0.52c-0.53,0.29-1.02,0.64-1.45,1.06v12.18H136.31z"/>
			<path class="st1" d="M151.62,20.09c0.67,0.08,1.42,0.16,2.25,0.24c0.82,0.07,1.63,0.11,2.41,0.11c0.97,0.09,1.95-0.09,2.82-0.54
				c0.51-0.41,0.78-1.05,0.73-1.71c0.01-0.31-0.04-0.61-0.14-0.9c-0.11-0.26-0.29-0.48-0.52-0.63c-0.32-0.21-0.66-0.38-1.03-0.49
				c-0.43-0.15-0.99-0.31-1.66-0.48c-0.74-0.19-1.42-0.39-2.04-0.59c-0.58-0.18-1.12-0.45-1.6-0.81c-0.44-0.34-0.8-0.78-1.03-1.28
				c-0.27-0.64-0.39-1.32-0.36-2.01c-0.14-1.39,0.42-2.76,1.49-3.65c1.24-0.8,2.7-1.18,4.18-1.09c0.36,0,0.75,0.02,1.17,0.05
				c0.42,0.03,0.83,0.07,1.23,0.13c0.4,0.05,0.77,0.12,1.12,0.19c0.3,0.06,0.59,0.14,0.87,0.24c0.19,0.07,0.36,0.19,0.49,0.35
				c0.11,0.18,0.16,0.39,0.14,0.6v1.36c-0.95-0.11-1.78-0.18-2.48-0.24c-0.71-0.05-1.34-0.08-1.91-0.08
				c-0.87-0.07-1.74,0.09-2.52,0.48c-0.49,0.34-0.76,0.92-0.71,1.52c-0.01,0.32,0.05,0.64,0.19,0.93c0.14,0.26,0.35,0.47,0.6,0.62
				c0.34,0.2,0.7,0.35,1.08,0.46c0.44,0.14,0.97,0.28,1.58,0.43c0.72,0.19,1.38,0.39,1.99,0.59c0.57,0.18,1.1,0.44,1.58,0.79
				c0.45,0.34,0.8,0.78,1.03,1.3c0.27,0.66,0.39,1.36,0.36,2.07c0.02,0.81-0.12,1.61-0.43,2.36c-0.27,0.62-0.69,1.16-1.22,1.57
				c-0.56,0.41-1.2,0.71-1.88,0.85c-0.79,0.18-1.61,0.26-2.42,0.25c-0.38,0-0.8-0.02-1.25-0.05s-0.9-0.08-1.34-0.14
				s-0.85-0.13-1.23-0.21c-0.3-0.05-0.6-0.13-0.89-0.24c-0.21-0.07-0.39-0.21-0.51-0.4c-0.09-0.18-0.13-0.38-0.13-0.59L151.62,20.09
				z"/>
		</g>
		<g transform="translate(1.467 44.764)">
			<path class="st1" d="M3.59,2.22H0.47C0.16,2.22,0,2.07,0,1.76V0.49h8.79c0.13-0.01,0.25,0.04,0.34,0.12
				C9.22,0.7,9.26,0.82,9.26,0.94v1.27H5.65v11.86H4.06c-0.31,0-0.47-0.15-0.47-0.45L3.59,2.22z"/>
			<path class="st1" d="M14.75,4.04c0.19-0.02,0.37,0.02,0.53,0.13c0.09,0.09,0.14,0.21,0.14,0.34v1.31
				c-0.09-0.01-0.18-0.02-0.27-0.02h-0.26c-0.5-0.01-0.99,0.08-1.46,0.26c-0.47,0.19-0.89,0.49-1.22,0.86v7.16h-1.51
				c-0.31,0-0.47-0.15-0.47-0.45V4.1h1.2c0.13-0.01,0.27,0.03,0.37,0.11c0.1,0.11,0.16,0.24,0.18,0.38l0.08,0.86
				c0.33-0.39,0.72-0.72,1.16-0.98C13.67,4.19,14.2,4.04,14.75,4.04z"/>
			<path class="st1" d="M19.51,14.25c-0.85,0.07-1.68-0.24-2.28-0.84c-0.53-0.66-0.8-1.49-0.74-2.33c-0.02-0.52,0.08-1.05,0.28-1.53
				c0.18-0.39,0.45-0.72,0.8-0.97c0.37-0.25,0.79-0.43,1.23-0.51c0.5-0.1,1.02-0.15,1.53-0.15h2.02V7.25
				c0.06-0.52-0.13-1.04-0.53-1.39c-0.55-0.29-1.18-0.42-1.8-0.37c-0.52,0-1.04,0.03-1.55,0.09c-0.3,0.04-0.6,0.07-0.9,0.09
				c-0.13,0.01-0.27-0.03-0.36-0.13c-0.07-0.09-0.11-0.21-0.11-0.32V4.37c0.51-0.15,1.02-0.27,1.55-0.35
				c0.58-0.09,1.17-0.14,1.77-0.14c0.63-0.02,1.26,0.07,1.86,0.25c0.45,0.14,0.86,0.38,1.2,0.7c0.3,0.31,0.52,0.68,0.64,1.1
				c0.13,0.47,0.19,0.95,0.19,1.43v6.73h-1.2c-0.22,0-0.36-0.05-0.41-0.15c-0.06-0.11-0.09-0.22-0.12-0.34l-0.08-0.59
				c-0.37,0.35-0.78,0.64-1.23,0.87C20.72,14.14,20.12,14.27,19.51,14.25z M20.28,9.31c-0.33-0.01-0.66,0.03-0.98,0.13
				c-0.23,0.07-0.44,0.19-0.62,0.35c-0.15,0.15-0.26,0.34-0.31,0.54c-0.06,0.22-0.09,0.46-0.09,0.69c-0.04,0.48,0.11,0.95,0.43,1.31
				c0.37,0.3,0.84,0.45,1.31,0.41c0.47,0.01,0.93-0.09,1.35-0.3c0.36-0.19,0.69-0.42,0.98-0.7V9.31L20.28,9.31z"/>
			<path class="st1" d="M27.69,2.53c-0.33,0.03-0.66-0.06-0.93-0.25c-0.38-0.49-0.38-1.17,0-1.66c0.57-0.34,1.28-0.34,1.85,0
				C29,1.11,29,1.8,28.61,2.28C28.34,2.47,28.02,2.56,27.69,2.53z M28.67,14.08h-1.51c-0.31,0-0.47-0.15-0.47-0.45V4.1h1.51
				c0.31,0,0.47,0.15,0.47,0.45V14.08z"/>
			<path class="st1" d="M31.57,14.08c-0.31,0-0.47-0.15-0.47-0.45V4.1h1.2c0.13,0,0.25,0.03,0.36,0.1c0.12,0.1,0.18,0.24,0.19,0.39
				l0.08,0.61c0.8-0.87,1.94-1.35,3.12-1.31c0.87-0.09,1.73,0.26,2.3,0.93c0.49,0.73,0.73,1.6,0.69,2.48v6.79h-1.51
				c-0.13,0.01-0.25-0.04-0.34-0.12c-0.09-0.09-0.14-0.21-0.13-0.33V7.45c0.05-0.52-0.1-1.05-0.43-1.46
				c-0.34-0.31-0.79-0.47-1.26-0.44c-0.48-0.01-0.95,0.1-1.37,0.32c-0.33,0.18-0.63,0.4-0.9,0.66v7.55H31.57z"/>
			<path class="st1" d="M43.02,9.82c0.02,0.45,0.07,0.9,0.18,1.33c0.07,0.33,0.23,0.64,0.46,0.89c0.24,0.24,0.54,0.42,0.87,0.5
				c0.46,0.12,0.94,0.17,1.41,0.16c0.47,0,0.93-0.02,1.39-0.08c0.29-0.04,0.57-0.07,0.86-0.08c0.3,0,0.45,0.14,0.45,0.43v0.82
				c-0.42,0.16-0.85,0.27-1.28,0.34c-0.62,0.1-1.25,0.15-1.87,0.15c-0.66,0.01-1.31-0.08-1.94-0.27c-0.53-0.17-1-0.48-1.36-0.89
				c-0.39-0.47-0.66-1.02-0.79-1.61c-0.18-0.79-0.27-1.59-0.26-2.4c-0.01-0.81,0.07-1.62,0.26-2.41c0.14-0.6,0.4-1.15,0.78-1.64
				c0.34-0.42,0.78-0.74,1.28-0.92c0.57-0.2,1.18-0.3,1.79-0.29c0.64-0.02,1.27,0.09,1.86,0.32c0.45,0.19,0.84,0.49,1.14,0.87
				c0.28,0.38,0.47,0.82,0.57,1.29c0.11,0.52,0.16,1.05,0.16,1.58c0,0.37-0.02,0.73-0.06,1.1c-0.02,0.27-0.08,0.54-0.16,0.8
				L43.02,9.82z M47.16,8.43c0.01-0.13,0.02-0.23,0.02-0.29V7.88c0.04-0.65-0.09-1.31-0.38-1.89c-0.35-0.47-0.92-0.71-1.5-0.64
				c-0.38-0.01-0.75,0.06-1.1,0.22c-0.28,0.14-0.52,0.35-0.69,0.61c-0.18,0.3-0.31,0.63-0.36,0.97C43.07,7.57,43.03,8,43.02,8.43
				H47.16z"/>
			<path class="st1" d="M54.22,14.26c-1.03,0.08-2.01-0.42-2.56-1.3c-0.6-1.16-0.87-2.47-0.79-3.77c-0.12-1.42,0.22-2.84,0.97-4.05
				c0.73-0.85,1.82-1.31,2.93-1.23c0.46-0.01,0.92,0.04,1.36,0.16c0.28,0.07,0.55,0.18,0.81,0.31V0h1.51
				C58.58,0,58.7,0.04,58.8,0.12c0.09,0.09,0.14,0.21,0.13,0.33v13.63h-1.2c-0.13,0-0.26-0.03-0.36-0.1
				c-0.11-0.1-0.18-0.24-0.19-0.39l-0.08-0.61c-0.33,0.35-0.72,0.65-1.15,0.88C55.42,14.14,54.82,14.28,54.22,14.26z M56.94,5.77
				c-0.26-0.11-0.52-0.19-0.8-0.26c-0.31-0.07-0.62-0.1-0.93-0.1c-0.39-0.01-0.78,0.06-1.15,0.2c-0.3,0.13-0.56,0.35-0.72,0.64
				c-0.2,0.35-0.32,0.74-0.37,1.14c-0.08,0.56-0.11,1.13-0.11,1.7c-0.06,0.92,0.08,1.84,0.41,2.71c0.29,0.57,0.89,0.91,1.53,0.84
				c0.45,0.02,0.9-0.09,1.3-0.3c0.3-0.17,0.58-0.38,0.83-0.62L56.94,5.77z"/>
			<path class="st1" d="M65.92,14.08c-0.31,0-0.47-0.15-0.47-0.45V0.73c0.58-0.1,1.22-0.19,1.94-0.26c0.72-0.07,1.39-0.11,2.02-0.11
				c1.25-0.1,2.49,0.26,3.49,1.02c0.84,0.93,1.24,2.17,1.12,3.41c0.02,0.7-0.08,1.39-0.3,2.06c-0.17,0.52-0.47,0.99-0.85,1.37
				c-0.38,0.36-0.84,0.63-1.34,0.77c-0.57,0.17-1.16,0.25-1.75,0.25c-0.36,0-0.72-0.02-1.08-0.07c-0.38-0.05-0.78-0.12-1.2-0.21
				v5.12L65.92,14.08z M67.49,7.39c0.34,0.07,0.68,0.12,1.02,0.17c0.34,0.05,0.68,0.07,1.02,0.07c0.37,0.01,0.74-0.04,1.1-0.13
				c0.3-0.07,0.56-0.23,0.78-0.45c0.22-0.25,0.38-0.55,0.46-0.87c0.12-0.45,0.17-0.92,0.16-1.39c0.01-0.49-0.04-0.98-0.17-1.45
				c-0.09-0.32-0.26-0.62-0.5-0.85c-0.23-0.21-0.51-0.35-0.81-0.41c-0.36-0.08-0.72-0.11-1.09-0.11c-0.39,0-0.76,0.01-1.11,0.04
				C68,2.03,67.72,2.06,67.5,2.1L67.49,7.39z"/>
			<path class="st1" d="M80.45,4.04c0.19-0.02,0.37,0.02,0.53,0.13c0.09,0.09,0.14,0.21,0.14,0.34v1.31
				c-0.09-0.01-0.18-0.02-0.27-0.02h-0.26c-0.5-0.01-0.99,0.08-1.46,0.26c-0.47,0.19-0.89,0.49-1.22,0.86v7.16H76.4
				c-0.31,0-0.47-0.15-0.47-0.45V4.1h1.2c0.13-0.01,0.27,0.03,0.37,0.11c0.1,0.11,0.16,0.24,0.18,0.38l0.08,0.86
				c0.33-0.39,0.72-0.72,1.16-0.98C79.37,4.19,79.91,4.04,80.45,4.04z"/>
			<path class="st1" d="M83.84,2.53c-0.33,0.03-0.66-0.06-0.93-0.25c-0.38-0.49-0.38-1.17,0-1.66c0.57-0.34,1.28-0.34,1.85,0
				c0.39,0.48,0.39,1.17,0,1.66C84.5,2.47,84.17,2.56,83.84,2.53z M84.83,14.08h-1.51c-0.31,0-0.47-0.15-0.47-0.45V4.1h1.51
				c0.31,0,0.47,0.15,0.47,0.45L84.83,14.08z"/>
			<path class="st1" d="M87.73,14.08c-0.31,0-0.47-0.15-0.47-0.45V4.1h1.2c0.13,0,0.25,0.03,0.36,0.1c0.12,0.1,0.18,0.24,0.19,0.39
				l0.08,0.61c0.8-0.87,1.94-1.35,3.12-1.31c0.87-0.09,1.73,0.26,2.3,0.93c0.49,0.73,0.73,1.6,0.69,2.48v6.79h-1.51
				c-0.13,0.01-0.25-0.04-0.34-0.12c-0.09-0.09-0.14-0.21-0.13-0.33V7.45c0.05-0.52-0.1-1.05-0.43-1.46
				c-0.34-0.31-0.79-0.47-1.26-0.44c-0.48-0.01-0.95,0.1-1.37,0.32c-0.33,0.18-0.63,0.4-0.9,0.66v7.55H87.73z"/>
			<path class="st1" d="M102.38,14.02c-0.28,0.08-0.57,0.13-0.85,0.18c-0.28,0.04-0.55,0.06-0.83,0.06
				c-0.74,0.07-1.47-0.16-2.05-0.63c-0.47-0.55-0.7-1.26-0.64-1.98V5.67h-0.69c-0.31,0-0.47-0.15-0.47-0.45V4.1h1.2l0.1-2.59h1.37
				c0.31,0,0.47,0.15,0.47,0.45V4.1h1.92c0.13-0.01,0.25,0.04,0.34,0.12c0.09,0.09,0.13,0.21,0.13,0.33v1.12h-2.39v5.88
				c-0.02,0.29,0.05,0.57,0.18,0.82c0.17,0.22,0.43,0.33,0.71,0.29c0.22,0,0.41,0,0.56-0.01c0.15-0.01,0.29-0.01,0.42-0.01
				c0.35,0,0.53,0.15,0.53,0.45L102.38,14.02z"/>
			<path class="st1" d="M105.32,2.53c-0.33,0.03-0.66-0.06-0.93-0.25c-0.38-0.49-0.38-1.17,0-1.66c0.57-0.34,1.28-0.34,1.85,0
				c0.39,0.48,0.39,1.17,0,1.66C105.97,2.47,105.64,2.56,105.32,2.53z M106.3,14.08h-1.51c-0.31,0-0.47-0.15-0.47-0.45V4.1h1.51
				c0.31,0,0.47,0.15,0.47,0.45V14.08z"/>
			<path class="st1" d="M109.2,14.08c-0.31,0-0.47-0.15-0.47-0.45V4.1h1.2c0.13,0,0.25,0.03,0.36,0.1c0.11,0.1,0.18,0.24,0.19,0.39
				l0.08,0.61c0.8-0.87,1.94-1.35,3.12-1.31c0.87-0.09,1.73,0.26,2.29,0.93c0.49,0.73,0.73,1.6,0.69,2.48v6.79h-1.51
				c-0.13,0.01-0.25-0.04-0.34-0.12c-0.09-0.09-0.13-0.21-0.13-0.33V7.45c0.05-0.52-0.1-1.05-0.43-1.46
				c-0.34-0.31-0.79-0.47-1.26-0.44c-0.48-0.01-0.95,0.1-1.37,0.32c-0.33,0.18-0.63,0.4-0.9,0.66v7.55H109.2z"/>
			<path class="st1" d="M118.77,9c-0.02-0.82,0.08-1.64,0.29-2.44c0.15-0.58,0.45-1.12,0.87-1.55c0.41-0.4,0.92-0.68,1.48-0.81
				c0.69-0.17,1.4-0.25,2.11-0.24c0.52,0,1.06,0.03,1.63,0.08c0.56,0.05,1.04,0.11,1.43,0.18c0.2,0.02,0.39,0.08,0.56,0.18
				c0.14,0.11,0.21,0.29,0.19,0.47v0.84h-0.74c0.04,0.82,0.07,1.64,0.08,2.44s0.02,1.6,0.02,2.38v3.51
				c0.07,0.97-0.28,1.93-0.96,2.63c-0.84,0.67-1.91,0.99-2.98,0.9c-0.21,0-0.45-0.01-0.71-0.03c-0.26-0.02-0.53-0.05-0.8-0.08
				s-0.52-0.07-0.76-0.12c-0.21-0.04-0.41-0.09-0.6-0.17c-0.13-0.04-0.25-0.13-0.32-0.24c-0.05-0.11-0.07-0.24-0.07-0.36v-0.82
				c0.46,0.07,0.91,0.12,1.37,0.16s0.89,0.06,1.31,0.06c0.69,0.06,1.38-0.08,1.99-0.4c0.4-0.34,0.61-0.86,0.56-1.38v-1.22
				c-0.36,0.25-0.74,0.45-1.15,0.61c-0.44,0.15-0.9,0.23-1.36,0.22c-0.58,0.02-1.15-0.1-1.68-0.35c-0.43-0.23-0.79-0.57-1.05-0.99
				c-0.28-0.46-0.46-0.98-0.55-1.51C118.81,10.29,118.76,9.65,118.77,9z M120.75,8.96c-0.01,0.52,0.03,1.04,0.12,1.55
				c0.06,0.36,0.18,0.71,0.36,1.02c0.15,0.25,0.37,0.44,0.64,0.56c0.29,0.12,0.61,0.17,0.92,0.17c0.36,0.01,0.73-0.05,1.07-0.19
				c0.3-0.13,0.58-0.28,0.85-0.46V5.57c-0.21-0.03-0.42-0.04-0.64-0.05s-0.42-0.01-0.6-0.01c-0.42-0.01-0.83,0.04-1.24,0.14
				c-0.33,0.08-0.62,0.26-0.84,0.52c-0.25,0.3-0.42,0.66-0.49,1.05C120.79,7.79,120.73,8.38,120.75,8.96L120.75,8.96z"/>
			<path class="st1" d="M138.02,0.29c0.48,0,0.95,0.04,1.42,0.11c0.39,0.05,0.78,0.14,1.15,0.28c0.13,0.05,0.25,0.14,0.32,0.26
				c0.06,0.13,0.09,0.27,0.09,0.41v0.92c-0.38-0.05-0.8-0.1-1.26-0.15c-0.46-0.04-0.94-0.07-1.44-0.07
				c-0.51-0.01-1.01,0.07-1.49,0.24c-0.41,0.17-0.75,0.46-0.98,0.83c-0.28,0.49-0.46,1.02-0.53,1.58c-0.12,0.82-0.17,1.65-0.16,2.48
				c-0.01,0.9,0.05,1.8,0.2,2.69c0.09,0.57,0.28,1.12,0.58,1.62c0.23,0.36,0.57,0.64,0.97,0.79c0.45,0.15,0.92,0.22,1.39,0.21
				c0.48,0,0.96-0.03,1.43-0.1c0.3-0.06,0.61-0.09,0.92-0.1c0.33,0,0.49,0.16,0.49,0.47v0.96c-0.44,0.16-0.9,0.29-1.36,0.38
				c-0.6,0.12-1.22,0.17-1.83,0.17c-0.76,0.02-1.51-0.11-2.22-0.39c-0.61-0.26-1.14-0.69-1.52-1.24c-0.44-0.66-0.73-1.4-0.87-2.18
				c-0.2-1.05-0.29-2.12-0.27-3.19c-0.02-1.08,0.08-2.16,0.27-3.21c0.14-0.78,0.43-1.52,0.87-2.18c0.38-0.55,0.92-0.98,1.54-1.23
				C136.47,0.4,137.24,0.27,138.02,0.29z"/>
			<path class="st1" d="M146.67,14.31c-1.21,0.11-2.39-0.35-3.2-1.25c-1.32-2.48-1.32-5.46,0-7.94c1.81-1.67,4.6-1.67,6.41,0
				c1.32,2.48,1.32,5.46,0,7.94C149.07,13.96,147.88,14.43,146.67,14.31z M148.87,9.08c0.01-0.59-0.03-1.18-0.13-1.76
				c-0.06-0.4-0.19-0.78-0.39-1.13c-0.16-0.27-0.4-0.48-0.69-0.6c-0.64-0.23-1.34-0.23-1.98,0c-0.29,0.12-0.53,0.33-0.69,0.6
				c-0.2,0.35-0.33,0.73-0.39,1.13c-0.09,0.58-0.14,1.17-0.13,1.76c-0.01,0.6,0.03,1.2,0.13,1.8c0.06,0.4,0.19,0.79,0.39,1.14
				c0.16,0.27,0.4,0.47,0.69,0.59c0.64,0.22,1.34,0.22,1.98,0c0.29-0.12,0.53-0.32,0.69-0.59c0.2-0.35,0.33-0.74,0.39-1.14
				C148.84,10.28,148.88,9.68,148.87,9.08L148.87,9.08z"/>
			<path class="st1" d="M159.22,14.08c-0.13,0.01-0.25-0.04-0.34-0.12c-0.09-0.09-0.14-0.21-0.13-0.33V7.45
				c0.05-0.52-0.1-1.04-0.41-1.46c-0.31-0.31-0.74-0.47-1.18-0.44c-0.45-0.01-0.89,0.1-1.28,0.31c-0.32,0.18-0.61,0.39-0.87,0.65
				v7.57h-1.51c-0.31,0-0.47-0.15-0.47-0.45V4.1h1.2c0.13,0,0.26,0.03,0.36,0.1c0.12,0.1,0.18,0.24,0.19,0.39l0.08,0.61
				c0.36-0.4,0.79-0.72,1.27-0.96c0.54-0.25,1.13-0.37,1.72-0.35c0.52-0.01,1.03,0.1,1.5,0.32c0.47,0.23,0.84,0.63,1.03,1.12
				c0.36-0.39,0.79-0.72,1.25-0.98c0.6-0.32,1.28-0.48,1.96-0.45c0.79-0.05,1.57,0.25,2.13,0.81c0.57,0.74,0.84,1.67,0.76,2.6v6.79
				h-1.53c-0.22,0.03-0.42-0.12-0.45-0.34c-0.01-0.04-0.01-0.07,0-0.11V7.45c0.05-0.52-0.1-1.04-0.41-1.46
				c-0.31-0.31-0.74-0.47-1.18-0.44c-0.47-0.01-0.93,0.1-1.33,0.34c-0.32,0.19-0.61,0.42-0.88,0.68c0.04,0.34,0.06,0.68,0.06,1.02
				v6.49L159.22,14.08z"/>
			<path class="st1" d="M173.24,14.2c-0.47,0.01-0.94-0.06-1.39-0.2c-0.32-0.11-0.64-0.25-0.94-0.41v3.82h-1.51
				c-0.31,0-0.47-0.15-0.47-0.45v-6.61c0-0.75,0.01-1.51,0.02-2.29s0.04-1.57,0.08-2.35h-0.35c-0.26,0-0.39-0.15-0.39-0.43V4.33
				c0.2-0.04,0.44-0.08,0.73-0.13c0.3-0.04,0.61-0.09,0.95-0.12s0.7-0.06,1.08-0.09s0.74-0.04,1.1-0.04
				c0.73-0.01,1.45,0.07,2.16,0.24c0.56,0.14,1.08,0.43,1.49,0.83c0.42,0.44,0.71,0.97,0.86,1.56c0.2,0.8,0.29,1.62,0.28,2.44
				c0.1,1.37-0.21,2.73-0.9,3.91C175.37,13.81,174.32,14.28,173.24,14.2z M172.69,12.65c0.34,0.01,0.69-0.05,1.01-0.17
				c0.29-0.11,0.53-0.32,0.7-0.58c0.21-0.34,0.34-0.72,0.4-1.11c0.09-0.58,0.14-1.17,0.13-1.76c0.01-0.55-0.03-1.1-0.12-1.64
				c-0.06-0.4-0.2-0.77-0.43-1.1c-0.22-0.29-0.51-0.5-0.85-0.61c-0.45-0.14-0.91-0.2-1.38-0.19c-0.16,0-0.35,0-0.59,0.01
				c-0.22,0-0.43,0.02-0.65,0.05v6.65c0.26,0.13,0.52,0.23,0.8,0.31C172.03,12.61,172.36,12.65,172.69,12.65z"/>
			<path class="st1" d="M181.61,14.25c-0.85,0.07-1.68-0.24-2.27-0.84c-0.53-0.66-0.8-1.49-0.74-2.33
				c-0.02-0.52,0.08-1.05,0.28-1.53c0.18-0.39,0.45-0.72,0.8-0.97c0.37-0.25,0.79-0.43,1.23-0.51c0.5-0.1,1.02-0.15,1.53-0.15h2.02
				V7.25c0.06-0.52-0.13-1.04-0.53-1.39c-0.55-0.29-1.18-0.42-1.8-0.37c-0.52,0-1.04,0.03-1.55,0.09c-0.3,0.04-0.6,0.07-0.9,0.09
				c-0.13,0.01-0.27-0.03-0.36-0.13c-0.07-0.09-0.11-0.21-0.11-0.32V4.37c0.51-0.15,1.02-0.27,1.55-0.35
				c0.58-0.09,1.17-0.14,1.77-0.14c0.63-0.02,1.26,0.07,1.86,0.25c0.45,0.14,0.86,0.38,1.2,0.7c0.3,0.31,0.52,0.68,0.64,1.1
				c0.13,0.47,0.19,0.95,0.19,1.43v6.73h-1.2c-0.22,0-0.36-0.05-0.41-0.15c-0.06-0.11-0.1-0.22-0.12-0.34l-0.08-0.59
				c-0.37,0.35-0.78,0.64-1.23,0.87C182.82,14.14,182.22,14.27,181.61,14.25z M182.38,9.31c-0.33-0.01-0.66,0.03-0.98,0.13
				c-0.23,0.07-0.44,0.19-0.62,0.35c-0.15,0.15-0.26,0.33-0.31,0.54c-0.06,0.22-0.09,0.46-0.09,0.69c-0.04,0.48,0.11,0.95,0.43,1.31
				c0.37,0.3,0.84,0.45,1.31,0.41c0.47,0.01,0.93-0.09,1.35-0.3c0.36-0.19,0.69-0.42,0.98-0.7V9.31L182.38,9.31z"/>
			<path class="st1" d="M189.22,14.08c-0.31,0-0.47-0.15-0.47-0.45V4.1h1.2c0.13,0,0.25,0.03,0.36,0.1c0.12,0.1,0.18,0.24,0.19,0.39
				l0.08,0.61c0.8-0.87,1.94-1.35,3.12-1.31c0.87-0.09,1.73,0.26,2.29,0.93c0.49,0.73,0.73,1.6,0.69,2.48v6.79h-1.51
				c-0.13,0.01-0.25-0.04-0.34-0.12c-0.09-0.09-0.14-0.21-0.13-0.33V7.45c0.05-0.52-0.1-1.05-0.43-1.46
				c-0.34-0.31-0.79-0.47-1.26-0.44c-0.48-0.01-0.95,0.1-1.37,0.32c-0.33,0.18-0.63,0.4-0.9,0.66v7.55H189.22z"/>
			<path class="st1" d="M200.28,4.55c0.13,0.76,0.26,1.42,0.38,1.98c0.12,0.56,0.25,1.12,0.41,1.67c0.16,0.55,0.36,1.14,0.59,1.76
				s0.54,1.37,0.91,2.24c0.52-1.24,0.93-2.53,1.23-3.84c0.33-1.4,0.58-2.82,0.76-4.26h1.47c0.12-0.02,0.24,0.02,0.33,0.11
				c0.05,0.08,0.08,0.17,0.08,0.26c0,0.16-0.02,0.33-0.05,0.49c-0.03,0.21-0.06,0.4-0.09,0.57c-0.21,1.24-0.49,2.46-0.84,3.66
				c-0.34,1.13-0.68,2.12-1.02,2.95c-0.35,0.91-0.76,1.8-1.24,2.66c-0.32,0.59-0.72,1.14-1.17,1.64c-0.59,0.68-1.45,1.07-2.35,1.06
				c-0.18,0-0.35-0.01-0.53-0.03c-0.15-0.01-0.3-0.04-0.43-0.11c-0.21-0.09-0.35-0.3-0.33-0.53v-0.9c0.16,0.01,0.3,0.02,0.41,0.02
				h0.33c0.29,0.01,0.58-0.04,0.86-0.13c0.24-0.08,0.45-0.21,0.64-0.37c0.2-0.18,0.37-0.39,0.51-0.63c0.16-0.25,0.33-0.55,0.51-0.89
				c-0.44-0.76-0.84-1.54-1.2-2.34c-0.37-0.82-0.7-1.65-0.99-2.49c-0.3-0.84-0.55-1.68-0.77-2.52c-0.21-0.81-0.37-1.64-0.48-2.47
				h1.59c0.2,0,0.32,0.05,0.37,0.15C200.21,4.34,200.25,4.44,200.28,4.55z"/>
		</g>
		<line class="st2" x1="0.94" y1="38.86" x2="205.86" y2="38.86"/>
		<path class="st3" d="M18.08,0.06C18.62,0,19.16-0.01,19.7,0.05c2.38,0.21,4.7,0.89,6.81,2.01c2.74,1.45,5.07,3.58,6.77,6.18
			c1.74,2.67,2.77,5.73,2.99,8.91c-0.05,0.84-0.05,1.68,0.02,2.51c-0.15,2.41-0.77,4.77-1.81,6.96c-1.2,2.52-2.96,4.73-5.14,6.46
			c-2.7,2.16-5.98,3.49-9.42,3.82c-0.52,0.07-1.04,0.1-1.56,0.09c-0.35,0.04-0.7,0.02-1.03-0.05c1.27-3.66,2.54-7.31,3.83-10.97
			c1.4-0.03,2.8,0.01,4.2-0.02c0.93-0.02,1.75-0.6,2.07-1.47c1.18-3.4,2.4-6.79,3.54-10.2c0.22-0.51,0.27-1.08,0.14-1.63
			c-0.23-0.67-0.79-1.18-1.48-1.35c-0.58-0.13-1.18-0.17-1.77-0.13c-1.8-0.01-3.6,0.01-5.39-0.01l-0.12,0.25
			c-2.9,8.33-5.81,16.67-8.72,25c-3.03-0.8-5.8-2.38-8.03-4.58C2.89,29.17,1.06,25.74,0.36,22C0.16,20.88,0.04,19.74,0,18.61
			c0.02-2.37,0.46-4.72,1.3-6.94c2.15-5.61,6.94-9.8,12.79-11.19c-2.93,8.3-5.79,16.62-8.72,24.92c0.19,0.04,0.38,0.05,0.58,0.04
			c1.07-0.01,2.14,0,3.21-0.01c0.14,0,0.13-0.21,0.19-0.3c1.29-3.71,2.59-7.42,3.88-11.12c0.08-0.23,0.15-0.46,0.25-0.68
			c0.68,0.01,1.34,0,2.01,0.01c-1.4,4.02-2.8,8.04-4.22,12.05c0.15,0.04,0.31,0.06,0.47,0.05c1.13-0.01,2.25,0,3.37-0.01
			c1.27-3.65,2.54-7.3,3.82-10.95c0.31-0.75,0.26-1.6-0.14-2.31c-0.41-0.58-1.07-0.93-1.78-0.93c-0.93-0.03-1.87,0-2.8-0.02
			C15.5,7.5,16.82,3.8,18.08,0.06"/>
		<path class="st3" d="M25.55,13.37c0.11-0.13,0.31-0.05,0.46-0.07c0.52,0.01,1.04,0,1.56,0.01c-1.21,3.52-2.47,7.02-3.66,10.54
			c-0.68,0.04-1.35,0.02-2.02,0.01C23.11,20.37,24.33,16.87,25.55,13.37"/>
	</g>
</g>
</svg>
