<?xml version="1.0" encoding="utf-8"?>
<!-- Generator: Adobe Illustrator 24.2.3, SVG Export Plug-In . SVG Version: 6.00 Build 0)  -->
<svg version="1.1" id="Capa_1" xmlns="http://www.w3.org/2000/svg" xmlns:xlink="http://www.w3.org/1999/xlink" x="0px" y="0px"
	 viewBox="0 0 54.14 54.14" style="enable-background:new 0 0 54.14 54.14;" xml:space="preserve">
<style type="text/css">
	.st0{fill:none;}
	.st1{fill:#17A9EB;}
</style>
<g transform="translate(-4482.475 -3951.307)">
	<g transform="translate(4482.475 3951.307)">
		<path class="st0" d="M34.29,14.83c-5.94-3.57-13.58-2.28-18.02,3.03c-2.18,2.43-3.39,5.56-3.43,8.82
			c-0.06,5.85,2.62,10.15,7.66,13c1.84,1.01,3.9,1.57,6,1.62c2.67,0.1,5.31-0.55,7.63-1.87c0.21-0.12,0.35-0.15,0.53,0.05
			c0.21,0.23,0.46,0.43,0.68,0.66c0.33,0.4,0.89,0.52,1.35,0.3c0.51-0.18,0.85-0.66,0.86-1.21c0.02-0.84,0-1.68,0-2.52
			c0-1.28,0-2.56-0.02-3.84c0.03-0.88-0.66-1.62-1.55-1.65c-0.04,0-0.09,0-0.13,0c-2.09,0-4.19,0-6.28,0
			c-0.57,0-1.08,0.35-1.29,0.87c-0.19,0.49-0.05,1.05,0.35,1.39c0.27,0.27,0.55,0.53,0.85,0.82c-2.74,2.37-6.61,2.95-9.93,1.48
			c-3.21-1.42-5.33-4.53-5.48-8.04c0.1-0.02,0.21-0.03,0.31-0.03c1.6,0,3.2,0.01,4.79-0.01c0.36,0,0.42,0.14,0.45,0.45
			c0.18,2.32,0.8,4.59,1.81,6.69l0.01,0.01c0,0.01,0,0.02,0.01,0.03c0.14,0.3,0.49,0.43,0.79,0.29c0.28-0.13,0.41-0.45,0.31-0.74
			l0,0c-1-2.1-1.59-4.37-1.75-6.69h12.49c-0.05,0.54-0.1,1.05-0.15,1.6h0.01c0,0.01-0.01,0.03-0.01,0.04
			c-0.03,0.32,0.21,0.61,0.53,0.64c0.31,0.03,0.58-0.18,0.64-0.48l0,0v-0.04v-0.01c0,0,0,0,0-0.01c0.05-0.49,0.1-0.97,0.17-1.44
			c0.02-0.12,0.16-0.32,0.24-0.32c1.76-0.02,3.52-0.01,5.33-0.01c-0.06,1.68-0.46,3.34-1.17,4.87c-0.01,0.02-0.02,0.04-0.03,0.06
			c-0.13,0.31,0.01,0.66,0.32,0.79c0.31,0.13,0.66-0.01,0.79-0.32l0,0l0.02-0.06c0-0.01,0.01-0.01,0.01-0.02v-0.01
			c0.17-0.43,0.35-0.84,0.5-1.26C42.69,25.36,40.1,18.29,34.29,14.83z M17.87,36.17c1.98,1.27,4.33,1.82,6.66,1.55
			c2.33-0.25,4.52-1.26,6.21-2.88c0.27-0.18,0.34-0.55,0.16-0.82c-0.04-0.06-0.09-0.11-0.14-0.15c-0.37-0.37-0.75-0.73-1.12-1.1
			c-0.08-0.1-0.16-0.2-0.24-0.31c0.15-0.02,0.21-0.03,0.28-0.03c2.08,0,4.16,0,6.24-0.01c0.34,0,0.41,0.15,0.41,0.45
			c0.01,2.01,0.03,4.02,0.04,6.03c0,0.13-0.02,0.26-0.04,0.49c-0.49-0.45-0.89-0.84-1.3-1.22c-0.23-0.3-0.66-0.36-0.96-0.13
			c-0.01,0.01-0.02,0.02-0.04,0.03c-5.15,3.25-11.86,2.54-16.22-1.71c-0.07-0.08-0.13-0.16-0.19-0.24
			C17.72,36.1,17.8,36.12,17.87,36.17L17.87,36.17z M36.62,18.14l-3.53,1.54c-0.83-1.93-1.92-3.73-3.24-5.36
			C32.44,14.88,34.8,16.21,36.62,18.14L36.62,18.14z M27.48,14.02c0.33,0.02,0.63,0.16,0.85,0.4c1.39,1.54,2.54,3.29,3.41,5.18
			c0.05,0.12,0.09,0.24,0.14,0.36c-2.36,0.92-7.55,0.94-9.71,0.04c0.8-1.79,1.83-3.47,3.06-5C25.72,14.25,26.6,13.87,27.48,14.02
			L27.48,14.02z M24.13,14.39c-0.59,0.86-1.19,1.68-1.71,2.55s-0.98,1.8-1.5,2.78l-3.4-1.53C19.27,16.26,21.58,14.93,24.13,14.39
			L24.13,14.39z M19.54,26.47h-5.47c-0.01-0.06-0.02-0.12-0.02-0.18c0.13-2.53,1-4.97,2.5-7.01c0.14-0.2,0.27-0.16,0.45-0.07
			c0.92,0.44,1.84,0.87,2.76,1.29c0.26,0.12,0.53,0.2,0.81,0.31C19.94,22.64,19.59,24.55,19.54,26.47z M32.84,26.5h-11.6
			c-0.15,0-0.29-0.02-0.48-0.03c0.03-1.81,0.36-3.61,0.96-5.32c3.48,0.94,7.15,0.93,10.62-0.05c0.07,0.19,0.12,0.33,0.17,0.48
			c0.45,1.43,0.73,2.91,0.81,4.41C33.35,26.49,33.35,26.5,32.84,26.5L32.84,26.5z M40.07,26.47h-5.55
			c-0.03-1.93-0.37-3.83-0.99-5.66l3.89-1.72C39.05,21.22,39.98,23.8,40.07,26.47L40.07,26.47z"/>
		<path class="st1" d="M17,19.22c-0.18-0.09-0.31-0.13-0.45,0.07c-1.5,2.04-2.37,4.48-2.5,7.01c0,0.06,0.01,0.12,0.02,0.18h5.47
			c0.05-1.93,0.39-3.83,1.02-5.66c-0.28-0.11-0.55-0.19-0.81-0.31C18.84,20.09,17.92,19.66,17,19.22z"/>
		<path class="st1" d="M31.88,19.96c-0.04-0.12-0.08-0.25-0.14-0.36c-0.87-1.89-2.02-3.63-3.41-5.18c-0.22-0.24-0.53-0.38-0.85-0.4
			c-0.88-0.15-1.76,0.24-2.25,0.98c-1.23,1.53-2.26,3.21-3.06,5C24.33,20.9,29.52,20.88,31.88,19.96z"/>
		<path class="st1" d="M36.62,18.14c-1.82-1.93-4.18-3.26-6.77-3.82c1.32,1.63,2.41,3.43,3.24,5.36L36.62,18.14z"/>
		<path class="st1" d="M22.42,16.94c0.52-0.87,1.13-1.69,1.71-2.55c-2.55,0.54-4.87,1.87-6.62,3.8l3.4,1.53
			C21.44,18.74,21.89,17.82,22.42,16.94z"/>
		<path class="st1" d="M27.07,0C12.12,0,0,12.12,0,27.07s12.12,27.07,27.07,27.07c14.95,0,27.07-12.12,27.07-27.07
			C54.14,12.12,42.02,0,27.07,0z M40.51,31.76c-0.15,0.42-0.33,0.83-0.5,1.26v0.01c0,0.01-0.01,0.01-0.01,0.02l-0.02,0.06l0,0
			c-0.13,0.31-0.48,0.45-0.79,0.32c-0.31-0.13-0.45-0.48-0.32-0.79l0,0c0.01-0.02,0.02-0.04,0.03-0.06
			c0.71-1.53,1.11-3.18,1.17-4.87c-1.81,0-3.57,0-5.33,0.01c-0.09,0-0.22,0.2-0.24,0.32c-0.08,0.47-0.12,0.95-0.17,1.44
			c0,0,0,0,0,0.01v0.01v0.04l0,0c-0.06,0.32-0.36,0.53-0.68,0.48c-0.3-0.05-0.51-0.33-0.48-0.64c0-0.01,0.01-0.03,0.01-0.04h-0.01
			c0.05-0.55,0.1-1.06,0.15-1.6h-12.5c0.16,2.32,0.75,4.59,1.75,6.69l0,0c0.11,0.31-0.05,0.65-0.36,0.76
			c-0.29,0.1-0.61-0.03-0.74-0.31c0-0.01-0.01-0.02-0.01-0.03l-0.01-0.01c-1.01-2.1-1.62-4.37-1.81-6.69
			c-0.02-0.32-0.09-0.46-0.45-0.45c-1.6,0.02-3.2,0.01-4.79,0.01c-0.1,0.01-0.21,0.02-0.31,0.03c0.15,3.5,2.28,6.62,5.48,8.04
			c3.32,1.47,7.18,0.89,9.93-1.48c-0.3-0.28-0.58-0.54-0.85-0.82c-0.4-0.34-0.54-0.9-0.35-1.39c0.21-0.53,0.72-0.87,1.29-0.87
			c2.09,0,4.19,0,6.28,0c0.88-0.04,1.63,0.64,1.67,1.52c0,0.04,0,0.09,0,0.13c0.01,1.28,0.01,2.56,0.02,3.84
			c0,0.84,0.02,1.68,0,2.52c-0.01,0.54-0.35,1.02-0.86,1.21c-0.47,0.22-1.02,0.1-1.35-0.3c-0.22-0.23-0.47-0.42-0.68-0.66
			c-0.18-0.2-0.32-0.17-0.53-0.05c-2.32,1.33-4.96,1.98-7.63,1.87c-2.1-0.05-4.16-0.6-6-1.62c-5.05-2.85-7.72-7.15-7.66-13
			c0.03-3.26,1.25-6.39,3.43-8.82c4.44-5.31,12.09-6.6,18.02-3.03C40.11,18.3,42.71,25.36,40.51,31.76L40.51,31.76z"/>
		<path class="st1" d="M34.52,26.47h5.55c-0.1-2.67-1.03-5.25-2.65-7.38l-3.89,1.72C34.16,22.63,34.49,24.54,34.52,26.47z"/>
		<path class="st1" d="M32.52,21.59c-0.05-0.14-0.1-0.28-0.17-0.48c-3.47,0.97-7.14,0.99-10.62,0.05c-0.61,1.71-0.93,3.5-0.96,5.32
			c0.18,0.01,0.33,0.03,0.48,0.03h11.61c0.51,0,0.51-0.01,0.48-0.5C33.24,24.5,32.97,23.02,32.52,21.59z"/>
	</g>
</g>
</svg>
