<?xml version="1.0" encoding="utf-8"?>
<!-- Generator: Adobe Illustrator 24.2.3, SVG Export Plug-In . SVG Version: 6.00 Build 0)  -->
<svg version="1.1" id="Capa_1" xmlns="http://www.w3.org/2000/svg" xmlns:xlink="http://www.w3.org/1999/xlink" x="0px" y="0px"
	 viewBox="0 0 40.56 26.87" style="enable-background:new 0 0 40.56 26.87;" xml:space="preserve">
<style type="text/css">
	.st0{fill:#BFBFBF;}
</style>
<path class="st0" d="M40.44,20.82L36.57,4.78c-0.58-2.52-2.67-4.42-5.24-4.76C31.18,0.01,31.02,0,30.86,0H9.96
	C8.66,0.04,7.41,0.5,6.4,1.31C5.28,2.12,4.45,3.26,4,4.56C3.98,4.63,3.96,4.71,3.94,4.78L0.07,20.82c-0.45,2.67,1.25,5.23,3.88,5.84
	c0.5,0.14,1.02,0.2,1.54,0.2h3.2l9.47-15.02l-7.34,2.27c-0.89,0.34-1.85,0.45-2.79,0.34c-0.34-0.04-0.67-0.15-0.97-0.33
	c-0.19-0.11-0.34-0.27-0.45-0.45c-0.13-0.24-0.15-0.53-0.07-0.79c0.1-0.29,0.26-0.55,0.47-0.78c0.5-0.51,1.1-0.9,1.77-1.15
	c0.09-0.04,0.18-0.07,0.27-0.1l13.19-4.9c0.53-0.21,1.08-0.35,1.64-0.41c0.23-0.02,0.46-0.02,0.69,0.01
	c0.71,0.05,1.38,0.35,1.89,0.84l6.43,6.96c0.53,0.49,0.7,1.25,0.42,1.92c-0.2,0.42-0.53,0.77-0.94,0.98
	c-0.17,0.1-0.36,0.18-0.54,0.25c-1.27,0.46-2.68,0.37-3.88-0.26c-0.25-0.14-0.47-0.31-0.66-0.52l-3.79-3.26l-4.59,14.39h16.4
	c2.73,0.16,5.08-1.93,5.23-4.67C40.58,21.73,40.55,21.27,40.44,20.82"/>
</svg>
