<?xml version="1.0" encoding="utf-8"?>
<!-- Generator: Adobe Illustrator 24.2.3, SVG Export Plug-In . SVG Version: 6.00 Build 0)  -->
<svg version="1.1" id="Capa_1" xmlns="http://www.w3.org/2000/svg" xmlns:xlink="http://www.w3.org/1999/xlink" x="0px" y="0px"
	 viewBox="0 0 39.23 39.23" style="enable-background:new 0 0 39.23 39.23;" xml:space="preserve">
<style type="text/css">
	.st0{fill:#B5B5B5;}
</style>
<path class="st0" d="M17.91,16.41c-0.23-0.13-0.45,0.04-0.45,0.3v5.86c0,0.26,0.21,0.42,0.43,0.3l5.21-2.86
	c0.17-0.08,0.24-0.28,0.16-0.46c-0.03-0.05-0.07-0.1-0.12-0.14L17.91,16.41z"/>
<path class="st0" d="M19.61,0C8.78,0,0,8.79,0,19.62c0,10.83,8.79,19.61,19.62,19.61c10.83,0,19.61-8.79,19.61-19.62
	C39.22,8.78,30.44,0.01,19.61,0z M31.35,22.76c0,2.78-2.26,5.04-5.04,5.04H13.26c-2.78,0-5.04-2.26-5.04-5.04v-6.12
	c0-2.78,2.25-5.03,5.03-5.04c0,0,0,0,0,0h13.06c2.78,0,5.04,2.25,5.04,5.04V22.76z"/>
</svg>
