<?xml version="1.0" encoding="utf-8"?>
<!-- Generator: Adobe Illustrator 24.2.3, SVG Export Plug-In . SVG Version: 6.00 Build 0)  -->
<svg version="1.1" id="Capa_1" xmlns="http://www.w3.org/2000/svg" xmlns:xlink="http://www.w3.org/1999/xlink" x="0px" y="0px"
	 viewBox="0 0 63.69 63.69" style="enable-background:new 0 0 63.69 63.69;" xml:space="preserve">
<style type="text/css">
	.st0{fill:#17A9EB;}
	.st1{fill:#FFFFFF;}
</style>
<g transform="translate(-1348.215 -1682)">
	<path class="st0" d="M1380.06,1682c-17.59,0-31.85,14.26-31.85,31.85s14.26,31.85,31.85,31.85c17.59,0,31.85-14.26,31.85-31.85
		S1397.65,1682,1380.06,1682C1380.06,1682,1380.06,1682,1380.06,1682z"/>
	<g transform="translate(1368.927 1698.987)">
		<path class="st1" d="M10.23,29.72c0.55-0.94,0.99-1.95,1.29-2.99c0.29-0.95,0.42-1.93,0.39-2.92c-0.12-1.78-0.69-3.51-1.66-5.01
			c-0.96-1.47-2.01-2.87-3.15-4.2c-0.93-1.06-1.72-2.24-2.33-3.51C4.08,9.64,4.26,7.94,5.22,6.66C6.33,5.22,7.71,4.01,9.29,3.1
			c1.82-1.13,3.7-2.14,5.65-3.01C15.05,0.03,15.18,0,15.3,0c-0.09,0.1-0.18,0.2-0.28,0.29c-1.39,1.25-2.6,2.69-3.58,4.28
			c-0.67,1.06-1.04,2.29-1.07,3.55c0.02,1.38,0.51,2.72,1.38,3.79c0.87,1.12,1.83,2.18,2.75,3.25c0.92,0.97,1.7,2.06,2.31,3.26
			c0.59,1.25,0.64,2.69,0.14,3.99c-0.67,1.66-1.72,3.14-3.06,4.32c-1.11,1.05-2.3,2-3.46,3L10.23,29.72z"/>
		<path class="st1" d="M16.12,2.02c-0.23,0.57-0.46,1.05-0.62,1.55c-0.44,1.35-0.39,2.82,0.15,4.14c0.63,1.39,1.47,2.68,2.49,3.81
			c1.01,1.24,2.05,2.46,2.99,3.75c0.8,1.04,1.2,2.32,1.13,3.63c-0.07,0.82-0.32,1.6-0.74,2.31c-0.78,1.3-1.81,2.42-3.04,3.31
			c0.16-0.32,0.34-0.63,0.49-0.95c0.9-1.78,0.89-3.88-0.01-5.66c-0.82-1.56-1.83-3.01-3.01-4.31c-1.07-1.19-2.01-2.49-2.79-3.89
			c-0.54-1-0.72-2.15-0.5-3.27c0.16-0.79,0.53-1.53,1.06-2.14c0.64-0.72,1.36-1.37,2.04-2.04C15.89,2.16,16,2.09,16.12,2.02z"/>
		<path class="st1" d="M7.73,28.14c0-0.16,0.02-0.32,0.04-0.47c0.21-1.28,0.07-2.6-0.42-3.81c-0.85-2.01-2.02-3.87-3.46-5.52
			c-1.14-1.34-2.16-2.78-3.05-4.3c-0.46-0.8-0.74-1.7-0.82-2.62c-0.08-1.06,0.18-2.13,0.73-3.04C1.45,7.24,2.39,6.25,3.5,5.47
			C3.29,5.91,3.07,6.35,2.88,6.8C2.24,8.16,2.07,9.71,2.4,11.18c0.3,1.16,0.85,2.25,1.61,3.18c0.99,1.27,2.03,2.5,3.04,3.76
			C7.99,19.25,8.66,20.57,9,22c0.22,1.04,0.2,2.12-0.04,3.16c-0.24,1-0.6,1.96-1.07,2.88c-0.02,0.04-0.05,0.08-0.08,0.12L7.73,28.14
			z"/>
	</g>
</g>
</svg>
