<?xml version="1.0" encoding="utf-8"?>
<!-- Generator: Adobe Illustrator 24.2.3, SVG Export Plug-In . SVG Version: 6.00 Build 0)  -->
<svg version="1.1" id="Capa_1" xmlns="http://www.w3.org/2000/svg" xmlns:xlink="http://www.w3.org/1999/xlink" x="0px" y="0px"
	 viewBox="0 0 63.53 63.53" style="enable-background:new 0 0 63.53 63.53;" xml:space="preserve">
<style type="text/css">
	.st0{fill:#17A9EB;}
	.st1{fill:none;stroke:#FFFFFF;stroke-width:2;stroke-miterlimit:10;stroke-dasharray:3;}
	.st2{fill:none;stroke:#FFFFFF;stroke-width:2;}
</style>
<g transform="translate(-368 -1682)">
	<path class="st0" d="M399.76,1682c-17.54,0-31.76,14.22-31.76,31.76s14.22,31.76,31.76,31.76s31.76-14.22,31.76-31.76c0,0,0,0,0,0
		C431.52,1696.22,417.3,1682,399.76,1682z"/>
	<path class="st1" d="M383.88,1702.22h32.1c0.76,0,1.38,0.62,1.38,1.38v24.12c0,0.76-0.62,1.38-1.38,1.38h-32.1
		c-0.76,0-1.38-0.62-1.38-1.38v-24.12C382.5,1702.83,383.12,1702.22,383.88,1702.22z"/>
	<path class="st2" d="M388.34,1706.49h22.34c0.46,0,0.84,0.38,0.84,0.84v16.65c0,0.46-0.38,0.84-0.84,0.84h-22.34
		c-0.46,0-0.84-0.38-0.84-0.84v-16.65C387.5,1706.87,387.88,1706.49,388.34,1706.49z"/>
</g>
</svg>
