<?xml version="1.0" encoding="utf-8"?>
<!-- Generator: Adobe Illustrator 24.2.3, SVG Export Plug-In . SVG Version: 6.00 Build 0)  -->
<svg version="1.1" id="Capa_1" xmlns="http://www.w3.org/2000/svg" xmlns:xlink="http://www.w3.org/1999/xlink" x="0px" y="0px"
	 viewBox="0 0 63.28 63.28" style="enable-background:new 0 0 63.28 63.28;" xml:space="preserve">
<style type="text/css">
	.st0{fill:#17A9EB;}
</style>
<g transform="translate(-397.713 -872.98)">
	<path class="st0" d="M425.5,904.62c0,2.25,1.82,4.07,4.07,4.07c2.25,0,4.07-1.82,4.07-4.07c0-2.25-1.82-4.07-4.07-4.07
		C427.32,900.55,425.5,902.37,425.5,904.62z"/>
	<path class="st0" d="M429.35,872.98c-17.47,0-31.64,14.16-31.64,31.64c0,17.47,14.16,31.64,31.64,31.64s31.64-14.16,31.64-31.64
		c0,0,0,0,0,0C460.99,887.15,446.82,872.98,429.35,872.98C429.35,872.98,429.35,872.98,429.35,872.98z M432.66,887.55h13.97v13
		h-3.34v-9.66h-10.63L432.66,887.55z M441.81,904.61c-13.48,14.72-24.49,0-24.49,0S428.24,889.91,441.81,904.61L441.81,904.61z
		 M427.68,881.92h3.34v7.3h-3.34V881.92z M412.5,887.55h13.66v3.34h-10.32v9.66h-3.34V887.55z M406.66,906.29v-3.34h7.51v3.34
		H406.66z M424.6,921.69h-12.1v-13h3.34v9.66h8.76L424.6,921.69z M431.02,927.31h-3.34v-7.3h3.34V927.31z M446.63,921.69h-13v-3.34
		h9.66v-9.66h3.34V921.69z M444.96,906.29v-3.34h7.08v3.34H444.96z"/>
</g>
</svg>
