<?xml version="1.0" encoding="utf-8"?>
<!-- Generator: Adobe Illustrator 24.2.3, SVG Export Plug-In . SVG Version: 6.00 Build 0)  -->
<svg version="1.1" id="Capa_1" xmlns="http://www.w3.org/2000/svg" xmlns:xlink="http://www.w3.org/1999/xlink" x="0px" y="0px"
	 viewBox="0 0 61.63 61.63" style="enable-background:new 0 0 61.63 61.63;" xml:space="preserve">
<style type="text/css">
	.st0{fill:#17A9EB;}
	.st1{fill:#FFFFFF;}
</style>
<g transform="translate(-1132.612 -329.085)">
	<g transform="translate(1132.612 329.085)">
		<path class="st0" d="M30.81,0C13.8,0,0,13.8,0,30.81c0,17.02,13.8,30.81,30.81,30.81c17.02,0,30.81-13.8,30.81-30.81
			C61.63,13.8,47.83,0,30.81,0z"/>
	</g>
	<g transform="translate(1152.179 342.675)">
		<path class="st1" d="M7.05,27.27h8.07c0.34,0,0.62,0.28,0.62,0.62v0.45c0,0.34-0.28,0.62-0.62,0.62H7.05
			c-0.34,0-0.62-0.28-0.62-0.62V27.9C6.42,27.55,6.7,27.27,7.05,27.27z"/>
		<path class="st1" d="M7.6,30.01h6.99c0.33,0,0.6,0.27,0.6,0.6v0.51c0,0.33-0.27,0.6-0.6,0.6H7.6c-0.33,0-0.6-0.27-0.6-0.6v-0.51
			C7.01,30.28,7.27,30.01,7.6,30.01z"/>
		<path class="st1" d="M9.28,32.75h3.62c0.33,0,0.6,0.27,0.6,0.6v0.51c0,0.33-0.27,0.6-0.6,0.6H9.28c-0.33,0-0.6-0.27-0.6-0.6v-0.51
			C8.69,33.01,8.96,32.75,9.28,32.75z"/>
		<path class="st1" d="M10.88,0C4.68,0.21-0.19,5.4,0.01,11.61c0.1,3.08,1.46,5.99,3.76,8.04c1.06,0.95,1.66,2.3,1.66,3.72v0.39
			c0,1.09,0.88,1.97,1.96,1.97c0,0,0,0,0,0h7.47c1.09,0,1.97-0.88,1.97-1.97v-0.71c0-1.19,0.55-2.3,1.47-3.04
			c4.84-3.9,5.6-10.98,1.7-15.81C17.79,1.44,14.41-0.11,10.88,0L10.88,0z M11.78,4.68C9.81,4.59,7.9,5.32,6.48,6.69
			c-1.3,1.54-2,3.49-1.98,5.5c0.01,0.38-0.28,0.69-0.66,0.71H3.82c-0.37,0-0.67-0.29-0.68-0.65C3.1,9.87,3.93,7.56,5.48,5.76
			c1.66-1.65,3.94-2.54,6.28-2.45h0.01c0.38,0,0.68,0.3,0.69,0.68S12.16,4.67,11.78,4.68L11.78,4.68z"/>
	</g>
</g>
</svg>
